<svg width="42" height="42" viewBox="0 0 42 42" fill="none" xmlns="http://www.w3.org/2000/svg">
<circle cx="21" cy="21" r="21" fill="#353538"/>
<path d="M21 31C26.5228 31 31 26.5228 31 21C31 15.4772 26.5228 11 21 11C15.4772 11 11 15.4772 11 21C11 26.5228 15.4772 31 21 31Z" fill="#FF5B44"/>
<path d="M19.58 24.5796C19.38 24.5796 19.19 24.4996 19.05 24.3596L16.22 21.5296C15.93 21.2396 15.93 20.7596 16.22 20.4696C16.51 20.1796 16.99 20.1796 17.28 20.4696L19.58 22.7696L24.72 17.6296C25.01 17.3396 25.49 17.3396 25.78 17.6296C26.07 17.9196 26.07 18.3996 25.78 18.6896L20.11 24.3596C19.97 24.4996 19.78 24.5796 19.58 24.5796Z" fill="white"/>
</svg>
