<svg width="42" height="42" viewBox="0 0 42 42" fill="none" xmlns="http://www.w3.org/2000/svg">
<circle cx="21" cy="21" r="21" fill="#353538"/>
<path d="M27.6667 18.1667C27.6667 25.5 31 24.8333 31 28.1667C31 28.1667 31 29.5 29.6667 29.5H12.3333C11 29.5 11 28.1667 11 28.1667C11 24.8333 14.3333 25.5 14.3333 18.1667C14.3333 14.4853 17.318 11.5 21 11.5C24.682 11.5 27.6667 14.4853 27.6667 18.1667Z" fill="#9B9999"/>
<path d="M21 13.5C22.1046 13.5 23 12.6046 23 11.5C23 10.3954 22.1046 9.5 21 9.5C19.8955 9.5 19 10.3954 19 11.5C19 12.6046 19.8955 13.5 21 13.5Z" fill="#9B9999"/>
<path d="M21 33.4997C22.4726 33.4997 23.6666 32.3057 23.6666 30.833H18.3333C18.3333 32.3057 19.5273 33.4997 21 33.4997Z" fill="#9B9999"/>
</svg>
