<svg width="25" height="24" viewBox="0 0 25 24" fill="none" xmlns="http://www.w3.org/2000/svg">
<path d="M14.2523 3.05537C14.2501 2.98195 14.167 2.93414 14.1015 2.97181C10.6361 4.96599 10.7003 9.96846 10.7417 10.8749C10.7448 10.9433 10.6776 10.9915 10.6134 10.9624C10.213 10.7807 9.06598 10.0968 9.00261 8.20208C9.00015 8.12856 8.9178 8.08129 8.8521 8.1188C6.84566 9.26428 5.49988 11.3799 5.49988 13.726C5.49988 17.317 8.63388 20.228 12.4999 20.228C16.3659 20.228 19.4999 17.317 19.4999 13.726C19.4998 8.50918 14.3802 7.38726 14.2523 3.05537Z" fill="#1C1B1B"/>
<path fill-rule="evenodd" clip-rule="evenodd" d="M13.6456 4.20943C12.694 5.08497 12.1437 6.29436 11.8349 7.50382C11.4472 9.02207 11.4717 10.422 11.491 10.8432C11.5157 11.3844 10.933 11.9059 10.2938 11.6159C9.82586 11.4037 8.80206 10.7688 8.40841 9.30659C7.08604 10.3829 6.24988 11.9873 6.24988 13.726C6.24988 16.8934 9.02215 19.5055 12.4999 19.5055C15.9776 19.5055 18.7499 16.8934 18.7499 13.726C18.7499 11.3926 17.6306 9.98046 16.3517 8.52571C16.273 8.43626 16.1934 8.34629 16.113 8.25563C15.1202 7.13467 14.0319 5.90597 13.6456 4.20943ZM13.7169 2.35162C14.3176 2.00592 14.985 2.45936 15.002 3.03483C15.0547 4.82133 16.0653 5.968 17.3228 7.39485C17.3802 7.45995 17.438 7.52562 17.4964 7.59197C18.8093 9.08536 20.2499 10.8426 20.2499 13.726C20.2499 17.7405 16.7541 20.9504 12.4999 20.9504C8.24561 20.9504 4.74988 17.7405 4.74988 13.726C4.74988 11.1114 6.24755 8.76595 8.46971 7.49731C9.06861 7.1554 9.73301 7.60435 9.75222 8.17882C9.76911 8.68365 9.87659 9.07491 10.0217 9.37655C10.0702 8.73542 10.1726 7.96413 10.3783 7.15869C10.8118 5.46104 11.7363 3.49133 13.7169 2.35162Z" fill="#1C1B1B"/>
</svg>
