<svg width="353" height="208" viewBox="0 0 353 208" fill="none" xmlns="http://www.w3.org/2000/svg">
<circle cx="62" cy="82" r="23" fill="#656569"/>
<path d="M55.1133 85.6141C55.1133 89.0206 59.8597 93.2783 64.0929 91.8681C67.6707 91.8681 70.3787 87.8214 70.1221 84.5105C69.8773 81.3521 68.246 75.7989 65.1427 75.0339C64.7482 74.9366 64.4164 75.2811 64.3938 75.6869C63.9201 84.1863 55.1133 77.047 55.1133 85.6141Z" fill="white"/>
<path d="M70.122 85.0012C70.122 88.9631 66.7622 92.1749 62.6177 92.1749C58.4731 92.1749 55.1133 88.9631 55.1133 85.0012C55.1133 81.2744 58.0861 73.4915 61.8886 72.5808C62.2837 72.4861 62.6162 72.8337 62.6295 73.2398C62.9607 83.3098 70.122 74.9986 70.122 85.0012Z" fill="white"/>
<path d="M63.4708 83.3655C64.6797 85.5416 63.6902 88.3998 61.2606 89.7496C60.4972 90.8997 58.3709 91.2294 56.553 88.8963C54.8972 87.7543 53.1611 81.5362 54.7115 79.427C54.9521 79.0996 55.4148 79.234 55.6328 79.5769C58.8058 84.5687 60.4635 77.9524 63.4708 83.3655Z" fill="white"/>
<path d="M63.0147 84.4674C62.0055 86.2838 58.0336 89.8943 62.5422 89.7515C61.0387 91.8977 67.1751 92.0679 68.7892 89.0841C70.8521 86.2262 71.0795 82.8911 70.6611 80.3288C70.5567 79.6895 69.7286 79.589 69.3219 80.0932C66.989 82.9853 65.3222 80.3138 63.0147 84.4674Z" fill="white"/>
<g filter="url(#filter0_d_2_6536)">
<rect x="104" y="59" width="209" height="104" rx="16" fill="white" shape-rendering="crispEdges"/>
<path d="M132.018 86.5508V87.6309H120.807V86.5508H125.743V83.7207H122.092V77.8965H130.678V83.7207H127.028V86.5508H132.018ZM123.35 82.6953H129.407V78.9355H123.35V82.6953ZM142.322 76.9121V79.9336H144.099V81.0273H142.322V84.1035H141.023V76.9121H142.322ZM133.243 83.2559V77.7734H138.712V78.8262H134.529V82.2031C136.914 82.1895 138.254 82.1279 139.792 81.8066L139.943 82.8457C138.288 83.1943 136.839 83.2559 134.214 83.2559H133.243ZM134.228 85.7988V84.7598H142.322V89.1758H141.023V85.7988H134.228ZM147.334 77.1035V78.1699H153.008V77.1035H154.307V81.1641H146.049V77.1035H147.334ZM144.586 83.1055V82.0527H155.756V83.1055H150.807V84.1582H154.348V87.0156H147.211V88.041H154.69V89.0391H145.94V86.0859H153.063V85.1289H145.926V84.1582H149.508V83.1055H144.586ZM147.334 80.1797H153.008V79.127H147.334V80.1797ZM170.895 86.5508V87.6309H159.684V86.5508H164.619V83.7207H160.969V77.8965H169.555V83.7207H165.904V86.5508H170.895ZM162.227 82.6953H168.283V78.9355H162.227V82.6953ZM181.732 76.9258V83.8984H180.433V76.9258H181.732ZM171.819 80.4395C171.826 78.71 173.207 77.5342 175.087 77.541C176.96 77.5342 178.341 78.71 178.341 80.4395C178.341 82.1211 176.96 83.3105 175.087 83.3105C173.207 83.3105 171.826 82.1211 171.819 80.4395ZM173.091 80.4395C173.084 81.4922 173.925 82.2168 175.087 82.2168C176.235 82.2168 177.069 81.4922 177.069 80.4395C177.069 79.3525 176.235 78.6279 175.087 78.6348C173.925 78.6279 173.084 79.3525 173.091 80.4395ZM173.679 89.0117V84.5137H181.732V89.0117H173.679ZM174.964 87.959H180.46V85.5527H174.964V87.959ZM194.004 76.9121V89.1621H192.76V76.9121H194.004ZM183.6 82.2031C183.6 79.5508 184.639 77.8896 186.238 77.8965C187.729 77.8896 188.733 79.3047 188.884 81.6016H190.272V77.1445H191.516V88.5605H190.272V82.6543H188.891C188.774 85.0469 187.756 86.5303 186.238 86.5234C184.639 86.5303 183.6 84.8623 183.6 82.2031ZM184.803 82.2031C184.803 84.1514 185.357 85.2998 186.238 85.293C187.141 85.2998 187.701 84.1514 187.701 82.2031C187.701 80.248 187.141 79.1064 186.238 79.1133C185.357 79.1064 184.803 80.248 184.803 82.2031ZM199.769 80.0293C199.769 82.2715 201.026 84.5068 202.899 85.3477L202.106 86.3867C200.719 85.6895 199.666 84.3086 199.126 82.6338C198.586 84.3975 197.52 85.8877 196.105 86.6191L195.284 85.5664C197.185 84.6572 198.449 82.2988 198.456 80.0293V77.9375H199.769V80.0293ZM201.546 82.0391V80.9863H204.28V76.9121H205.565V89.1895H204.28V82.0391H201.546ZM220.636 76.9121V89.1621H219.323V76.9121H220.636ZM210.573 85.8809C213.827 84.3291 215.42 82.1211 215.673 79.2637H211.161V78.2246H216.985C216.985 81.8135 215.461 84.917 211.257 86.9336L210.573 85.8809ZM231.883 76.9121V81.6562H233.851V82.7227H231.883V89.1895H230.584V76.9121H231.883ZM222.859 86.1406V78.0879H228.588V79.1406H224.158V85.0605C226.216 85.0537 227.754 84.9648 229.504 84.6504L229.668 85.7441C227.747 86.0859 226.12 86.1475 223.844 86.1406H222.859ZM244.401 76.9121V89.1895H243.102V76.9121H244.401ZM234.913 79.0723V78.0195H240.655V82.4902H236.253V85.1699C238.242 85.1631 239.972 85.0674 242.022 84.7324L242.145 85.7988C239.978 86.1611 238.133 86.2432 235.966 86.25H234.927V81.4512H239.329V79.0723H234.913ZM256.031 78.0879V79.291C256.024 80.8018 256.024 82.4971 255.566 85.0059L254.254 84.8691C254.725 82.4971 254.725 80.7607 254.732 79.291V79.1406H247.295V78.0879H256.031ZM246.119 87.5078V86.4277H250.371V82.1074H251.656V86.4277H257.289V87.5078H246.119ZM265.469 85.0059C265.469 86.0586 265.988 87.1729 267.102 87.8359C268.223 87.1182 268.777 85.9492 268.777 85.0059V84.418H270.049V85.0059C270.042 86.2773 270.883 87.5078 272.482 88.0273L271.84 88.9844C270.63 88.5674 269.802 87.7471 269.379 86.749C268.989 87.7334 268.258 88.6289 267.136 89.0938C265.961 88.6494 265.216 87.7812 264.84 86.7832C264.395 87.7471 263.589 88.5605 262.433 88.9844L261.777 88.0273C263.349 87.4668 264.204 86.1885 264.211 85.0059V84.418H265.469V85.0059ZM261.463 80.4941C261.469 78.7783 262.85 77.6025 264.73 77.5957C266.603 77.6025 267.984 78.7783 267.984 80.4941C267.984 82.1895 266.603 83.3652 264.73 83.3652C262.85 83.3652 261.469 82.1895 261.463 80.4941ZM262.734 80.4941C262.727 81.5605 263.568 82.2852 264.73 82.2852C265.879 82.2852 266.713 81.5605 266.713 80.4941C266.713 79.4209 265.879 78.6963 264.73 78.7031C263.568 78.6963 262.727 79.4209 262.734 80.4941ZM270.076 83.8984V76.9258H271.375V83.8984H270.076ZM276.428 77.8281C278.096 77.835 279.306 79.2432 279.505 81.5059H282.034V76.9121H283.319V89.1895H282.034V82.5586H279.518C279.375 84.9512 278.137 86.4346 276.428 86.4277C274.603 86.4346 273.311 84.7666 273.325 82.1211C273.311 79.5029 274.603 77.835 276.428 77.8281ZM274.555 82.1211C274.562 84.0693 275.321 85.2656 276.428 85.2656C277.536 85.2656 278.295 84.0693 278.301 82.1211C278.295 80.2002 277.536 78.9971 276.428 78.9902C275.321 78.9971 274.562 80.2002 274.555 82.1211ZM296.207 86.5508V87.6309H284.996V86.5508H287.675V83.3516C286.671 82.7979 286.055 81.9229 286.062 80.8223C286.055 78.8945 287.949 77.6299 290.574 77.623C293.206 77.6299 295.099 78.8945 295.099 80.8223C295.099 81.9023 294.511 82.7705 293.527 83.3242V86.5508H296.207ZM287.32 80.8223C287.32 82.1348 288.653 82.9893 290.574 82.9961C292.481 82.9893 293.835 82.1348 293.841 80.8223C293.835 79.5029 292.481 78.6621 290.574 78.6621C288.653 78.6621 287.32 79.5029 287.32 80.8223ZM288.961 86.5508H292.215V83.8301C291.716 83.9463 291.162 84.0078 290.574 84.0078C290 84.0078 289.453 83.9463 288.961 83.8301V86.5508Z" fill="#1C1B1B"/>
<path d="M123.978 98.8281C125.81 98.835 127.116 100.503 127.122 103.121C127.116 105.767 125.81 107.435 123.978 107.428C122.146 107.435 120.84 105.767 120.847 103.121C120.84 100.503 122.146 98.835 123.978 98.8281ZM122.091 103.121C122.084 105.069 122.864 106.266 123.978 106.266C125.113 106.266 125.878 105.069 125.878 103.121C125.878 101.2 125.113 99.9971 123.978 99.9902C122.864 99.9971 122.084 101.2 122.091 103.121ZM128.941 110.162V97.9121H130.24V102.711H132.208V103.805H130.24V110.162H128.941ZM137.59 99.1973V103.627H134.227V106.211C135.553 106.204 136.811 106.143 138.287 105.91L138.397 106.949C136.695 107.25 135.327 107.291 133.803 107.305H132.969V102.561H136.332V100.264H132.955V99.1973H137.59ZM139.08 109.533V98.1582H140.27V102.684H141.856V97.9121H143.1V110.162H141.856V103.736H140.27V109.533H139.08ZM157.842 97.9258V105.432H156.543V97.9258H157.842ZM148.299 99.7441V98.6777H153.932V102.15H149.598V103.682C151.744 103.668 153.31 103.6 155.176 103.312L155.34 104.365C153.337 104.693 151.669 104.748 149.352 104.748H148.326V101.152H152.647V99.7441H148.299ZM149.584 107.906C149.584 106.478 151.156 105.657 153.754 105.664C156.345 105.657 157.924 106.478 157.924 107.906C157.924 109.321 156.345 110.142 153.754 110.135C151.156 110.142 149.584 109.321 149.584 107.906ZM150.869 107.906C150.876 108.679 151.936 109.116 153.754 109.109C155.566 109.116 156.625 108.679 156.625 107.906C156.625 107.127 155.566 106.683 153.754 106.689C151.936 106.683 150.876 107.127 150.869 107.906ZM169.431 99.1016V100.592C169.431 102.383 169.431 104.064 168.898 106.607L167.612 106.484C167.872 105.356 168.009 104.379 168.077 103.47L160.722 103.859L160.558 102.793L168.139 102.506C168.166 101.85 168.166 101.221 168.173 100.592V100.168H160.9V99.1016H169.431ZM159.573 108.521V107.455H170.743V108.521H159.573ZM182.66 103.531V104.529H171.449V103.531H182.66ZM172.775 106.32V105.391H181.279V108.084H174.088V109.096H181.662V110.012H172.789V107.223H179.994V106.32H172.775ZM172.858 99.1426V98.2266H181.252V100.879H174.17V101.809H181.457V102.725H172.885V100.018H179.953V99.1426H172.858ZM196.445 100.701V101.754H188.037V98.0898H189.309V100.701H196.445ZM186.547 103.764V102.697H197.758V103.764H192.754V104.939H196.35V107.865H189.24V109.027H196.773V110.039H187.941V106.949H195.064V105.938H187.914V104.939H191.496V103.764H186.547ZM208.649 97.9121V110.189H207.364V103.6H205.122V102.52H207.364V97.9121H208.649ZM198.874 100.072V99.0195H204.397V103.395H200.2V106.184C202.155 106.17 203.659 106.108 205.368 105.801L205.478 106.867C203.645 107.188 202.032 107.264 199.872 107.277H198.901V102.342H203.14V100.072H198.874ZM224.731 102.93V103.969H213.548V102.93H224.731ZM214.888 105.938V104.939H223.309V107.906H216.173V109H223.651V110.025H214.901V106.949H222.024V105.938H214.888ZM215.011 102.041V98.2676H223.282V99.3203H216.309V101.002H223.405V102.041H215.011ZM228.76 98.8281C230.428 98.835 231.638 100.243 231.836 102.506H234.365V97.9121H235.65V110.189H234.365V103.559H231.849C231.706 105.951 230.469 107.435 228.76 107.428C226.934 107.435 225.642 105.767 225.656 103.121C225.642 100.503 226.934 98.835 228.76 98.8281ZM226.887 103.121C226.893 105.069 227.652 106.266 228.76 106.266C229.867 106.266 230.626 105.069 230.633 103.121C230.626 101.2 229.867 99.9971 228.76 99.9902C227.652 99.9971 226.893 101.2 226.887 103.121ZM242.905 98.6504C245.523 98.6572 247.43 99.9492 247.43 101.904C247.43 103.736 245.831 104.96 243.548 105.145V107.551H248.538V108.631H237.327V107.551H242.263V105.145C239.993 104.96 238.387 103.736 238.393 101.904C238.387 99.9492 240.301 98.6572 242.905 98.6504ZM239.651 101.904C239.651 103.278 241.018 104.133 242.905 104.146C244.805 104.133 246.166 103.278 246.173 101.904C246.166 100.578 244.805 99.7031 242.905 99.7168C241.018 99.7031 239.651 100.578 239.651 101.904ZM252.949 101.262C252.949 103.217 253.769 105.302 255.41 106.307L254.685 107.305C253.537 106.614 252.764 105.391 252.341 103.976C251.896 105.527 251.049 106.854 249.859 107.578L249.053 106.607C250.782 105.568 251.698 103.401 251.691 101.316V99.0332H252.949V101.262ZM254.084 103.299V102.219H255.984V98.1445H257.215V109.561H255.984V103.299H254.084ZM258.513 110.162V97.9121H259.758V110.162H258.513ZM272.317 107.551V108.631H261.106V107.551H263.786V104.352C262.781 103.798 262.166 102.923 262.173 101.822C262.166 99.8945 264.059 98.6299 266.684 98.623C269.316 98.6299 271.21 99.8945 271.21 101.822C271.21 102.902 270.622 103.771 269.637 104.324V107.551H272.317ZM263.43 101.822C263.43 103.135 264.763 103.989 266.684 103.996C268.592 103.989 269.945 103.135 269.952 101.822C269.945 100.503 268.592 99.6621 266.684 99.6621C264.763 99.6621 263.43 100.503 263.43 101.822ZM265.071 107.551H268.325V104.83C267.826 104.946 267.272 105.008 266.684 105.008C266.11 105.008 265.563 104.946 265.071 104.83V107.551Z" fill="#1C1B1B"/>
<path d="M123.838 135.789V142H121.338V127.859H123.779V133.191H123.916C124.395 131.99 125.43 131.258 127.061 131.258C129.258 131.258 130.713 132.684 130.713 135.242V142H128.232V135.633C128.223 134.188 127.451 133.357 126.143 133.367C124.795 133.357 123.838 134.246 123.838 135.789ZM138.069 131.395V133.309H135.979V138.816C135.979 139.832 136.487 140.037 137.112 140.047C137.405 140.057 137.893 140.027 138.206 140.008V142.039C137.913 142.088 137.434 142.146 136.8 142.137C134.925 142.146 133.479 141.219 133.499 139.227V133.309H131.975V131.395H133.499V128.855H135.979V131.395H138.069ZM144.976 131.395V133.309H142.886V138.816C142.886 139.832 143.394 140.037 144.019 140.047C144.312 140.057 144.8 140.027 145.113 140.008V142.039C144.82 142.088 144.341 142.146 143.707 142.137C141.832 142.146 140.386 141.219 140.406 139.227V133.309H138.882V131.395H140.406V128.855H142.886V131.395H144.976ZM146.59 145.984V131.395H149.032V133.133H149.188C149.569 132.381 150.35 131.258 152.235 131.258C154.676 131.258 156.6 133.172 156.61 136.707C156.6 140.193 154.735 142.186 152.235 142.195C150.409 142.186 149.579 141.102 149.188 140.32H149.09V145.984H146.59ZM149.032 136.688C149.041 138.758 149.94 140.145 151.551 140.145C153.202 140.145 154.071 138.689 154.071 136.688C154.071 134.715 153.221 133.299 151.551 133.289C149.92 133.299 149.041 134.627 149.032 136.688ZM164.279 134.422C164.122 133.621 163.458 133.104 162.404 133.113C161.339 133.104 160.558 133.641 160.568 134.363C160.558 134.91 160.997 135.32 162.071 135.574L163.868 135.945C165.87 136.385 166.847 137.312 166.857 138.836C166.847 140.828 165.099 142.215 162.325 142.215C159.63 142.215 158.038 141.004 157.775 138.973H160.314C160.46 139.881 161.163 140.33 162.325 140.32C163.527 140.33 164.308 139.842 164.318 139.051C164.308 138.436 163.829 138.045 162.775 137.82L161.075 137.449C159.103 137.049 158.077 136.014 158.087 134.5C158.077 132.537 159.777 131.258 162.364 131.258C164.894 131.258 166.456 132.498 166.642 134.422H164.279ZM169.994 142.156C169.154 142.156 168.461 141.473 168.471 140.633C168.461 139.812 169.154 139.139 169.994 139.129C170.805 139.139 171.498 139.812 171.498 140.633C171.498 141.473 170.805 142.156 169.994 142.156ZM168.471 133.055C168.461 132.234 169.154 131.561 169.994 131.551C170.805 131.561 171.498 132.234 171.498 133.055C171.498 133.895 170.805 134.578 169.994 134.578C169.154 134.578 168.461 133.895 168.471 133.055ZM179.362 127.195L174.811 144.129H172.624L177.194 127.195H179.362ZM186.23 127.195L181.679 144.129H179.492L184.062 127.195H186.23ZM187.336 142V131.395H189.719V133.191H189.856C190.295 131.98 191.36 131.258 192.766 131.258C194.202 131.258 195.237 131.99 195.637 133.191H195.754C196.213 132.02 197.395 131.258 198.938 131.258C200.881 131.258 202.248 132.508 202.239 134.871V142H199.758V135.262C199.758 133.943 198.957 133.348 197.942 133.348C196.721 133.348 196.008 134.178 196.008 135.379V142H193.586V135.164C193.577 134.061 192.854 133.348 191.789 133.348C190.715 133.348 189.836 134.236 189.836 135.555V142H187.336ZM208.95 142.215C205.855 142.215 203.872 140.018 203.872 136.746C203.872 133.445 205.855 131.258 208.95 131.258C212.056 131.258 214.038 133.445 214.029 136.746C214.038 140.018 212.056 142.215 208.95 142.215ZM206.392 136.727C206.392 138.67 207.241 140.223 208.97 140.223C210.669 140.223 211.519 138.67 211.509 136.727C211.519 134.783 210.669 133.221 208.97 133.23C207.241 133.221 206.392 134.783 206.392 136.727ZM215.662 142V131.395H218.162V142H215.662ZM215.486 128.523C215.486 127.781 216.141 127.176 216.932 127.176C217.723 127.176 218.377 127.781 218.377 128.523C218.377 129.275 217.723 129.881 216.932 129.891C216.141 129.881 215.486 129.275 215.486 128.523ZM222.745 135.789V142H220.245V131.395H222.628V133.191H222.764C223.243 132.01 224.327 131.258 225.909 131.258C228.106 131.258 229.552 132.703 229.542 135.242V142H227.061V135.633C227.061 134.207 226.29 133.357 224.991 133.367C223.673 133.357 222.745 134.246 222.745 135.789ZM236.254 146.199C233.441 146.199 231.654 144.949 231.488 142.957H233.968C234.144 143.885 235.013 144.314 236.293 144.324C237.787 144.314 238.754 143.67 238.754 142.117V140.086H238.636C238.246 140.867 237.396 141.844 235.57 141.844C233.119 141.844 231.195 140.066 231.195 136.609C231.195 133.123 233.129 131.258 235.589 131.258C237.455 131.258 238.246 132.381 238.636 133.133H238.754V131.395H241.214V142.176C241.214 144.891 239.115 146.199 236.254 146.199ZM233.734 136.648C233.734 138.602 234.613 139.891 236.254 139.891C237.865 139.891 238.773 138.68 238.773 136.648C238.773 134.627 237.875 133.299 236.254 133.289C234.593 133.299 233.734 134.715 233.734 136.648ZM244.84 142.156C244 142.156 243.307 141.473 243.317 140.633C243.307 139.812 244 139.139 244.84 139.129C245.651 139.139 246.344 139.812 246.344 140.633C246.344 141.473 245.651 142.156 244.84 142.156ZM249.989 142.156C249.15 142.156 248.456 141.473 248.466 140.633C248.456 139.812 249.15 139.139 249.989 139.129C250.8 139.139 251.493 139.812 251.493 140.633C251.493 141.473 250.8 142.156 249.989 142.156ZM255.139 142.156C254.299 142.156 253.605 141.473 253.615 140.633C253.605 139.812 254.299 139.139 255.139 139.129C255.949 139.139 256.643 139.812 256.643 140.633C256.643 141.473 255.949 142.156 255.139 142.156Z" fill="#FF5B44"/>
</g>
<path d="M104.5 89V78L101.927 78.5145C98.6606 79.1679 95.3149 79.3315 92 79C94.2591 83.1955 97.9394 86.4486 102.38 88.1757L104.5 89Z" fill="white"/>
<path d="M55.7227 122.551V123.631H44.5118V122.551H49.4473V119.721H45.7969V113.896H54.3829V119.721H50.7325V122.551H55.7227ZM47.0547 118.695H53.1114V114.936H47.0547V118.695ZM66.0264 112.912V115.934H67.8037V117.027H66.0264V120.104H64.7275V112.912H66.0264ZM56.9482 119.256V113.773H62.417V114.826H58.2334V118.203C60.6191 118.189 61.959 118.128 63.4971 117.807L63.6475 118.846C61.9932 119.194 60.5439 119.256 57.9189 119.256H56.9482ZM57.9326 121.799V120.76H66.0264V125.176H64.7275V121.799H57.9326ZM71.039 113.104V114.17H76.7129V113.104H78.0117V117.164H69.7539V113.104H71.039ZM68.291 119.105V118.053H79.4609V119.105H74.5117V120.158H78.0527V123.016H70.916V124.041H78.3945V125.039H69.6445V122.086H76.7675V121.129H69.6308V120.158H73.2129V119.105H68.291ZM71.039 116.18H76.7129V115.127H71.039V116.18Z" fill="#9B9999"/>
<defs>
<filter id="filter0_d_2_6536" x="68" y="0" width="281" height="176" filterUnits="userSpaceOnUse" color-interpolation-filters="sRGB">
<feFlood flood-opacity="0" result="BackgroundImageFix"/>
<feColorMatrix in="SourceAlpha" type="matrix" values="0 0 0 0 0 0 0 0 0 0 0 0 0 0 0 0 0 0 127 0" result="hardAlpha"/>
<feOffset dy="-23"/>
<feGaussianBlur stdDeviation="18"/>
<feComposite in2="hardAlpha" operator="out"/>
<feColorMatrix type="matrix" values="0 0 0 0 0.0666667 0 0 0 0 0.0666667 0 0 0 0 0.0627451 0 0 0 0.76 0"/>
<feBlend mode="normal" in2="BackgroundImageFix" result="effect1_dropShadow_2_6536"/>
<feBlend mode="normal" in="SourceGraphic" in2="effect1_dropShadow_2_6536" result="shape"/>
</filter>
</defs>
</svg>
