<svg width="32" height="33" viewBox="0 0 32 33" fill="none" xmlns="http://www.w3.org/2000/svg">
<rect y="0.5" width="32" height="32" rx="7.68" fill="#353538"/>
<path d="M18.1009 5.70244C18.0982 5.60956 17.9929 5.54909 17.9101 5.59674C13.5264 8.11943 13.6075 14.4477 13.6599 15.5944C13.6638 15.6808 13.5789 15.7419 13.4976 15.705C12.9911 15.4753 11.5401 14.61 11.4599 12.2132C11.4568 12.1202 11.3526 12.0604 11.2695 12.1078C8.7313 13.5569 7.02885 16.2332 7.02885 19.2011C7.02885 23.7437 10.9934 27.4263 15.884 27.4263C20.7746 27.4263 24.7392 23.7437 24.7392 19.2011C24.7392 12.6017 18.2627 11.1824 18.1009 5.70244Z" fill="#1C1B1B"/>
<path fill-rule="evenodd" clip-rule="evenodd" d="M17.3335 7.16236C16.1296 8.26994 15.4335 9.79985 15.0428 11.3299C14.5523 13.2505 14.5834 15.0214 14.6077 15.5542C14.639 16.2389 13.9019 16.8986 13.0933 16.5318C12.5013 16.2633 11.2062 15.4602 10.7082 13.6104C9.03539 14.972 7.97762 17.0016 7.97762 19.2011C7.97762 23.208 11.4846 26.5124 15.884 26.5124C20.2835 26.5124 23.7905 23.208 23.7905 19.2011C23.7904 16.2493 22.3745 14.4629 20.7567 12.6226C20.6572 12.5094 20.5564 12.3956 20.4548 12.2809C19.1988 10.8629 17.8221 9.30853 17.3335 7.16236ZM17.4235 4.81218C18.1835 4.37486 19.0278 4.94847 19.0493 5.67646C19.116 7.93643 20.3944 9.387 21.9852 11.192C22.0577 11.2744 22.131 11.3574 22.2047 11.4414C23.8656 13.3305 25.688 15.5535 25.688 19.2011C25.688 24.2795 21.2658 28.3402 15.884 28.3402C10.5023 28.3402 6.08008 24.2795 6.08008 19.2011C6.08008 15.8936 7.97468 12.9265 10.7858 11.3216C11.5434 10.8891 12.3839 11.457 12.4082 12.1838C12.4295 12.8224 12.5655 13.3173 12.749 13.6989C12.8104 12.8879 12.94 11.9122 13.2002 10.8933C13.7486 8.74568 14.9181 6.25394 17.4235 4.81218Z" fill="#1C1B1B"/>
</svg>
