<svg width="52" height="52" viewBox="0 0 52 52" fill="none" xmlns="http://www.w3.org/2000/svg">
<path d="M47.1466 34.494L33.28 9.53398C31.4166 6.17565 28.8383 4.33398 26 4.33398C23.1616 4.33398 20.5833 6.17565 18.72 9.53398L4.85332 34.494C3.09832 37.679 2.90332 40.734 4.31165 43.139C5.71998 45.544 8.49332 46.8657 12.1333 46.8657H39.8666C43.5066 46.8657 46.28 45.544 47.6883 43.139C49.0966 40.734 48.9016 37.6573 47.1466 34.494ZM24.375 19.5007C24.375 18.6123 25.1116 17.8757 26 17.8757C26.8883 17.8757 27.625 18.6123 27.625 19.5007V30.334C27.625 31.2223 26.8883 31.959 26 31.959C25.1116 31.959 24.375 31.2223 24.375 30.334V19.5007ZM27.5383 38.3723C27.43 38.459 27.3216 38.5457 27.2133 38.6323C27.0833 38.719 26.9533 38.784 26.8233 38.8273C26.6933 38.8923 26.5633 38.9357 26.4116 38.9573C26.2816 38.979 26.13 39.0007 26 39.0007C25.87 39.0007 25.7183 38.979 25.5666 38.9573C25.4366 38.9357 25.3066 38.8923 25.1766 38.8273C25.0466 38.784 24.9166 38.719 24.7866 38.6323C24.6783 38.5457 24.57 38.459 24.4616 38.3723C24.0716 37.9607 23.8333 37.3973 23.8333 36.834C23.8333 36.2707 24.0716 35.7073 24.4616 35.2957C24.57 35.209 24.6783 35.1223 24.7866 35.0357C24.9166 34.949 25.0466 34.884 25.1766 34.8407C25.3066 34.7757 25.4366 34.7323 25.5666 34.7107C25.8483 34.6457 26.1516 34.6457 26.4116 34.7107C26.5633 34.7323 26.6933 34.7757 26.8233 34.8407C26.9533 34.884 27.0833 34.949 27.2133 35.0357C27.3216 35.1223 27.43 35.209 27.5383 35.2957C27.9283 35.7073 28.1666 36.2707 28.1666 36.834C28.1666 37.3973 27.9283 37.9607 27.5383 38.3723Z" fill="#E8EBEF"/>
</svg>
