<svg width="46" height="46" viewBox="0 0 46 46" fill="none" xmlns="http://www.w3.org/2000/svg">
<circle cx="23" cy="23" r="23" fill="#656569"/>
<path d="M16.1136 26.6141C16.1136 30.0206 20.8599 34.2783 25.0932 32.8681C28.6709 32.8681 31.3789 28.8214 31.1223 25.5105C30.8776 22.3521 29.2462 16.7989 26.143 16.0339C25.7485 15.9366 25.4167 16.2811 25.394 16.6869C24.9203 25.1863 16.1136 18.047 16.1136 26.6141Z" fill="white"/>
<path d="M31.122 26.0011C31.122 29.9631 27.7622 33.1748 23.6177 33.1748C19.4731 33.1748 16.1133 29.9631 16.1133 26.0011C16.1133 22.2744 19.0861 14.4914 22.8886 13.5807C23.2837 13.4861 23.6162 13.8336 23.6295 14.2397C23.9607 24.3098 31.122 15.9986 31.122 26.0011Z" fill="white"/>
<path d="M24.471 24.3656C25.68 26.5416 24.6904 29.3999 22.2608 30.7497C21.4975 31.8997 19.3712 32.2295 17.5533 29.8963C15.8974 28.7544 14.1613 22.5363 15.7117 20.427C15.9524 20.0996 16.415 20.2341 16.633 20.577C19.806 25.5687 21.4637 18.9524 24.471 24.3656Z" fill="white"/>
<path d="M24.0152 25.4672C23.006 27.2837 19.0341 30.8941 23.5427 30.7513C22.0392 32.8975 28.1756 33.0678 29.7897 30.084C31.8526 27.2261 32.08 23.891 31.6616 21.3287C31.5572 20.6894 30.7291 20.5889 30.3224 21.0931C27.9895 23.9852 26.3227 21.3137 24.0152 25.4672Z" fill="white"/>
</svg>
