<svg width="48" height="48" viewBox="0 0 48 48" fill="none" xmlns="http://www.w3.org/2000/svg">
<rect width="48" height="48" fill="#353538"/>
<path fill-rule="evenodd" clip-rule="evenodd" d="M32.3153 33.0108C32.3804 32.917 32.444 32.8221 32.506 32.7261C35.0982 28.9879 35.3753 24.6706 34.8295 21.3419C34.6915 20.5001 33.6007 20.3679 33.0659 21.0325C33.0187 21.0913 32.9716 21.1483 32.9248 21.2036C31.8459 17.9925 30.054 14.9652 27.5228 14.3444C27.0031 14.217 26.5662 14.6709 26.5366 15.2052C26.4686 16.4316 26.2696 17.4122 25.9689 18.2007C25.0006 17.156 24.3113 15.3401 24.2009 11.966C24.1834 11.4312 23.7457 10.9734 23.2251 11.0974C19.9084 11.8879 17.068 16.6299 15.5157 21.1848C15.3274 20.9394 15.1351 20.6634 14.9385 20.3538C14.6515 19.9021 14.0425 19.725 13.7247 20.1556C11.9435 22.5696 13.4283 29.0692 15.2821 31.7507C16.906 34.8805 20.2829 37.032 24.1853 37.032C25.393 37.032 26.5503 36.826 27.6208 36.4487C29.0687 36.0985 30.3636 35.2547 31.4104 34.1343C31.7676 33.8074 32.0761 33.4336 32.3153 33.0108Z" fill="#272727"/>
</svg>
