<svg width="80" height="32" viewBox="0 0 80 32" fill="none" xmlns="http://www.w3.org/2000/svg">
<path d="M2.84232 23.5885H0V8.48872H2.84232L7.23014 15.559L11.618 8.48872H14.4603V23.5885H11.618V13.9069L8.36707 18.952H6.09322L2.84232 13.9069V23.5885Z" fill="white"/>
<path d="M15.8182 16.0386C15.8182 11.562 18.7315 8.3999 22.8529 8.3999C26.992 8.3999 29.8876 11.562 29.8876 16.0386C29.8876 20.533 26.992 23.6951 22.8529 23.6951C18.7315 23.6951 15.8182 20.533 15.8182 16.0386ZM22.8529 11.1889C20.3836 11.1889 18.6605 13.1963 18.6605 16.0386C18.6605 18.9165 20.4014 20.9061 22.8529 20.9061C25.3399 20.9061 27.0453 18.9165 27.0453 16.0386C27.0453 13.1785 25.3399 11.1889 22.8529 11.1889Z" fill="white"/>
<path d="M34.2957 23.5885H31.4534V8.48872H34.2957V23.5885Z" fill="white"/>
<path d="M38.818 23.5885H35.9757V8.48872H38.818L45.835 18.6145V8.48872H48.6773V22.7181L48.7128 22.7714L48.6773 22.7891V23.5885H45.835L38.818 13.4805V23.5885Z" fill="white"/>
<path d="M56.3041 17.371V14.6885H64.4935C64.5468 15.1504 64.5823 15.6123 64.5823 16.0386C64.5823 20.6396 61.3314 23.6774 57.3521 23.6774C53.3729 23.6774 50.1931 20.6219 50.1931 16.0386C50.1931 11.6153 53.1953 8.3999 57.3344 8.3999C60.532 8.3999 62.9124 10.0342 63.9783 12.7167H60.905C60.2122 11.8107 58.8799 11.26 57.3521 11.26C54.8829 11.26 53.0354 13.0187 53.0354 16.0386C53.0354 19.0764 54.8474 20.8173 57.3699 20.8173C59.5017 20.8173 61.1538 19.5915 61.6156 17.371H56.3041Z" fill="white"/>
</svg>
