<svg width="24" height="24" viewBox="0 0 24 24" fill="none" xmlns="http://www.w3.org/2000/svg">
<path d="M12.02 20.5299C9.68999 20.5299 7.35999 20.1599 5.14999 19.4199C4.30999 19.1299 3.66999 18.5399 3.38999 17.7699C3.09999 16.9999 3.19999 16.1499 3.65999 15.3899L4.80999 13.4799C5.04999 13.0799 5.26999 12.2799 5.26999 11.8099V8.91992C5.26999 5.19992 8.29999 2.16992 12.02 2.16992C15.74 2.16992 18.77 5.19992 18.77 8.91992V11.8099C18.77 12.2699 18.99 13.0799 19.23 13.4899L20.37 15.3899C20.8 16.1099 20.88 16.9799 20.59 17.7699C20.3 18.5599 19.67 19.1599 18.88 19.4199C16.68 20.1599 14.35 20.5299 12.02 20.5299ZM12.02 3.66992C9.12999 3.66992 6.76999 6.01992 6.76999 8.91992V11.8099C6.76999 12.5399 6.46999 13.6199 6.09999 14.2499L4.94999 16.1599C4.72999 16.5299 4.66999 16.9199 4.79999 17.2499C4.91999 17.5899 5.21999 17.8499 5.62999 17.9899C9.80999 19.3899 14.24 19.3899 18.42 17.9899C18.78 17.8699 19.06 17.5999 19.19 17.2399C19.32 16.8799 19.29 16.4899 19.09 16.1599L17.94 14.2499C17.56 13.5999 17.27 12.5299 17.27 11.7999V8.91992C17.27 6.01992 14.92 3.66992 12.02 3.66992Z" fill="#D9DCE1"/>
<path d="M13.88 3.93969C13.81 3.93969 13.74 3.92969 13.67 3.90969C13.38 3.82969 13.1 3.76969 12.83 3.72969C11.98 3.61969 11.16 3.67969 10.39 3.90969C10.11 3.99969 9.80999 3.90969 9.61999 3.69969C9.42999 3.48969 9.36999 3.18969 9.47999 2.91969C9.88999 1.86969 10.89 1.17969 12.03 1.17969C13.17 1.17969 14.17 1.85969 14.58 2.91969C14.68 3.18969 14.63 3.48969 14.44 3.69969C14.29 3.85969 14.08 3.93969 13.88 3.93969Z" fill="#D9DCE1"/>
<path d="M12.02 22.8105C11.03 22.8105 10.07 22.4105 9.36999 21.7105C8.66999 21.0105 8.26999 20.0505 8.26999 19.0605H9.76999C9.76999 19.6505 10.01 20.2305 10.43 20.6505C10.85 21.0705 11.43 21.3105 12.02 21.3105C13.26 21.3105 14.27 20.3005 14.27 19.0605H15.77C15.77 21.1305 14.09 22.8105 12.02 22.8105Z" fill="#D9DCE1"/>
</svg>
