<svg width="48" height="57" viewBox="0 0 48 57" fill="none" xmlns="http://www.w3.org/2000/svg">
<path d="M29.2572 3.16708C29.2507 2.94682 29.0012 2.8034 28.8049 2.91641C18.4088 8.89895 18.6013 23.9064 18.7254 26.6257C18.7348 26.8308 18.5333 26.9755 18.3405 26.888C17.1395 26.3432 13.6983 24.2913 13.5082 18.6072C13.5008 18.3867 13.2538 18.2448 13.0567 18.3574C7.03735 21.7938 3 28.1407 3 35.179C3 45.9518 12.402 54.6849 24 54.6849C35.598 54.6849 45 45.9518 45 35.179C44.9999 19.5285 29.6409 16.1627 29.2572 3.16708Z" fill="#FF5B44"/>
<path fill-rule="evenodd" clip-rule="evenodd" d="M27.4373 6.62927C24.5823 9.25588 22.9315 12.884 22.0049 16.5124C20.8418 21.0672 20.9156 25.2669 20.9732 26.5305C21.0473 28.1542 19.2994 29.7187 17.3818 28.8488C15.978 28.2119 12.9065 26.3074 11.7256 21.9207C7.75848 25.1498 5.25 29.9629 5.25 35.179C5.25 44.6812 13.5668 52.5176 24 52.5176C34.4332 52.5176 42.75 44.6812 42.75 35.179C42.7499 28.1788 39.3922 23.9424 35.5554 19.5781C35.3195 19.3097 35.0804 19.0399 34.8395 18.7679C31.8609 15.405 28.596 11.7189 27.4373 6.62927ZM27.6509 1.05583C29.4531 0.0187393 31.4554 1.37906 31.5063 3.10547C31.6646 8.46497 34.6963 11.905 38.4688 16.1855C38.6409 16.3808 38.8145 16.5778 38.9895 16.7769C42.9282 21.2571 47.2499 26.5287 47.25 35.179C47.25 47.2224 36.7628 56.8522 24 56.8522C11.2372 56.8522 0.75 47.2224 0.75 35.179C0.75 27.3353 5.24302 20.2988 11.9095 16.4929C13.7062 15.4672 15.6994 16.814 15.757 18.5374C15.8077 20.0519 16.1301 21.2257 16.5654 22.1306C16.7109 20.2072 17.0182 17.8934 17.6352 15.4771C18.9358 10.3841 21.7094 4.47496 27.6509 1.05583Z" fill="#FF5B44"/>
</svg>
