<svg width="24" height="24" viewBox="0 0 24 24" fill="none" xmlns="http://www.w3.org/2000/svg">
<path d="M8.82 4.90003L7.54 2.78003C7.06 2.00003 6.11 1.56003 5.22 1.82003C3.88 2.22003 3.36001 3.73003 4.03001 4.84003L5.35 7.01003C5.5 7.24003 5.81 7.32003 6.04 7.18003L8.65 5.59003C8.89 5.44003 8.97 5.13003 8.82 4.90003Z" fill="#F4F6F8"/>
<path d="M19.74 14.2098L16.93 10.4098C15.95 9.08984 14.25 8.46984 12.65 8.89984C12.65 8.88984 12.64 8.88984 12.64 8.87984L10.98 6.14984C10.68 5.67984 10.06 5.52984 9.59 5.81984L6.12 7.92984C5.64 8.20984 5.49 8.83984 5.78 9.31984L7.43 12.0498C7.43 12.0498 7.43 12.0598 7.44 12.0598C6.33 13.2898 6.09 15.0798 6.83 16.5698L8.91 20.8098C9.55 22.1198 11.06 22.6198 12.34 21.9598C12.44 21.9098 12.47 21.7898 12.41 21.6898L10.85 19.1098C10.63 18.7498 10.74 18.2898 11.1 18.0598C11.46 17.8498 11.92 17.9598 12.15 18.3098L13.72 20.8898C13.78 20.9798 13.9 21.0098 13.99 20.9598L14.95 20.3798C15.04 20.3198 15.07 20.1998 15.02 20.1098L13.45 17.5298C13.24 17.1698 13.35 16.7098 13.7 16.4798C14.07 16.2698 14.53 16.3798 14.75 16.7298L16.32 19.3098C16.38 19.3998 16.5 19.4298 16.59 19.3798L17.55 18.7998C17.64 18.7398 17.67 18.6198 17.62 18.5298L16.05 15.9498C15.84 15.5898 15.95 15.1298 16.3 14.8998C16.67 14.6898 17.13 14.7998 17.35 15.1498L18.93 17.7198C18.99 17.8098 19.11 17.8398 19.2 17.7798C20.36 16.9498 20.62 15.3898 19.74 14.2098Z" fill="#F4F6F8"/>
</svg>
