<svg width="16" height="19" viewBox="0 0 16 19" fill="none" xmlns="http://www.w3.org/2000/svg">
<path d="M9.75242 1.05634C9.75025 0.982926 9.66708 0.935118 9.60162 0.972787C6.13626 2.96697 6.20044 7.96944 6.24181 8.87587C6.24493 8.94424 6.17777 8.99249 6.11349 8.96333C5.71316 8.78172 4.5661 8.09777 4.50273 6.20306C4.50028 6.12954 4.41792 6.08227 4.35223 6.11977C2.34578 7.26525 1 9.38089 1 11.727C1 15.3179 4.134 18.229 8 18.229C11.866 18.229 15 15.3179 15 11.727C15 6.51016 9.8803 5.38823 9.75242 1.05634Z" fill="#1C1B1B"/>
<path fill-rule="evenodd" clip-rule="evenodd" d="M9.14576 2.21041C8.19409 3.08594 7.64384 4.29533 7.33498 5.5048C6.94727 7.02304 6.97186 8.42294 6.99108 8.84414C7.01578 9.3854 6.43313 9.90688 5.79394 9.61692C5.32598 9.40463 4.30218 8.7698 3.90853 7.30756C2.58616 8.38392 1.75 9.98828 1.75 11.727C1.75 14.8944 4.52227 17.5065 8 17.5065C11.4777 17.5065 14.25 14.8944 14.25 11.727C14.25 9.39359 13.1307 7.98144 11.8518 6.52668C11.7732 6.43723 11.6935 6.34727 11.6132 6.2566C10.6203 5.13565 9.53199 3.90695 9.14576 2.21041ZM9.21698 0.352595C9.81771 0.00689745 10.4851 0.460337 10.5021 1.03581C10.5549 2.82231 11.5654 3.96897 12.8229 5.39583C12.8803 5.46092 12.9382 5.5266 12.9965 5.59295C14.3094 7.08634 15.75 8.84356 15.75 11.727C15.75 15.7415 12.2543 18.9514 8 18.9514C3.74573 18.9514 0.25 15.7415 0.25 11.727C0.25 9.11241 1.74768 6.76692 3.96983 5.49829C4.56873 5.15638 5.23313 5.60533 5.25235 6.1798C5.26923 6.68463 5.37671 7.07589 5.52179 7.37753C5.57029 6.73639 5.67272 5.96511 5.8784 5.15967C6.31192 3.46201 7.23646 1.4923 9.21698 0.352595Z" fill="#1C1B1B"/>
</svg>
