<svg width="24" height="24" viewBox="0 0 24 24" fill="none" xmlns="http://www.w3.org/2000/svg">
<path d="M18.02 12.33L16.8 11.11C16.51 10.86 16.34 10.49 16.33 10.08C16.31 9.63 16.49 9.18 16.82 8.85L18.02 7.65C19.06 6.61 19.45 5.61 19.12 4.82C18.8 4.04 17.81 3.61 16.35 3.61H5.89999V2.75C5.89999 2.34 5.55999 2 5.14999 2C4.73999 2 4.39999 2.34 4.39999 2.75V21.25C4.39999 21.66 4.73999 22 5.14999 22C5.55999 22 5.89999 21.66 5.89999 21.25V16.37H16.35C17.79 16.37 18.76 15.93 19.09 15.14C19.42 14.35 19.04 13.36 18.02 12.33Z" fill="#F4F6F8"/>
</svg>
