<svg width="80" height="80" viewBox="0 0 80 80" fill="none" xmlns="http://www.w3.org/2000/svg">
<g id="&#235;&#182;&#136;&#235;&#141;&#152;&#236;&#167;&#128;&#234;&#184;&#176; &#234;&#183;&#184;&#235;&#158;&#152;&#237;&#148;&#189;">
<g id="Group 694">
<path id="Ellipse 107" opacity="0.2" d="M62.8893 44.1052C62.5556 54.7127 53.7382 63.0397 43.1951 62.704C32.652 62.3682 24.3756 53.4969 24.7093 42.8893C25.043 32.2818 34.1943 13.3405 44.7374 13.6763C55.2805 14.012 63.223 33.4976 62.8893 44.1052Z" fill="#F94B43"/>
<path id="Ellipse 108" opacity="0.2" d="M58.2302 31.9764C64.0007 40.8605 61.5204 52.769 52.6904 58.5748C43.8603 64.3805 32.0242 61.8851 26.2538 53.001C20.4833 44.117 17.1894 23.3189 26.0195 17.5131C34.8495 11.7073 52.4597 23.0924 58.2302 31.9764Z" fill="#F94B43"/>
<path id="Ellipse 109" opacity="0.2" d="M51.9116 30.9018C59.4507 38.3247 59.5814 50.4911 52.2036 58.0762C44.8258 65.6613 32.7333 65.7928 25.1943 58.3699C17.6553 50.947 9.98088 31.353 17.3587 23.7679C24.7364 16.1828 44.3726 23.4788 51.9116 30.9018Z" fill="#F94B43"/>
<path id="Ellipse 106" d="M61.0701 55.3976C55.7595 64.5673 44.066 67.6694 34.952 62.3263C25.8379 56.9832 22.7547 45.2181 28.0654 36.0484C33.376 26.8786 50.3835 14.601 59.4975 19.9441C68.6115 25.2873 66.3808 46.2278 61.0701 55.3976Z" fill="#F94B43"/>
<path id="Ellipse 110" d="M53.7987 57.3259C49.9666 63.9428 41.5286 66.1812 34.952 62.3257C28.3753 58.4701 26.1505 49.9805 29.9826 43.3636C33.8147 36.7468 46.0873 27.8873 52.6639 31.7429C59.2406 35.5984 57.6309 50.7091 53.7987 57.3259Z" fill="url(#paint0_radial_1583_26933)"/>
</g>
</g>
<defs>
<radialGradient id="paint0_radial_1583_26933" cx="0" cy="0" r="1" gradientUnits="userSpaceOnUse" gradientTransform="translate(43.8079 47.0343) rotate(90) scale(19.1321 14.899)">
<stop stop-color="#FE7E5C"/>
<stop offset="0.797355" stop-color="#FE7E5C" stop-opacity="0.254729"/>
<stop offset="1" stop-color="#FE7E5C" stop-opacity="0"/>
</radialGradient>
</defs>
</svg>
