<svg width="24" height="24" viewBox="0 0 24 24" fill="none" xmlns="http://www.w3.org/2000/svg">
<path d="M17.18 5.25C15.47 5.25 13.43 5.9 13.43 9V15C13.43 18.1 15.47 18.75 17.18 18.75C18.89 18.75 20.93 18.1 20.93 15V9C20.93 5.9 18.89 5.25 17.18 5.25Z" fill="#F4F6F8"/>
<path d="M6.82001 5.25C5.11001 5.25 3.07001 5.9 3.07001 9V15C3.07001 18.1 5.11001 18.75 6.82001 18.75C8.53001 18.75 10.57 18.1 10.57 15V9C10.57 5.9 8.53001 5.25 6.82001 5.25Z" fill="#F4F6F8"/>
<path d="M13.43 11.25H10.57V12.75H13.43V11.25Z" fill="#F4F6F8"/>
<path d="M22.5 15.25C22.09 15.25 21.75 14.91 21.75 14.5V9.5C21.75 9.09 22.09 8.75 22.5 8.75C22.91 8.75 23.25 9.09 23.25 9.5V14.5C23.25 14.91 22.91 15.25 22.5 15.25Z" fill="#F4F6F8"/>
<path d="M1.5 15.25C1.09 15.25 0.75 14.91 0.75 14.5V9.5C0.75 9.09 1.09 8.75 1.5 8.75C1.91 8.75 2.25 9.09 2.25 9.5V14.5C2.25 14.91 1.91 15.25 1.5 15.25Z" fill="#F4F6F8"/>
</svg>
