<svg width="24" height="24" viewBox="0 0 24 24" fill="none" xmlns="http://www.w3.org/2000/svg">
<path d="M20.1786 18.224L20.1786 18.224L20.176 18.2243L19.866 18.2643L19.8635 18.2646C18.1692 18.4919 15.8162 19.1868 13.9274 19.9788C13.616 20.1075 13.25 19.8732 13.25 19.5102V5.60018C13.25 5.42245 13.3517 5.24638 13.5288 5.14948C15.3004 4.19125 17.9898 3.3383 19.7916 3.18018H19.83C20.7539 3.18018 21.5 3.92632 21.5 4.85018V16.7402C21.5 17.4555 20.9004 18.1347 20.1786 18.224Z" fill="#F4F6F8" stroke="#F4F6F8"/>
<path d="M3.81139 18.224L3.81399 18.2243L4.12399 18.2643L4.12648 18.2646C5.82083 18.4919 8.17373 19.1867 10.0625 19.9787M3.81139 18.224L4.23001 3.18018H4.20844M3.81139 18.224C3.08961 18.1347 2.49001 17.4555 2.49001 16.7402V4.85018C2.49001 3.92632 3.23615 3.18018 4.16001 3.18018H4.20844M3.81139 18.224L4.20844 3.18018M10.0625 19.9787C10.0628 19.9788 10.0631 19.979 10.0634 19.9791L9.87006 20.4401L10.0618 19.9784C10.062 19.9785 10.0623 19.9786 10.0625 19.9787ZM10.0625 19.9787C10.374 20.1075 10.74 19.8733 10.74 19.5102V5.60018C10.74 5.40607 10.6426 5.24319 10.4712 5.14946M10.4712 5.14946C10.4715 5.14962 10.4718 5.14978 10.4721 5.14995L10.71 4.71018L10.4706 5.14912C10.4708 5.14923 10.471 5.14935 10.4712 5.14946ZM10.4712 5.14946C8.69956 4.19124 6.01016 3.3383 4.20844 3.18018M7.25001 7.24018H5.00001C4.31386 7.24018 3.75001 7.80403 3.75001 8.49018C3.75001 9.19065 4.31822 9.74018 5.00001 9.74018H7.25001C7.93179 9.74018 8.50001 9.19065 8.50001 8.49018C8.50001 7.80403 7.93615 7.24018 7.25001 7.24018ZM5.00001 12.7402H8.00001C8.68179 12.7402 9.25001 12.1907 9.25001 11.4902C9.25001 10.804 8.68615 10.2402 8.00001 10.2402H5.00001C4.31386 10.2402 3.75001 10.804 3.75001 11.4902C3.75001 12.1907 4.31822 12.7402 5.00001 12.7402Z" fill="#F4F6F8" stroke="#F4F6F8"/>
</svg>
