<svg width="24" height="25" viewBox="0 0 24 25" fill="none" xmlns="http://www.w3.org/2000/svg">
<path d="M14.2199 22.1303C13.0399 22.1303 11.3699 21.3003 10.0499 17.3303L9.32988 15.1703L7.16988 14.4503C3.20988 13.1303 2.37988 11.4603 2.37988 10.2803C2.37988 9.11031 3.20988 7.43032 7.16988 6.10032L15.6599 3.27032C17.7799 2.56032 19.5499 2.77032 20.6399 3.85032C21.7299 4.93032 21.9399 6.71032 21.2299 8.83032L18.3999 17.3203C17.0699 21.3003 15.3999 22.1303 14.2199 22.1303ZM7.63988 7.53032C4.85988 8.46032 3.86988 9.56032 3.86988 10.2803C3.86988 11.0003 4.85988 12.1003 7.63988 13.0203L10.1599 13.8603C10.3799 13.9303 10.5599 14.1103 10.6299 14.3303L11.4699 16.8503C12.3899 19.6303 13.4999 20.6203 14.2199 20.6203C14.9399 20.6203 16.0399 19.6303 16.9699 16.8503L19.7999 8.36032C20.3099 6.82032 20.2199 5.56032 19.5699 4.91032C18.9199 4.26032 17.6599 4.18032 16.1299 4.69032L7.63988 7.53032Z" fill="#9B9999"/>
<path d="M10.11 14.9C9.92005 14.9 9.73005 14.83 9.58005 14.68C9.29005 14.39 9.29005 13.91 9.58005 13.62L13.16 10.03C13.45 9.74 13.93 9.74 14.22 10.03C14.51 10.32 14.51 10.8 14.22 11.09L10.64 14.68C10.5 14.83 10.3 14.9 10.11 14.9Z" fill="#9B9999"/>
</svg>
