<svg width="37" height="37" viewBox="0 0 37 37" fill="none" xmlns="http://www.w3.org/2000/svg">
<path d="M21.1286 5.08354C21.1254 4.97341 21.0006 4.9017 20.9024 4.9582C15.7044 7.94947 15.8007 15.4532 15.8627 16.8128C15.8674 16.9154 15.7667 16.9878 15.6702 16.944C15.0697 16.6716 13.3492 15.6457 13.2541 12.8036C13.2504 12.6933 13.1269 12.6224 13.0283 12.6787C10.0187 14.3969 8 17.5704 8 21.0895C8 26.4759 12.701 30.8424 18.5 30.8424C24.299 30.8424 29 26.4759 29 21.0895C28.9999 13.2643 21.3204 11.5814 21.1286 5.08354Z" fill="#FF5B44"/>
<path fill-rule="evenodd" clip-rule="evenodd" d="M20.2186 6.81463C18.7911 8.12794 17.9658 9.94202 17.5025 11.7562C16.9209 14.0336 16.9578 16.1334 16.9866 16.7652C17.0237 17.5771 16.1497 18.3593 15.1909 17.9244C14.489 17.606 12.9533 16.6537 12.3628 14.4604C10.3792 16.0749 9.125 18.4814 9.125 21.0895C9.125 25.8406 13.2834 29.7588 18.5 29.7588C23.7166 29.7588 27.875 25.8406 27.875 21.0895C27.875 17.5894 26.1961 15.4712 24.2777 13.289C24.1597 13.1549 24.0402 13.0199 23.9198 12.8839C22.4304 11.2025 20.798 9.35945 20.2186 6.81463ZM20.3255 4.02792C21.2266 3.50937 22.2277 4.18953 22.2532 5.05274C22.3323 7.73249 23.8481 9.45248 25.7344 11.5928C25.8204 11.6904 25.9073 11.7889 25.9947 11.8884C27.9641 14.1285 30.125 16.7644 30.125 21.0895C30.125 27.1112 24.8814 31.9261 18.5 31.9261C12.1186 31.9261 6.875 27.1112 6.875 21.0895C6.875 17.1676 9.12151 13.6494 12.4547 11.7465C13.3531 11.2336 14.3497 11.907 14.3785 12.7687C14.4038 13.526 14.5651 14.1129 14.7827 14.5653C14.8554 13.6036 15.0091 12.4467 15.3176 11.2385C15.9679 8.69204 17.3547 5.73748 20.3255 4.02792Z" fill="#FF5B44"/>
</svg>
