<svg width="24" height="24" viewBox="0 0 24 24" fill="none" xmlns="http://www.w3.org/2000/svg">
<path d="M22.75 12C22.75 17.93 17.93 22.75 12 22.75C6.07 22.75 1.25 17.93 1.25 12C1.25 6.07 6.07 1.25 12 1.25C17.93 1.25 22.75 6.07 22.75 12ZM2.75 12C2.75 17.1 6.9 21.25 12 21.25C17.1 21.25 21.25 17.1 21.25 12C21.25 6.9 17.1 2.75 12 2.75C6.9 2.75 2.75 6.9 2.75 12Z" fill="#F4F6F8"/>
<path d="M16.2799 13.2603C16.2799 13.4503 16.2099 13.6403 16.0599 13.7903C15.7699 14.0803 15.2899 14.0803 14.9999 13.7903L11.9999 10.7903L8.99991 13.7903C8.70991 14.0803 8.22991 14.0803 7.93991 13.7903C7.64991 13.5003 7.64991 13.0203 7.93991 12.7303L11.4699 9.20031C11.7599 8.91031 12.2399 8.91031 12.5299 9.20031L16.0599 12.7303C16.2099 12.8803 16.2799 13.0703 16.2799 13.2603Z" fill="#F4F6F8"/>
</svg>
