<svg width="18" height="18" viewBox="0 0 18 18" fill="none" xmlns="http://www.w3.org/2000/svg">
<path d="M14.986 5.50423L12.5168 3.03173C10.8276 1.34006 9.98347 0.495898 9.07598 0.695898C8.16931 0.895898 7.75848 2.0184 6.93598 4.26257L6.37931 5.78173C6.16014 6.38006 6.05014 6.67923 5.85264 6.9109C5.76414 7.01486 5.66341 7.10776 5.55264 7.18756C5.30597 7.36507 4.99931 7.44923 4.38597 7.6184C3.00264 8.00007 2.31014 8.1909 2.04931 8.6434C1.93648 8.83923 1.8778 9.06156 1.87931 9.28757C1.88264 9.81007 2.39014 10.3176 3.40431 11.3334L4.58347 12.5134L0.853475 16.2467C0.739813 16.3672 0.677585 16.5273 0.679999 16.6929C0.682414 16.8585 0.749281 17.0167 0.866407 17.1338C0.983533 17.2509 1.14169 17.3178 1.30732 17.3202C1.47294 17.3226 1.63298 17.2604 1.75348 17.1467L5.48264 13.4134L6.70431 14.6367C7.72598 15.6584 8.23681 16.1701 8.76264 16.1701C8.98348 16.1701 9.20098 16.1134 9.39348 16.0034C9.85014 15.7426 10.0418 15.0459 10.426 13.6517C10.5943 13.0392 10.6785 12.7334 10.8551 12.4859C10.9326 12.3784 11.0226 12.2801 11.1235 12.1926C11.3526 11.9942 11.6501 11.8826 12.2443 11.6592L13.781 11.0817C16.001 10.2484 17.111 9.8309 17.306 8.92673C17.5018 8.02173 16.6635 7.18256 14.986 5.50423Z" fill="#FF5B44"/>
</svg>
