<svg width="21" height="20" viewBox="0 0 21 20" fill="none" xmlns="http://www.w3.org/2000/svg">
<path d="M10.5 1.66699C5.90829 1.66699 2.16663 5.40866 2.16663 10.0003C2.16663 14.592 5.90829 18.3337 10.5 18.3337C15.0916 18.3337 18.8333 14.592 18.8333 10.0003C18.8333 5.40866 15.0916 1.66699 10.5 1.66699ZM9.87496 6.66699C9.87496 6.32533 10.1583 6.04199 10.5 6.04199C10.8416 6.04199 11.125 6.32533 11.125 6.66699V10.8337C11.125 11.1753 10.8416 11.4587 10.5 11.4587C10.1583 11.4587 9.87496 11.1753 9.87496 10.8337V6.66699ZM11.2666 13.6503C11.225 13.7587 11.1666 13.842 11.0916 13.9253C11.0083 14.0003 10.9166 14.0587 10.8166 14.1003C10.7166 14.142 10.6083 14.167 10.5 14.167C10.3916 14.167 10.2833 14.142 10.1833 14.1003C10.0833 14.0587 9.99163 14.0003 9.90829 13.9253C9.83329 13.842 9.77496 13.7587 9.73329 13.6503C9.69163 13.5503 9.66663 13.442 9.66663 13.3337C9.66663 13.2253 9.69163 13.117 9.73329 13.017C9.77496 12.917 9.83329 12.8253 9.90829 12.742C9.99163 12.667 10.0833 12.6087 10.1833 12.567C10.3833 12.4837 10.6166 12.4837 10.8166 12.567C10.9166 12.6087 11.0083 12.667 11.0916 12.742C11.1666 12.8253 11.225 12.917 11.2666 13.017C11.3083 13.117 11.3333 13.2253 11.3333 13.3337C11.3333 13.442 11.3083 13.5503 11.2666 13.6503Z" fill="#F43A6F"/>
</svg>
