<svg width="100" height="100" viewBox="0 0 100 100" fill="none" xmlns="http://www.w3.org/2000/svg">
<path d="M28.4749 57.4382C28.4749 67.1579 42.0175 79.3062 54.096 75.2825C64.3044 75.2825 72.0308 63.7362 71.2988 54.2893C70.6005 45.2775 65.9458 29.4329 57.0914 27.25C55.9657 26.9725 55.019 27.9555 54.9545 29.1132C53.6028 53.3644 28.4749 32.9939 28.4749 57.4382Z" fill="#353538"/>
<path d="M71.2984 55.6885C71.2984 66.9929 61.7119 76.1569 49.8864 76.1569C38.0609 76.1569 28.4745 66.9929 28.4745 55.6885C28.4745 45.055 36.9568 22.8483 47.8061 20.2498C48.9337 19.9798 49.8822 20.9713 49.9203 22.1301C50.8653 50.8626 71.2984 27.1485 71.2984 55.6885Z" fill="#353538"/>
<path d="M52.3218 51.0205C55.7712 57.2294 52.9478 65.3848 46.0155 69.236C43.8374 72.5175 37.7706 73.4584 32.5836 66.8012C27.859 63.5429 22.9055 45.8011 27.3292 39.7829C28.0159 38.8487 29.3359 39.2323 29.9579 40.2107C39.0114 54.4534 43.7412 35.5754 52.3218 51.0205Z" fill="#353538"/>
<path d="M51.0197 54.1642C48.1403 59.3471 36.8073 69.6486 49.6716 69.2411C45.3817 75.3648 62.8905 75.8505 67.496 67.3371C73.382 59.1827 74.0308 49.6667 72.837 42.3558C72.5391 40.5317 70.1763 40.2451 69.0159 41.6837C62.3594 49.9356 57.6037 42.313 51.0197 54.1642Z" fill="#353538"/>
</svg>
