<svg width="34" height="42" viewBox="0 0 34 42" fill="none" xmlns="http://www.w3.org/2000/svg">
<path d="M20.7971 2.6211C20.7924 2.46203 20.6122 2.35845 20.4703 2.44006C12.9621 6.76079 13.1011 17.5995 13.1907 19.5634C13.1975 19.7115 13.052 19.8161 12.9127 19.7529C12.0453 19.3594 9.56005 17.8775 9.42275 13.7723C9.41743 13.613 9.239 13.5106 9.09665 13.5919C4.74936 16.0737 1.8335 20.6576 1.8335 25.7408C1.8335 33.5212 8.62383 39.8284 17.0002 39.8284C25.3765 39.8284 32.1668 33.5212 32.1668 25.7408C32.1667 14.4377 21.0741 12.0069 20.7971 2.6211Z" fill="#FF5B44"/>
<path fill-rule="evenodd" clip-rule="evenodd" d="M19.4826 5.12157C17.4207 7.01857 16.2285 9.63891 15.5593 12.2594C14.7193 15.549 14.7725 18.5821 14.8142 19.4947C14.8677 20.6674 13.6053 21.7973 12.2204 21.169C11.2065 20.7091 8.98822 19.3336 8.13532 16.1654C5.27018 18.4975 3.4585 21.9736 3.4585 25.7408C3.4585 32.6036 9.46509 38.2631 17.0002 38.2631C24.5352 38.2631 30.5418 32.6036 30.5418 25.7409C30.5418 20.6851 28.1167 17.6255 25.3457 14.4735C25.1753 14.2797 25.0027 14.0848 24.8287 13.8883C22.6775 11.4596 20.3195 8.79741 19.4826 5.12157ZM19.6369 1.09631C20.9385 0.347301 22.3846 1.32975 22.4214 2.57661C22.5357 6.44736 24.7252 8.9318 27.4498 12.0233C27.5741 12.1644 27.6995 12.3067 27.8259 12.4504C30.6705 15.6861 33.7918 19.4934 33.7918 25.7408C33.7918 34.4389 26.2177 41.3937 17.0002 41.3937C7.78258 41.3937 0.208496 34.4389 0.208496 25.7408C0.208496 20.0759 3.45346 14.994 8.26813 12.2453C9.56574 11.5045 11.0053 12.4772 11.0469 13.7219C11.0835 14.8157 11.3164 15.6634 11.6307 16.317C11.7358 14.9279 11.9577 13.2568 12.4034 11.5116C13.3427 7.83339 15.3458 3.56568 19.6369 1.09631Z" fill="#FF5B44"/>
</svg>
