<svg width="42" height="42" viewBox="0 0 42 42" fill="none" xmlns="http://www.w3.org/2000/svg">
<circle cx="21" cy="21" r="21" fill="#353538"/>
<path d="M21 11C15.49 11 11 15.49 11 21C11 26.51 15.49 31 21 31C26.51 31 31 26.51 31 21C31 15.49 26.51 11 21 11ZM20.25 17C20.25 16.59 20.59 16.25 21 16.25C21.41 16.25 21.75 16.59 21.75 17V22C21.75 22.41 21.41 22.75 21 22.75C20.59 22.75 20.25 22.41 20.25 22V17ZM21.92 25.38C21.87 25.51 21.8 25.61 21.71 25.71C21.61 25.8 21.5 25.87 21.38 25.92C21.26 25.97 21.13 26 21 26C20.87 26 20.74 25.97 20.62 25.92C20.5 25.87 20.39 25.8 20.29 25.71C20.2 25.61 20.13 25.51 20.08 25.38C20.03 25.26 20 25.13 20 25C20 24.87 20.03 24.74 20.08 24.62C20.13 24.5 20.2 24.39 20.29 24.29C20.39 24.2 20.5 24.13 20.62 24.08C20.86 23.98 21.14 23.98 21.38 24.08C21.5 24.13 21.61 24.2 21.71 24.29C21.8 24.39 21.87 24.5 21.92 24.62C21.97 24.74 22 24.87 22 25C22 25.13 21.97 25.26 21.92 25.38Z" fill="#9B9999"/>
</svg>
