<svg width="34" height="41" viewBox="0 0 34 41" fill="none" xmlns="http://www.w3.org/2000/svg">
<path d="M20.5886 1.78516C20.5839 1.62609 20.4037 1.52251 20.2619 1.60412C12.7536 5.92485 12.8926 16.7635 12.9822 18.7275C12.989 18.8756 12.8435 18.9802 12.7042 18.917C11.8368 18.5235 9.35155 17.0416 9.21426 12.9364C9.20893 12.7771 9.0305 12.6747 8.88816 12.7559C4.54087 15.2378 1.625 19.8217 1.625 24.9049C1.625 32.6853 8.41534 38.9925 16.7917 38.9925C25.168 38.9925 31.9583 32.6853 31.9583 24.9049C31.9582 13.6018 20.8656 11.1709 20.5886 1.78516Z" fill="#FF7043"/>
<path fill-rule="evenodd" clip-rule="evenodd" d="M19.2741 4.28564C17.2122 6.18263 16.02 8.80298 15.3508 11.4235C14.5108 14.713 14.564 17.7461 14.6057 18.6587C14.6592 19.8315 13.3968 20.9613 12.0119 20.3331C10.998 19.8731 8.77972 18.4977 7.92682 15.3295C5.06168 17.6616 3.25 21.1377 3.25 24.9049C3.25 31.7676 9.25659 37.4272 16.7917 37.4272C24.3267 37.4272 30.3333 31.7676 30.3333 24.9049C30.3333 19.8492 27.9082 16.7895 25.1372 13.6376C24.9669 13.4438 24.7942 13.2488 24.6202 13.0524C22.469 10.6237 20.111 7.96148 19.2741 4.28564ZM19.4284 0.260375C20.73 -0.488636 22.1761 0.493816 22.2129 1.74067C22.3272 5.61142 24.5167 8.09586 27.2413 11.1874C27.3656 11.3284 27.491 11.4707 27.6174 11.6145C30.462 14.8501 33.5833 18.6575 33.5833 24.9049C33.5833 33.6029 26.0092 40.5578 16.7917 40.5578C7.57408 40.5578 0 33.6029 0 24.9049C0 19.24 3.24496 14.1581 8.05963 11.4094C9.35725 10.6686 10.7968 11.6413 10.8384 12.886C10.875 13.9798 11.1079 14.8275 11.4222 15.4811C11.5273 14.0919 11.7492 12.4208 12.1949 10.6757C13.1342 6.99745 15.1373 2.72974 19.4284 0.260375Z" fill="#FF7043"/>
</svg>
