<svg width="14" height="14" viewBox="0 0 14 14" fill="none" xmlns="http://www.w3.org/2000/svg">
<circle cx="7" cy="7" r="7" fill="#FF725F"/>
<path d="M9.08329 11.167H4.91663C4.74579 11.167 4.60413 11.0253 4.60413 10.8545C4.60413 10.6837 4.74579 10.542 4.91663 10.542H9.08329C9.25413 10.542 9.39579 10.6837 9.39579 10.8545C9.39579 11.0253 9.25413 11.167 9.08329 11.167Z" fill="white"/>
<path d="M10.4791 4.29961L8.81247 5.49128C8.59164 5.64961 8.27497 5.55378 8.17914 5.29961L7.39164 3.19961C7.2583 2.83711 6.7458 2.83711 6.61247 3.19961L5.8208 5.29544C5.72497 5.55378 5.41247 5.64961 5.19164 5.48711L3.52497 4.29544C3.19164 4.06211 2.74997 4.39128 2.88747 4.77878L4.6208 9.63294C4.67914 9.79961 4.83747 9.90794 5.01247 9.90794H8.9833C9.1583 9.90794 9.31664 9.79544 9.37497 9.63294L11.1083 4.77878C11.25 4.39128 10.8083 4.06211 10.4791 4.29961ZM8.04164 8.14544H5.9583C5.78747 8.14544 5.6458 8.00378 5.6458 7.83294C5.6458 7.66211 5.78747 7.52044 5.9583 7.52044H8.04164C8.21247 7.52044 8.35414 7.66211 8.35414 7.83294C8.35414 8.00378 8.21247 8.14544 8.04164 8.14544Z" fill="white"/>
</svg>
