<svg width="14" height="15" viewBox="0 0 14 15" fill="none" xmlns="http://www.w3.org/2000/svg">
<path d="M9.91675 1.66699H4.08341C2.47341 1.66699 1.16675 2.96783 1.16675 4.57199V8.06033V8.64366C1.16675 10.2478 2.47341 11.5487 4.08341 11.5487H4.95841C5.11591 11.5487 5.32592 11.6537 5.42508 11.782L6.30008 12.9428C6.68508 13.4562 7.31508 13.4562 7.70008 12.9428L8.57508 11.782C8.68592 11.6362 8.86092 11.5487 9.04175 11.5487H9.91675C11.5267 11.5487 12.8334 10.2478 12.8334 8.64366V4.57199C12.8334 2.96783 11.5267 1.66699 9.91675 1.66699ZM4.66675 7.50033C4.34008 7.50033 4.08341 7.23783 4.08341 6.91699C4.08341 6.59616 4.34591 6.33366 4.66675 6.33366C4.98758 6.33366 5.25008 6.59616 5.25008 6.91699C5.25008 7.23783 4.99341 7.50033 4.66675 7.50033ZM7.00008 7.50033C6.67342 7.50033 6.41675 7.23783 6.41675 6.91699C6.41675 6.59616 6.67925 6.33366 7.00008 6.33366C7.32092 6.33366 7.58342 6.59616 7.58342 6.91699C7.58342 7.23783 7.32675 7.50033 7.00008 7.50033ZM9.33342 7.50033C9.00675 7.50033 8.75008 7.23783 8.75008 6.91699C8.75008 6.59616 9.01258 6.33366 9.33342 6.33366C9.65425 6.33366 9.91675 6.59616 9.91675 6.91699C9.91675 7.23783 9.66008 7.50033 9.33342 7.50033Z" fill="#9B9999"/>
</svg>
