<svg width="32" height="32" viewBox="0 0 32 32" fill="none" xmlns="http://www.w3.org/2000/svg">
<circle cx="16" cy="16" r="16" fill="#F4F6F8"/>
<path opacity="0.4" d="M24.3334 12.5077V17.5827L22.9751 16.416C22.3251 15.8577 21.2751 15.8577 20.6251 16.416L17.1584 19.391C16.5084 19.9493 15.4584 19.9493 14.8084 19.391L14.5251 19.1577C13.9334 18.641 12.9917 18.591 12.3251 19.041L8.22508 21.791L8.13341 21.8577C7.82508 21.191 7.66675 20.3993 7.66675 19.491V12.5077C7.66675 9.47435 9.47508 7.66602 12.5084 7.66602H19.4917C22.5251 7.66602 24.3334 9.47435 24.3334 12.5077Z" fill="#1F1F1F"/>
<path d="M13.4999 14.6503C14.5953 14.6503 15.4833 13.7623 15.4833 12.6669C15.4833 11.5716 14.5953 10.6836 13.4999 10.6836C12.4046 10.6836 11.5166 11.5716 11.5166 12.6669C11.5166 13.7623 12.4046 14.6503 13.4999 14.6503Z" fill="#1F1F1F"/>
<path d="M24.3333 17.5835V19.4918C24.3333 22.5251 22.525 24.3335 19.4916 24.3335H12.5083C10.3833 24.3335 8.84997 23.4418 8.1333 21.8585L8.22497 21.7918L12.325 19.0418C12.9916 18.5918 13.9333 18.6418 14.525 19.1585L14.8083 19.3918C15.4583 19.9501 16.5083 19.9501 17.1583 19.3918L20.625 16.4168C21.275 15.8585 22.325 15.8585 22.975 16.4168L24.3333 17.5835Z" fill="#1F1F1F"/>
</svg>
