<svg width="42" height="42" viewBox="0 0 42 42" fill="none" xmlns="http://www.w3.org/2000/svg">
<circle cx="21" cy="21" r="21" fill="#353538"/>
<path d="M29 15.75C30.5188 15.75 31.75 14.5188 31.75 13C31.75 11.4812 30.5188 10.25 29 10.25C27.4812 10.25 26.25 11.4812 26.25 13C26.25 14.5188 27.4812 15.75 29 15.75Z" fill="#FF5B44"/>
<path d="M28.04 17.15C26.47 16.81 25.19 15.53 24.85 13.96C24.72 13.35 24.71 12.76 24.82 12.2C24.95 11.58 24.49 11 23.85 11H16C13.24 11 11 13.24 11 16V22.95C11 25.71 13.24 27.95 16 27.95H17.5C17.78 27.95 18.14 28.13 18.3 28.35L19.8 30.34C20.46 31.22 21.54 31.22 22.2 30.34L23.7 28.35C23.89 28.1 24.18 27.95 24.5 27.95H26.01C28.77 27.95 31 25.72 31 22.96V18.15C31 17.52 30.42 17.06 29.8 17.18C29.24 17.28 28.65 17.28 28.04 17.15ZM17 21C16.44 21 16 20.55 16 20C16 19.45 16.44 19 17 19C17.55 19 18 19.45 18 20C18 20.55 17.56 21 17 21ZM21 21C20.44 21 20 20.55 20 20C20 19.45 20.44 19 21 19C21.55 19 22 19.45 22 20C22 20.55 21.56 21 21 21ZM25 21C24.44 21 24 20.55 24 20C24 19.45 24.44 19 25 19C25.55 19 26 19.45 26 20C26 20.55 25.56 21 25 21Z" fill="#9B9999"/>
</svg>
