<svg width="14" height="14" viewBox="0 0 14 14" fill="none" xmlns="http://www.w3.org/2000/svg">
<path d="M11.69 3.97832L8.32999 1.62748C7.41416 0.985817 6.00833 1.02082 5.12749 1.70332L2.20499 3.98415C1.62166 4.43915 1.16083 5.37248 1.16083 6.10748V10.1325C1.16083 11.62 2.36833 12.8333 3.85583 12.8333H10.1442C11.6317 12.8333 12.8392 11.6258 12.8392 10.1383V6.18332C12.8392 5.39582 12.3317 4.42748 11.69 3.97832ZM7.43749 10.5C7.43749 10.7392 7.23916 10.9375 6.99999 10.9375C6.76083 10.9375 6.56249 10.7392 6.56249 10.5V8.74998C6.56249 8.51082 6.76083 8.31248 6.99999 8.31248C7.23916 8.31248 7.43749 8.51082 7.43749 8.74998V10.5Z" fill="#656569"/>
</svg>
