<svg width="42" height="42" viewBox="0 0 42 42" fill="none" xmlns="http://www.w3.org/2000/svg">
<circle cx="21" cy="21" r="21" fill="#353538"/>
<path d="M23.2408 9.56246C23.238 9.46857 23.1316 9.40743 23.0479 9.4556C18.6162 12.0059 18.6983 18.4032 18.7512 19.5624C18.7552 19.6499 18.6693 19.7116 18.5871 19.6743C18.0752 19.442 16.6083 18.5674 16.5272 16.1443C16.5241 16.0503 16.4188 15.9898 16.3347 16.0378C13.7688 17.5027 12.0478 20.2083 12.0478 23.2086C12.0478 27.8008 16.0557 31.5236 20.9997 31.5236C25.9437 31.5236 29.9516 27.8008 29.9516 23.2086C29.9516 16.537 23.4043 15.1023 23.2408 9.56246Z" fill="#FF5B44"/>
<path fill-rule="evenodd" clip-rule="evenodd" d="M22.4649 11.0383C21.2479 12.158 20.5442 13.7046 20.1492 15.2513C19.6534 17.1929 19.6848 18.9832 19.7094 19.5219C19.741 20.214 18.9959 20.8809 18.1785 20.5101C17.58 20.2386 16.2707 19.4268 15.7673 17.5568C14.0762 18.9333 13.0069 20.985 13.0069 23.2086C13.0069 27.2592 16.5522 30.5997 20.9997 30.5997C25.4472 30.5997 28.9925 27.2592 28.9925 23.2086C28.9924 20.2245 27.5611 18.4186 25.9255 16.5582C25.825 16.4438 25.7231 16.3287 25.6204 16.2128C24.3506 14.7793 22.9589 13.2079 22.4649 11.0383ZM22.556 8.66247C23.3242 8.22038 24.1778 8.80026 24.1995 9.5362C24.2669 11.8209 25.5593 13.2873 27.1675 15.112C27.2408 15.1952 27.3148 15.2792 27.3894 15.3641C29.0684 17.2739 30.9107 19.5211 30.9107 23.2086C30.9107 28.3425 26.4402 32.4475 20.9997 32.4475C15.5591 32.4475 11.0886 28.3425 11.0886 23.2086C11.0886 19.8649 13.0039 16.8654 15.8457 15.243C16.6116 14.8058 17.4613 15.3799 17.4859 16.1146C17.5074 16.7602 17.6449 17.2605 17.8304 17.6463C17.8925 16.8264 18.0234 15.84 18.2865 14.81C18.8409 12.6389 20.0232 10.12 22.556 8.66247Z" fill="#FF5B44"/>
</svg>
