<svg width="40" height="40" viewBox="0 0 40 40" fill="none" xmlns="http://www.w3.org/2000/svg">
<circle cx="20" cy="20" r="20" fill="#FF5B44"/>
<path d="M16.9917 25.4096V16.9429C16.9917 16.6096 17.0917 16.2846 17.275 16.0096L19.55 12.6262C19.9084 12.0846 20.8 11.7012 21.5584 11.9846C22.375 12.2596 22.9167 13.1762 22.7417 13.9929L22.3084 16.7179C22.275 16.9679 22.3417 17.1929 22.4834 17.3679C22.625 17.5262 22.8334 17.6262 23.0584 17.6262H26.4834C27.1417 17.6262 27.7084 17.8929 28.0417 18.3596C28.3584 18.8096 28.4167 19.3929 28.2084 19.9846L26.1584 26.2262C25.9 27.2596 24.775 28.1012 23.6584 28.1012H20.4084C19.85 28.1012 19.0667 27.9096 18.7084 27.5512L17.6417 26.7262C17.2334 26.4179 16.9917 25.9262 16.9917 25.4096Z" fill="white"/>
<path d="M14.3417 15.3164H13.4834C12.1917 15.3164 11.6667 15.8164 11.6667 17.0497V25.4331C11.6667 26.6664 12.1917 27.1664 13.4834 27.1664H14.3417C15.6334 27.1664 16.1584 26.6664 16.1584 25.4331V17.0497C16.1584 15.8164 15.6334 15.3164 14.3417 15.3164Z" fill="white"/>
</svg>
