<svg width="24" height="24" viewBox="0 0 24 24" fill="none" xmlns="http://www.w3.org/2000/svg">
<path d="M12.6777 19.957C12.9524 20.0209 12.9776 20.3807 12.71 20.4699L11.13 20.9899C7.16 22.2699 5.07 21.1999 3.78 17.2299L2.5 13.2799C1.22 9.30992 2.28 7.20992 6.25 5.92992L6.77399 5.75639C7.17686 5.62297 7.56892 6.02703 7.45453 6.43571C7.39783 6.63828 7.34328 6.84968 7.29 7.06992L6.31 11.2599C5.21 15.9699 6.82 18.5699 11.53 19.6899L12.6777 19.957Z" fill="#656569"/>
<path d="M17.17 3.21001L15.5 2.82001C12.16 2.03001 10.17 2.68001 9 5.10001C8.7 5.71001 8.46 6.45001 8.26 7.30001L7.28 11.49C6.3 15.67 7.59 17.73 11.76 18.72L13.44 19.12C14.02 19.26 14.56 19.35 15.06 19.39C18.18 19.69 19.84 18.23 20.68 14.62L21.66 10.44C22.64 6.26001 21.36 4.19001 17.17 3.21001ZM15.29 13.33C15.2 13.67 14.9 13.89 14.56 13.89C14.5 13.89 14.44 13.88 14.37 13.87L11.46 13.13C11.06 13.03 10.82 12.62 10.92 12.22C11.02 11.82 11.43 11.58 11.83 11.68L14.74 12.42C15.15 12.52 15.39 12.93 15.29 13.33ZM18.22 9.95001C18.13 10.29 17.83 10.51 17.49 10.51C17.43 10.51 17.37 10.5 17.3 10.49L12.45 9.26001C12.05 9.16001 11.81 8.75001 11.91 8.35001C12.01 7.95001 12.42 7.71001 12.82 7.81001L17.67 9.04001C18.08 9.13001 18.32 9.54001 18.22 9.95001Z" fill="#656569"/>
</svg>
