<svg width="24" height="25" viewBox="0 0 24 25" fill="none" xmlns="http://www.w3.org/2000/svg">
<path d="M14.22 22.1303C13.04 22.1303 11.37 21.3003 10.05 17.3303L9.33 15.1703L7.17 14.4503C3.21 13.1303 2.38 11.4603 2.38 10.2803C2.38 9.11031 3.21 7.43032 7.17 6.10032L15.66 3.27032C17.78 2.56032 19.55 2.77032 20.64 3.85032C21.73 4.93032 21.94 6.71032 21.23 8.83032L18.4 17.3203C17.07 21.3003 15.4 22.1303 14.22 22.1303ZM7.64 7.53032C4.86 8.46032 3.87 9.56032 3.87 10.2803C3.87 11.0003 4.86 12.1003 7.64 13.0203L10.16 13.8603C10.38 13.9303 10.56 14.1103 10.63 14.3303L11.47 16.8503C12.39 19.6303 13.5 20.6203 14.22 20.6203C14.94 20.6203 16.04 19.6303 16.97 16.8503L19.8 8.36032C20.31 6.82032 20.22 5.56032 19.57 4.91032C18.92 4.26032 17.66 4.18032 16.13 4.69032L7.64 7.53032Z" fill="white"/>
<path d="M10.11 14.9C9.92005 14.9 9.73005 14.83 9.58005 14.68C9.29005 14.39 9.29005 13.91 9.58005 13.62L13.16 10.03C13.45 9.74 13.93 9.74 14.22 10.03C14.51 10.32 14.51 10.8 14.22 11.09L10.64 14.68C10.5 14.83 10.3 14.9 10.11 14.9Z" fill="white"/>
</svg>
