<svg width="40" height="40" viewBox="0 0 40 40" fill="none" xmlns="http://www.w3.org/2000/svg">
<circle cx="20" cy="20" r="20" fill="#272727"/>
<path d="M23.5667 28.4171H20.4C19.9333 28.4171 18.9167 28.2754 18.375 27.7337L15.85 25.7837L16.6167 24.7921L19.2 26.7921C19.4083 26.9921 19.9333 27.1587 20.4 27.1587H23.5667C24.3167 27.1587 25.125 26.5587 25.2917 25.8837L27.3083 19.7587C27.4417 19.3921 27.4167 19.0587 27.2417 18.8171C27.0583 18.5587 26.725 18.4087 26.3167 18.4087H22.9833C22.55 18.4087 22.15 18.2254 21.875 17.9087C21.5917 17.5837 21.4667 17.1504 21.5333 16.7004L21.95 14.0254C22.05 13.5587 21.7333 13.0337 21.2833 12.8837C20.875 12.7337 20.35 12.9504 20.1667 13.2171L16.75 18.3004L15.7167 17.6087L19.1333 12.5254C19.6583 11.7421 20.8083 11.3671 21.7083 11.7087C22.75 12.0504 23.4167 13.2004 23.1833 14.2671L22.775 16.8921C22.7667 16.9504 22.7667 17.0337 22.825 17.1004C22.8667 17.1421 22.925 17.1671 22.9917 17.1671H26.325C27.1417 17.1671 27.85 17.5087 28.2667 18.1004C28.675 18.6754 28.7583 19.4337 28.4917 20.1671L26.5 26.2337C26.1917 27.4421 24.9083 28.4171 23.5667 28.4171Z" fill="#656569"/>
<path d="M14.4833 27.5013H13.65C12.1083 27.5013 11.3583 26.7763 11.3583 25.293V17.1263C11.3583 15.643 12.1083 14.918 13.65 14.918H14.4833C16.025 14.918 16.775 15.643 16.775 17.1263V25.293C16.775 26.7763 16.025 27.5013 14.4833 27.5013ZM13.65 16.168C12.7417 16.168 12.6083 16.3846 12.6083 17.1263V25.293C12.6083 26.0346 12.7417 26.2513 13.65 26.2513H14.4833C15.3917 26.2513 15.525 26.0346 15.525 25.293V17.1263C15.525 16.3846 15.3917 16.168 14.4833 16.168H13.65Z" fill="#656569"/>
</svg>
