<svg width="32" height="32" viewBox="0 0 32 32" fill="none" xmlns="http://www.w3.org/2000/svg">
<rect width="32" height="32" rx="10.6667" fill="#353538"/>
<path d="M24.0007 24.889H8.00065C7.63621 24.889 7.33398 24.5868 7.33398 24.2223C7.33398 23.8579 7.63621 23.5557 8.00065 23.5557H24.0007C24.3651 23.5557 24.6673 23.8579 24.6673 24.2223C24.6673 24.5868 24.3651 24.889 24.0007 24.889Z" fill="#9B9999"/>
<path d="M22.2407 8.42626C20.5162 6.70182 18.8273 6.65737 17.0584 8.42626L15.9829 9.50182C15.894 9.59071 15.8584 9.73293 15.894 9.85738C16.5696 12.2129 18.454 14.0974 20.8096 14.7729C20.8451 14.7818 20.8807 14.7907 20.9162 14.7907C21.014 14.7907 21.1029 14.7552 21.174 14.684L22.2407 13.6085C23.1207 12.7374 23.5473 11.8929 23.5473 11.0396C23.5562 10.1596 23.1296 9.30626 22.2407 8.42626Z" fill="#9B9999"/>
<path d="M19.2096 15.582C18.9519 15.4576 18.703 15.3332 18.463 15.1909C18.2674 15.0754 18.0807 14.9509 17.8941 14.8176C17.743 14.7198 17.5652 14.5776 17.3963 14.4354C17.3785 14.4265 17.3163 14.3732 17.2452 14.302C16.9519 14.0532 16.623 13.7332 16.3296 13.3776C16.303 13.3598 16.2585 13.2976 16.1963 13.2176C16.1074 13.1109 15.9563 12.9332 15.823 12.7287C15.7163 12.5954 15.5919 12.3998 15.4763 12.2043C15.3341 11.9643 15.2096 11.7243 15.0852 11.4754C15.0664 11.435 15.0481 11.3949 15.0305 11.355C14.8993 11.0587 14.5129 10.9721 14.2838 11.2012L9.19186 16.2932C9.0763 16.4087 8.96963 16.6309 8.94297 16.782L8.46297 20.1865C8.37408 20.7909 8.54297 21.3598 8.9163 21.742C9.2363 22.0532 9.68074 22.222 10.1607 22.222C10.2674 22.222 10.3741 22.2132 10.4807 22.1954L13.8941 21.7154C14.0541 21.6887 14.2763 21.582 14.383 21.4665L19.4686 16.3809C19.6993 16.1502 19.6123 15.7542 19.3122 15.6261C19.2784 15.6117 19.2442 15.597 19.2096 15.582Z" fill="#9B9999"/>
</svg>
