<svg width="20" height="21" viewBox="0 0 20 21" fill="none" xmlns="http://www.w3.org/2000/svg">
<path d="M7.50004 9.45833C6.23337 9.45833 5.20837 8.43333 5.20837 7.16667C5.20837 5.9 6.23337 4.875 7.50004 4.875C8.76671 4.875 9.79171 5.9 9.79171 7.16667C9.79171 8.43333 8.76671 9.45833 7.50004 9.45833ZM7.50004 6.125C6.92504 6.125 6.45837 6.59167 6.45837 7.16667C6.45837 7.74167 6.92504 8.20833 7.50004 8.20833C8.07504 8.20833 8.54171 7.74167 8.54171 7.16667C8.54171 6.59167 8.07504 6.125 7.50004 6.125Z" fill="#F4F6F8"/>
<path d="M12.5 19.4582H7.49996C2.97496 19.4582 1.04163 17.5248 1.04163 12.9998V7.99984C1.04163 3.47484 2.97496 1.5415 7.49996 1.5415H10.8333C11.175 1.5415 11.4583 1.82484 11.4583 2.1665C11.4583 2.50817 11.175 2.7915 10.8333 2.7915H7.49996C3.65829 2.7915 2.29163 4.15817 2.29163 7.99984V12.9998C2.29163 16.8415 3.65829 18.2082 7.49996 18.2082H12.5C16.3416 18.2082 17.7083 16.8415 17.7083 12.9998V8.83317C17.7083 8.4915 17.9916 8.20817 18.3333 8.20817C18.675 8.20817 18.9583 8.4915 18.9583 8.83317V12.9998C18.9583 17.5248 17.025 19.4582 12.5 19.4582Z" fill="#F4F6F8"/>
<path d="M17.7083 5.2915H13.125C12.7833 5.2915 12.5 5.00817 12.5 4.6665C12.5 4.32484 12.7833 4.0415 13.125 4.0415H17.7083C18.05 4.0415 18.3333 4.32484 18.3333 4.6665C18.3333 5.00817 18.05 5.2915 17.7083 5.2915Z" fill="#F4F6F8"/>
<path d="M15.4166 7.58333C15.075 7.58333 14.7916 7.3 14.7916 6.95833V2.375C14.7916 2.03333 15.075 1.75 15.4166 1.75C15.7583 1.75 16.0416 2.03333 16.0416 2.375V6.95833C16.0416 7.3 15.7583 7.58333 15.4166 7.58333Z" fill="#F4F6F8"/>
<path d="M2.22504 16.9168C2.02504 16.9168 1.82504 16.8168 1.70837 16.6418C1.51671 16.3585 1.59171 15.9668 1.87504 15.7751L5.98337 13.0168C6.88337 12.4168 8.12504 12.4835 8.94171 13.1751L9.21671 13.4168C9.63337 13.7751 10.3417 13.7751 10.75 13.4168L14.2167 10.4418C15.1084 9.68346 16.4917 9.68346 17.3834 10.4418L18.7417 11.6085C19 11.8335 19.0334 12.2251 18.8084 12.4918C18.5834 12.7501 18.1917 12.7835 17.925 12.5585L16.5667 11.3918C16.15 11.0335 15.4417 11.0335 15.0334 11.3918L11.5667 14.3668C10.6834 15.1251 9.29171 15.1251 8.40004 14.3668L8.12504 14.1251C7.74171 13.8001 7.10837 13.7668 6.68337 14.0585L2.58337 16.8168C2.46671 16.8835 2.34171 16.9168 2.22504 16.9168Z" fill="#F4F6F8"/>
</svg>
