<svg width="217" height="114" viewBox="0 0 217 114" fill="none" xmlns="http://www.w3.org/2000/svg">
<rect x="0.607178" width="215.786" height="96.0857" rx="13.0286" fill="#272727"/>
<path d="M28.0117 31.1071H29.9464V29.5827H28.0117C27.8358 29.5827 27.7576 29.485 27.7576 29.3091L27.7185 27.7457C27.7185 27.5894 27.7967 27.4917 27.9726 27.4917H29.9464V26.2605C29.9464 26.1041 30.0246 26.0064 30.2005 26.0064H32.1743C32.3697 26.0064 32.4479 26.1041 32.4479 26.2605V34.1753C32.4479 34.3121 32.3697 34.4098 32.1743 34.4098H30.2005C30.0246 34.4098 29.9464 34.3121 29.9464 34.1753V33.1982H27.9726C27.7967 33.1982 27.7185 33.1005 27.7185 32.9246L27.7576 31.3807C27.7576 31.2048 27.8358 31.1071 28.0117 31.1071ZM27.484 30.5013C27.484 32.7682 25.6861 34.5466 22.7937 34.5466C19.9209 34.5466 18.123 32.7682 18.123 30.5013C18.123 28.2147 19.9209 26.4363 22.7937 26.4363C25.6861 26.4363 27.484 28.2147 27.484 30.5013ZM20.5658 30.5013C20.5658 31.6347 21.3671 32.5337 22.7937 32.5337C24.2204 32.5337 25.0607 31.6347 25.0607 30.5013C25.0607 29.3482 24.2204 28.4493 22.7937 28.4493C21.3671 28.4493 20.5658 29.3482 20.5658 30.5013ZM23.6536 41.2498H32.6433C32.8192 41.2498 32.9169 41.328 32.9169 41.5039V43.0087C32.9169 43.165 32.8192 43.2432 32.6433 43.2432H21.4062C21.2498 43.2432 21.1717 43.165 21.1717 43.0087V38.5138C21.1717 38.377 21.2498 38.2598 21.4062 38.2598H29.966V37.2435H21.3671C21.2108 37.2435 21.1326 37.1458 21.1326 36.9895V35.5238C21.1326 35.3674 21.2108 35.2697 21.3671 35.2697H32.1938C32.3697 35.2697 32.4479 35.3674 32.4479 35.5238V39.9405C32.4479 40.0968 32.3502 40.2141 32.1743 40.2141H23.6536V41.2498ZM44.0136 29.915H46.906V26.2605C46.906 26.1041 46.9841 26.0064 47.16 26.0064H49.1338C49.3293 26.0064 49.4074 26.1041 49.4074 26.2605V35.5238C49.4074 35.6801 49.3293 35.7583 49.1338 35.7583H47.16C46.9841 35.7583 46.906 35.6801 46.906 35.5238V32.0061H44.0136C43.8377 32.0061 43.7596 31.9279 43.7596 31.752V30.169C43.7596 30.0127 43.8377 29.915 44.0136 29.915ZM39.9878 32.905C39.0693 34.0581 37.6817 35.0547 36.0401 35.7974C35.9033 35.8755 35.7079 35.8365 35.6297 35.7192L34.7698 34.2535C34.6721 34.0971 34.6721 33.9213 34.8285 33.8431C37.115 32.7878 38.737 31.5566 38.737 29.915V29.1137H35.532C35.3561 29.1137 35.278 29.0355 35.278 28.8792V27.2376C35.278 27.1008 35.3561 27.0031 35.532 27.0031H44.3263C44.5022 27.0031 44.5804 27.1008 44.5804 27.2376V28.8792C44.5804 29.0355 44.5022 29.1137 44.3263 29.1137H41.219V29.915C41.219 31.4589 42.5284 32.4165 44.854 33.4327C45.0103 33.4913 45.0103 33.6672 44.9321 33.804L44.1504 35.3088C44.0722 35.4456 43.8964 35.4261 43.74 35.3674C42.3329 34.8202 40.9454 33.9603 39.9878 32.905ZM43.6032 36.2273C47.7072 36.2273 49.5833 37.693 49.5833 39.8037C49.5833 41.8947 47.7072 43.38 43.6032 43.38C39.4992 43.38 37.6231 41.8947 37.6231 39.8037C37.6231 37.693 39.4992 36.2273 43.6032 36.2273ZM43.6032 41.2889C46.0461 41.2889 47.1209 40.6831 47.1209 39.8037C47.1209 38.9242 46.0461 38.3379 43.6032 38.3379C41.1604 38.3379 40.105 38.9242 40.105 39.8037C40.105 40.6831 41.1604 41.2889 43.6032 41.2889ZM63.8655 31.6934H61.579C61.1686 33.7063 59.312 35.0352 56.8496 35.0352C54.055 35.0352 52.0421 33.3154 52.0421 30.8335C52.0421 28.3711 54.055 26.6318 56.8496 26.6318C59.1361 26.6318 60.895 27.7848 61.4617 29.5632H63.8655V26.2605C63.8655 26.1041 63.9437 26.0064 64.1195 26.0064H66.0934C66.2888 26.0064 66.367 26.1041 66.367 26.2605V35.0938C66.367 35.2306 66.2888 35.3283 66.0934 35.3283H64.1195C63.9437 35.3283 63.8655 35.2306 63.8655 35.0938V31.6934ZM54.4849 30.8335C54.4849 32.0647 55.5402 32.9246 56.8496 32.9246C58.159 32.9246 59.2143 32.0647 59.2143 30.8335C59.2143 29.5827 58.159 28.7229 56.8496 28.7229C55.5402 28.7229 54.4849 29.5827 54.4849 30.8335ZM57.6509 36.1101H59.5661C59.7419 36.1101 59.8201 36.1882 59.8201 36.3446V42.9305C59.8201 43.0869 59.7419 43.1846 59.5661 43.1846H53.9377C53.7618 43.1846 53.6837 43.0869 53.6837 42.9305V36.3446C53.6837 36.1882 53.7618 36.1101 53.9377 36.1101H55.8138C55.9897 36.1101 56.0679 36.1882 56.0679 36.3446V37.7126H57.4163V36.3446C57.4163 36.1882 57.4945 36.1101 57.6509 36.1101ZM67.5591 41.5625C67.7154 41.6602 67.6763 41.797 67.5786 41.9338L66.4842 43.2627C66.3865 43.3995 66.2106 43.38 66.0543 43.2627C64.999 42.4029 64.2563 41.5039 63.7678 40.5463C63.2987 41.5234 62.4779 42.481 61.4226 43.3214C61.2663 43.4582 61.1099 43.4386 60.9927 43.3214L59.9374 42.0902C59.8201 41.9729 59.8201 41.7775 59.9374 41.6993C61.8526 40.3313 62.4975 38.4552 62.4975 36.755V36.3446C62.4975 36.1882 62.5757 36.1101 62.7515 36.1101H64.6472C64.8231 36.1101 64.9013 36.1882 64.9013 36.3446V36.755C64.9013 38.4552 65.7025 40.3313 67.5591 41.5625ZM56.0679 39.7255V41.1521H57.4163V39.7255H56.0679ZM82.2126 33.0418H71.0145C70.8191 33.0418 70.7604 32.9441 70.7604 32.8073V26.9445C70.7604 26.7881 70.8191 26.7099 71.0145 26.7099H72.9883C73.1447 26.7099 73.2228 26.7881 73.2228 26.9445V30.9703H82.2126C82.408 30.9703 82.4862 31.0485 82.4862 31.2243V32.8073C82.4862 32.9441 82.408 33.0418 82.2126 33.0418ZM84.5772 36.6377H68.5521C68.3958 36.6377 68.3176 36.5595 68.3176 36.4032V34.8202C68.3176 34.6834 68.3958 34.5662 68.5521 34.5662H84.5772C84.7531 34.5662 84.8313 34.6834 84.8313 34.8202V36.4032C84.8313 36.5595 84.7531 36.6377 84.5772 36.6377ZM82.6425 43.1259H71.1318C70.9363 43.1259 70.8582 43.0282 70.8582 42.8719V38.1621C70.8582 38.0253 70.9363 37.9275 71.1318 37.9275H73.1056C73.2619 37.9275 73.3401 38.0253 73.3401 38.1621V41.0349H82.6425C82.8379 41.0349 82.9161 41.1326 82.9161 41.3085V42.8719C82.9161 43.0282 82.8379 43.1259 82.6425 43.1259ZM103.447 32.0451H105.929C106.124 32.0451 106.202 32.1429 106.202 32.3187V34.019C106.202 34.1753 106.124 34.273 105.929 34.273H103.447V42.9891C103.447 43.1455 103.368 43.2237 103.173 43.2237H101.18C101.023 43.2237 100.945 43.1455 100.945 42.9891V26.2995C100.945 26.1432 101.023 26.0455 101.18 26.0455H103.173C103.368 26.0455 103.447 26.1432 103.447 26.2995V32.0451ZM99.9289 37.4194C100.085 37.5367 100.066 37.693 99.9485 37.8103L98.7759 39.1783C98.6586 39.2955 98.5023 39.2955 98.346 39.1783C96.7044 37.8689 95.4145 36.3837 94.7501 35.0547C94.027 36.5009 92.6394 38.1425 90.9392 39.4519C90.8024 39.5691 90.6461 39.5691 90.5288 39.4519L89.3562 38.0839C89.239 37.9862 89.239 37.7907 89.3758 37.693C91.7209 35.8169 93.4407 33.4718 93.4407 30.3058V30.0127H90.0989C89.9034 30.0127 89.8448 29.915 89.8448 29.7586V28.0389C89.8448 27.8825 89.9034 27.7848 90.0989 27.7848H99.0495C99.2449 27.7848 99.3036 27.8825 99.3036 28.0389V29.7586C99.3036 29.915 99.2449 30.0127 99.0495 30.0127H95.9226V30.3058C95.9226 33.3741 97.8183 35.7192 99.9289 37.4194ZM120.992 43.1846H118.999C118.823 43.1846 118.745 43.1064 118.745 42.9501V26.2605C118.745 26.1041 118.823 26.0064 118.999 26.0064H120.992C121.188 26.0064 121.266 26.1041 121.266 26.2605V42.9501C121.266 43.1064 121.188 43.1846 120.992 43.1846ZM108.505 39.491C108.329 39.5691 108.231 39.5496 108.133 39.4128L107.215 37.7907C107.117 37.6344 107.156 37.5171 107.312 37.439C111.534 35.387 113.273 33.3936 113.273 30.4426V30.0518H107.801C107.645 30.0518 107.567 29.9736 107.567 29.8173V28.0975C107.567 27.9411 107.645 27.8434 107.801 27.8434H115.54C115.735 27.8434 115.794 27.9411 115.794 28.0975V30.4426C115.794 34.2144 113.449 37.0481 108.505 39.491ZM136.623 26.0064H138.597C138.773 26.0064 138.831 26.1041 138.831 26.2605V42.9501C138.831 43.1064 138.773 43.1846 138.597 43.1846H136.623C136.467 43.1846 136.389 43.1064 136.389 42.9501V26.2605C136.389 26.1041 136.467 26.0064 136.623 26.0064ZM132.539 26.3777H134.473C134.63 26.3777 134.708 26.4754 134.708 26.6318V42.4224C134.708 42.5787 134.63 42.6765 134.473 42.6765H132.539C132.363 42.6765 132.285 42.5787 132.285 42.4224V37.009H130.076C129.9 37.009 129.822 36.9113 129.822 36.7354V35.0938C129.822 34.9179 129.9 34.8202 130.076 34.8202H132.285V32.436H130.057C129.549 35.172 127.966 37.693 124.819 40.0186C124.663 40.1554 124.565 40.0968 124.428 39.9795L123.197 38.4943C123.08 38.377 123.08 38.2207 123.256 38.0839C126.383 35.8169 127.731 33.3741 127.731 30.4817V30.0518H123.862C123.705 30.0518 123.627 29.9736 123.627 29.8173V28.0975C123.627 27.9411 123.705 27.8434 123.862 27.8434H129.959C130.154 27.8434 130.233 27.9411 130.233 28.0975V30.2667H132.285V26.6318C132.285 26.4754 132.363 26.3777 132.539 26.3777ZM154.325 29.3678H156.807C157.003 29.3678 157.081 29.4655 157.081 29.6218V31.3221C157.081 31.4784 157.003 31.5761 156.807 31.5761H154.325V34.273C154.325 34.4098 154.247 34.5075 154.052 34.5075H152.058C151.902 34.5075 151.824 34.4098 151.824 34.273V26.2605C151.824 26.1041 151.902 26.0064 152.058 26.0064H154.052C154.247 26.0064 154.325 26.1041 154.325 26.2605V29.3678ZM149.694 27.0422V33.8822C149.694 34.0385 149.635 34.1362 149.459 34.1362H141.173C140.977 34.1362 140.899 34.0385 140.899 33.8822V27.0422C140.899 26.8858 140.977 26.7881 141.173 26.7881H143.108C143.284 26.7881 143.362 26.8858 143.362 27.0422V28.6056H147.27V27.0422C147.27 26.8858 147.329 26.7881 147.505 26.7881H149.459C149.635 26.7881 149.694 26.8858 149.694 27.0422ZM143.362 30.599V32.1233H147.27V30.599H143.362ZM145.511 41.2498H154.716C154.872 41.2498 154.97 41.328 154.97 41.5039V43.0087C154.97 43.165 154.872 43.2432 154.716 43.2432H143.284C143.108 43.2432 143.049 43.165 143.049 43.0087V38.5529C143.049 38.4161 143.108 38.2989 143.284 38.2989H151.843V37.3217H143.244C143.088 37.3217 143.01 37.224 143.01 37.0677V35.6019C143.01 35.4456 143.088 35.3479 143.244 35.3479H154.071C154.247 35.3479 154.325 35.4456 154.325 35.6019V39.9991C154.325 40.1554 154.228 40.2531 154.052 40.2531H145.511V41.2498ZM170.615 39.3346H177.377C177.553 39.3346 177.631 39.4323 177.631 39.5887V41.3085C177.631 41.4453 177.553 41.543 177.377 41.543H161.352C161.195 41.543 161.117 41.4453 161.117 41.3085V39.5887C161.117 39.4323 161.195 39.3346 161.352 39.3346H168.113V36.0319H163.677C163.521 36.0319 163.443 35.9342 163.443 35.7778V27.648C163.443 27.4917 163.521 27.3939 163.677 27.3939H175.051C175.227 27.3939 175.305 27.4917 175.305 27.648V35.7778C175.305 35.9342 175.227 36.0319 175.051 36.0319H170.615V39.3346ZM172.804 29.5827H165.944V33.8235H172.804V29.5827ZM192.812 35.4456H190.838C190.662 35.4456 190.584 35.3479 190.584 35.2111V26.2605C190.584 26.1041 190.662 26.0064 190.838 26.0064H192.812C193.007 26.0064 193.086 26.1041 193.086 26.2605V35.2111C193.086 35.3479 193.007 35.4456 192.812 35.4456ZM183.568 35.2111C180.774 35.2111 178.761 33.4718 178.761 30.9312C178.761 28.3711 180.774 26.6318 183.568 26.6318C186.363 26.6318 188.376 28.3711 188.376 30.9312C188.376 33.4913 186.363 35.2111 183.568 35.2111ZM183.568 33.12C184.878 33.12 185.933 32.2601 185.933 30.9312C185.933 29.5827 184.878 28.7229 183.568 28.7229C182.259 28.7229 181.204 29.5827 181.204 30.9312C181.204 32.2601 182.259 33.12 183.568 33.12ZM192.832 43.1846H182.063C181.888 43.1846 181.809 43.0869 181.809 42.9305V36.54C181.809 36.3837 181.888 36.2859 182.063 36.2859H192.832C193.007 36.2859 193.086 36.3837 193.086 36.54V42.9305C193.086 43.0869 193.007 43.1846 192.832 43.1846ZM184.311 38.3966V41.0544H190.584V38.3966H184.311ZM196.951 44.9043H195.74C195.564 44.9043 195.466 44.7871 195.525 44.6112L196.482 41.7384C196.013 41.4648 195.72 40.9958 195.72 40.3899C195.72 39.491 196.404 38.8461 197.303 38.8461C198.202 38.8461 198.886 39.491 198.886 40.3899C198.886 40.9567 198.691 41.4843 198.026 42.9696L197.245 44.7089C197.186 44.8262 197.088 44.9043 196.951 44.9043ZM62.9518 67.3346H69.7136C69.8895 67.3346 69.9677 67.4323 69.9677 67.5887V69.3085C69.9677 69.4453 69.8895 69.543 69.7136 69.543H53.6885C53.5321 69.543 53.454 69.4453 53.454 69.3085V67.5887C53.454 67.4323 53.5321 67.3346 53.6885 67.3346H60.4698V64.3446C57.6557 64.0123 55.4864 62.4489 55.4864 59.7715C55.4864 56.6838 58.3201 55.1203 61.701 55.1203C65.082 55.1203 67.8961 56.6838 67.8961 59.7715C67.8961 62.4489 65.7464 63.9928 62.9518 64.3446V67.3346ZM57.9879 59.7715C57.9879 61.3741 59.5513 62.2339 61.701 62.2339C63.8703 62.2339 65.3946 61.3741 65.3946 59.7715C65.3946 58.1495 63.8703 57.3091 61.701 57.3091C59.5513 57.3091 57.9879 58.1495 57.9879 59.7715ZM84.3866 59.9083H73.1104C72.915 59.9083 72.8563 59.8106 72.8563 59.6543V54.5927C72.8563 54.4363 72.915 54.3386 73.1104 54.3386H75.0647C75.2406 54.3386 75.2992 54.4363 75.2992 54.5927V57.8759H84.3866C84.5821 57.8759 84.6407 57.9736 84.6407 58.1299V59.6543C84.6407 59.8106 84.5821 59.9083 84.3866 59.9083ZM86.6731 62.9179H70.648C70.4917 62.9179 70.4135 62.8202 70.4135 62.6834V61.12C70.4135 60.9637 70.4917 60.8659 70.648 60.8659H86.6731C86.849 60.8659 86.9272 60.9637 86.9272 61.12V62.6834C86.9272 62.8202 86.849 62.9179 86.6731 62.9179ZM84.8166 71.3605H73.0127C72.8563 71.3605 72.7782 71.2627 72.7782 71.1259V66.8265C72.7782 66.6702 72.8563 66.5529 73.0127 66.5529H82.1001V65.9275H72.9736C72.8173 65.9275 72.7391 65.8298 72.7391 65.6539V64.1491C72.7391 63.9928 72.8173 63.8951 72.9736 63.8951H84.3085C84.4843 63.8951 84.5625 63.9928 84.5625 64.1491V68.3313C84.5625 68.4681 84.4648 68.5658 84.2889 68.5658H75.2406V69.3085H84.8166C84.9925 69.3085 85.0902 69.3866 85.0902 69.5625V71.1259C85.0902 71.2627 84.9925 71.3605 84.8166 71.3605ZM101.248 62.4098H90.0113C89.8354 62.4098 89.7573 62.3121 89.7573 62.1753V54.7099C89.7573 54.5536 89.8354 54.4559 90.0113 54.4559H91.9851C92.161 54.4559 92.2197 54.5536 92.2197 54.7099V56.4297H99.0206V54.7099C99.0206 54.5536 99.0987 54.4559 99.2551 54.4559H101.248C101.424 54.4559 101.503 54.5536 101.503 54.7099V62.1753C101.503 62.3121 101.424 62.4098 101.248 62.4098ZM99.0206 60.221V58.5794H92.2197V60.221H99.0206ZM87.6075 64.0123H103.633C103.809 64.0123 103.887 64.1101 103.887 64.2664V65.9862C103.887 66.123 103.809 66.2207 103.633 66.2207H96.8709V70.9501C96.8709 71.1064 96.7731 71.1846 96.5973 71.1846H94.6234C94.4671 71.1846 94.3889 71.1064 94.3889 70.9501V66.2207H87.6075C87.4512 66.2207 87.373 66.123 87.373 65.9862V64.2664C87.373 64.1101 87.4512 64.0123 87.6075 64.0123ZM117.094 54.0064H119.068C119.263 54.0064 119.341 54.1041 119.341 54.2605V70.9501C119.341 71.1064 119.263 71.1846 119.068 71.1846H117.094C116.918 71.1846 116.84 71.1064 116.84 70.9501V62.273H114.319C114.124 62.273 114.045 62.1753 114.045 61.9994V60.3187C114.045 60.1429 114.124 60.0451 114.319 60.0451H116.84V54.2605C116.84 54.1041 116.918 54.0064 117.094 54.0064ZM114.221 64.8527L114.475 66.3966C114.495 66.5334 114.456 66.592 114.28 66.6311C112.541 67.0024 110.489 67.2369 108.143 67.2369H105.525C105.349 67.2369 105.271 67.1392 105.271 66.9829V55.8043C105.271 55.6675 105.349 55.5698 105.525 55.5698H113.264C113.42 55.5698 113.498 55.6675 113.498 55.8043V57.3873C113.498 57.5437 113.42 57.6218 113.264 57.6218H107.753V60.3774H112.697C112.892 60.3774 112.931 60.436 112.931 60.6119V62.1167C112.931 62.273 112.892 62.3317 112.697 62.3317H107.753V65.1654H108.515C110.02 65.1654 112.189 65.009 113.889 64.6182C114.065 64.5986 114.182 64.6573 114.221 64.8527ZM135.187 61.0418H123.989C123.794 61.0418 123.735 60.9441 123.735 60.8073V54.9445C123.735 54.7881 123.794 54.7099 123.989 54.7099H125.963C126.119 54.7099 126.197 54.7881 126.197 54.9445V58.9703H135.187C135.382 58.9703 135.461 59.0485 135.461 59.2243V60.8073C135.461 60.9441 135.382 61.0418 135.187 61.0418ZM137.552 64.6377H121.527C121.37 64.6377 121.292 64.5595 121.292 64.4032V62.8202C121.292 62.6834 121.37 62.5662 121.527 62.5662H137.552C137.728 62.5662 137.806 62.6834 137.806 62.8202V64.4032C137.806 64.5595 137.728 64.6377 137.552 64.6377ZM135.617 71.1259H124.106C123.911 71.1259 123.833 71.0282 123.833 70.8719V66.1621C123.833 66.0253 123.911 65.9275 124.106 65.9275H126.08C126.236 65.9275 126.315 66.0253 126.315 66.1621V69.0349H135.617C135.812 69.0349 135.891 69.1326 135.891 69.3085V70.8719C135.891 71.0282 135.812 71.1259 135.617 71.1259ZM156.363 60.4751H158.512C158.688 60.4751 158.766 60.5923 158.766 60.7487V62.3121C158.766 62.4685 158.688 62.5662 158.512 62.5662H142.487C142.331 62.5662 142.253 62.4685 142.253 62.3121V60.7487C142.253 60.5923 142.331 60.4751 142.487 60.4751H146.65C146.962 59.2634 147.08 58.0713 147.138 56.7619H144.265C144.109 56.7619 144.031 56.6642 144.031 56.5274V54.9445C144.031 54.7881 144.109 54.7099 144.265 54.7099H149.366C149.523 54.7099 149.601 54.7881 149.601 54.9445C149.562 57.2505 149.444 58.9117 149.053 60.4751H153.978C154.252 59.2634 154.33 58.1104 154.369 56.7619H150.597C150.421 56.7619 150.363 56.6642 150.363 56.5274V54.9445C150.363 54.7881 150.421 54.7099 150.597 54.7099H156.558C156.734 54.7099 156.812 54.7881 156.812 54.9445C156.792 57.231 156.675 58.9312 156.363 60.4751ZM147.08 69.3866H156.597C156.773 69.3866 156.851 69.4843 156.851 69.6407V71.1259C156.851 71.2627 156.773 71.3605 156.597 71.3605H144.852C144.695 71.3605 144.617 71.2627 144.617 71.1259V63.9733C144.617 63.8169 144.695 63.7192 144.871 63.7192H156.323C156.48 63.7192 156.558 63.8169 156.558 63.9733V65.4194C156.558 65.5562 156.48 65.6539 156.323 65.6539H147.08V66.5725H156.108C156.304 66.5725 156.382 66.6702 156.382 66.8461V68.2141C156.382 68.3704 156.304 68.4681 156.108 68.4681H147.08V69.3866ZM162.163 65.5562H160.521C160.365 65.5562 160.267 65.4781 160.267 65.3022L160.072 55.1399C160.072 54.9835 160.17 54.8858 160.326 54.8858H162.358C162.515 54.8858 162.613 54.9835 162.613 55.1399L162.417 65.3022C162.417 65.4781 162.319 65.5562 162.163 65.5562ZM161.381 70.1097C160.482 70.1097 159.798 69.4648 159.798 68.5658C159.798 67.6669 160.482 67.0219 161.381 67.0219C162.28 67.0219 162.964 67.6669 162.964 68.5658C162.964 69.4648 162.28 70.1097 161.381 70.1097Z" fill="#FFF1EF"/>
<path d="M108.093 114L92.5786 87.1286L123.607 87.1286L108.093 114Z" fill="#272727"/>
</svg>
