<svg width="24" height="24" viewBox="0 0 24 24" fill="none" xmlns="http://www.w3.org/2000/svg">
<g clip-path="url(#clip0_512_10085)">
<path d="M21.5933 17.924C21.2449 18.7275 20.8324 19.4672 20.3546 20.1472C19.7033 21.0743 19.17 21.716 18.759 22.0724C18.1219 22.6573 17.4393 22.9569 16.7083 22.9739C16.1835 22.9739 15.5507 22.8248 14.814 22.5224C14.075 22.2214 13.3957 22.0724 12.7747 22.0724C12.1234 22.0724 11.4248 22.2214 10.6777 22.5224C9.92933 22.8248 9.32649 22.9824 8.86558 22.998C8.16462 23.0278 7.46593 22.7198 6.76853 22.0724C6.3234 21.6848 5.76664 21.0204 5.09967 20.0791C4.38406 19.0739 3.79573 17.9084 3.33482 16.5795C2.8412 15.1442 2.59375 13.7543 2.59375 12.4087C2.59375 10.8673 2.92738 9.5379 3.59563 8.42385C4.12082 7.52901 4.81951 6.82313 5.69397 6.30493C6.56843 5.78674 7.51329 5.52267 8.53082 5.50578C9.08758 5.50578 9.81769 5.67771 10.725 6.0156C11.6298 6.35462 12.2107 6.52655 12.4654 6.52655C12.6558 6.52655 13.3012 6.32552 14.3952 5.92474C15.4298 5.55306 16.303 5.39916 17.0183 5.45978C18.9567 5.61595 20.4129 6.37876 21.3814 7.75304C19.6478 8.80164 18.7903 10.2703 18.8073 12.1544C18.823 13.622 19.3563 14.8432 20.4044 15.8129C20.8794 16.2629 21.4098 16.6108 22 16.8578C21.872 17.2283 21.7369 17.5833 21.5933 17.924ZM17.1477 0.460131C17.1477 1.61039 16.7268 2.68439 15.8877 3.67847C14.8752 4.86024 13.6505 5.54312 12.3223 5.43536C12.3054 5.29737 12.2956 5.15213 12.2956 4.99951C12.2956 3.89526 12.7771 2.71349 13.6322 1.74724C14.0592 1.25801 14.6021 0.851218 15.2606 0.526715C15.9176 0.207053 16.5391 0.0302728 17.1236 0C17.1406 0.153772 17.1477 0.307569 17.1477 0.460131Z" fill="#0F0F0F"/>
</g>
<defs>
<clipPath id="clip0_512_10085">
<rect width="19.4062" height="23" fill="white" transform="translate(2.59375)"/>
</clipPath>
</defs>
</svg>
