<svg width="20" height="20" viewBox="0 0 20 20" fill="none" xmlns="http://www.w3.org/2000/svg">
<path d="M14.167 1.66669H5.83366C3.53366 1.66669 1.66699 3.52502 1.66699 5.81669V10.8V11.6334C1.66699 13.925 3.53366 15.7834 5.83366 15.7834H7.08366C7.30866 15.7834 7.60866 15.9334 7.75033 16.1167L9.00033 17.775C9.55033 18.5084 10.4503 18.5084 11.0003 17.775L12.2503 16.1167C12.4087 15.9084 12.6587 15.7834 12.917 15.7834H14.167C16.467 15.7834 18.3337 13.925 18.3337 11.6334V5.81669C18.3337 3.52502 16.467 1.66669 14.167 1.66669ZM6.66699 10C6.20033 10 5.83366 9.62502 5.83366 9.16669C5.83366 8.70835 6.20866 8.33335 6.66699 8.33335C7.12533 8.33335 7.50033 8.70835 7.50033 9.16669C7.50033 9.62502 7.13366 10 6.66699 10ZM10.0003 10C9.53366 10 9.16699 9.62502 9.16699 9.16669C9.16699 8.70835 9.54199 8.33335 10.0003 8.33335C10.4587 8.33335 10.8337 8.70835 10.8337 9.16669C10.8337 9.62502 10.467 10 10.0003 10ZM13.3337 10C12.867 10 12.5003 9.62502 12.5003 9.16669C12.5003 8.70835 12.8753 8.33335 13.3337 8.33335C13.792 8.33335 14.167 8.70835 14.167 9.16669C14.167 9.62502 13.8003 10 13.3337 10Z" fill="#656569"/>
</svg>
