<svg width="33" height="40" viewBox="0 0 33 40" fill="none" xmlns="http://www.w3.org/2000/svg">
<path d="M20.4143 2.45323C20.4098 2.30231 20.2388 2.20403 20.1043 2.28147C12.9806 6.38084 13.1126 16.6643 13.1976 18.5276C13.204 18.6681 13.066 18.7673 12.9338 18.7074C12.1109 18.3341 9.75291 16.9281 9.62265 13.0332C9.61759 12.882 9.44831 12.7849 9.31325 12.862C5.18867 15.2167 2.42218 19.5658 2.42218 24.3886C2.42218 31.7703 8.86466 37.7544 16.8119 37.7544C24.7591 37.7544 31.2016 31.7703 31.2016 24.3886C31.2015 13.6645 20.6771 11.3582 20.4143 2.45323Z" fill="white"/>
<path fill-rule="evenodd" clip-rule="evenodd" d="M19.1672 4.82561C17.2109 6.62542 16.0797 9.11153 15.4448 11.5978C14.6478 14.7188 14.6984 17.5965 14.7379 18.4624C14.7886 19.575 13.5909 20.647 12.2769 20.0509C11.315 19.6145 9.21038 18.3095 8.40117 15.3037C5.68281 17.5163 3.96394 20.8143 3.96394 24.3886C3.96394 30.8997 9.66282 36.2693 16.8119 36.2693C23.9609 36.2693 29.6598 30.8997 29.6598 24.3886C29.6598 19.5919 27.3589 16.6889 24.7299 13.6984C24.5682 13.5146 24.4044 13.3296 24.2394 13.1432C22.1983 10.8389 19.9611 8.31314 19.1672 4.82561ZM19.3136 1.00656C20.5485 0.295918 21.9205 1.22804 21.9554 2.41102C22.0638 6.08347 24.1412 8.44063 26.7262 11.3738C26.8441 11.5076 26.9631 11.6426 27.083 11.779C29.7819 14.8489 32.7433 18.4612 32.7433 24.3886C32.7433 32.641 25.5572 39.2395 16.8119 39.2395C8.0665 39.2395 0.880432 32.641 0.880432 24.3886C0.880432 19.0138 3.95916 14.1923 8.52718 11.5844C9.75831 10.8815 11.1241 11.8044 11.1636 12.9854C11.1983 14.0231 11.4193 14.8274 11.7175 15.4475C11.8172 14.1295 12.0278 12.544 12.4506 10.8883C13.3417 7.39849 15.2423 3.34942 19.3136 1.00656Z" fill="white"/>
</svg>
