<svg width="20" height="20" viewBox="0 0 20 20" fill="none" xmlns="http://www.w3.org/2000/svg">
<path d="M6.9917 15.4076V6.94095C6.9917 6.60762 7.0917 6.28262 7.27503 6.00762L9.55003 2.62429C9.90837 2.08262 10.8 1.69929 11.5584 1.98262C12.375 2.25762 12.9167 3.17429 12.7417 3.99095L12.3084 6.71595C12.275 6.96595 12.3417 7.19095 12.4834 7.36595C12.625 7.52429 12.8334 7.62429 13.0584 7.62429H16.4834C17.1417 7.62429 17.7084 7.89095 18.0417 8.35762C18.3584 8.80762 18.4167 9.39095 18.2084 9.98262L16.1584 16.2243C15.9 17.2576 14.775 18.0993 13.6584 18.0993H10.4084C9.85003 18.0993 9.0667 17.9076 8.70837 17.5493L7.6417 16.7243C7.23337 16.416 6.9917 15.9243 6.9917 15.4076Z" fill="#656569"/>
<path d="M4.34175 5.31641H3.48341C2.19175 5.31641 1.66675 5.81641 1.66675 7.04974V15.4331C1.66675 16.6664 2.19175 17.1664 3.48341 17.1664H4.34175C5.63341 17.1664 6.15841 16.6664 6.15841 15.4331V7.04974C6.15841 5.81641 5.63341 5.31641 4.34175 5.31641Z" fill="#656569"/>
</svg>
