<svg width="76" height="65" viewBox="0 0 76 65" fill="none" xmlns="http://www.w3.org/2000/svg">
<rect width="76" height="65" rx="12" fill="#353538"/>
<rect x="22" y="8" width="32" height="32" rx="7.68" fill="#353538"/>
<path d="M40.1009 13.2024C40.0982 13.1096 39.9929 13.0491 39.9101 13.0967C35.5264 15.6194 35.6075 21.9477 35.6599 23.0944C35.6638 23.1808 35.5789 23.2419 35.4976 23.205C34.9911 22.9753 33.5401 22.11 33.4599 19.7132C33.4568 19.6202 33.3526 19.5604 33.2695 19.6078C30.7313 21.0569 29.0288 23.7332 29.0288 26.7011C29.0288 31.2437 32.9934 34.9263 37.884 34.9263C42.7746 34.9263 46.7392 31.2437 46.7392 26.7011C46.7392 20.1017 40.2627 18.6824 40.1009 13.2024Z" fill="#1C1B1B"/>
<path fill-rule="evenodd" clip-rule="evenodd" d="M39.3335 14.6624C38.1296 15.7699 37.4335 17.2999 37.0428 18.8299C36.5523 20.7505 36.5834 22.5214 36.6077 23.0542C36.639 23.7389 35.9019 24.3986 35.0933 24.0318C34.5013 23.7633 33.2062 22.9602 32.7082 21.1104C31.0354 22.472 29.9776 24.5016 29.9776 26.7011C29.9776 30.708 33.4846 34.0124 37.884 34.0124C42.2835 34.0124 45.7905 30.708 45.7905 26.7011C45.7904 23.7493 44.3745 21.9629 42.7567 20.1226C42.6572 20.0094 42.5564 19.8956 42.4548 19.7809C41.1988 18.3629 39.8221 16.8085 39.3335 14.6624ZM39.4235 12.3122C40.1835 11.8749 41.0278 12.4485 41.0493 13.1765C41.116 15.4364 42.3944 16.887 43.9852 18.692C44.0577 18.7744 44.131 18.8574 44.2047 18.9414C45.8656 20.8305 47.688 23.0535 47.688 26.7011C47.688 31.7795 43.2658 35.8402 37.884 35.8402C32.5023 35.8402 28.0801 31.7795 28.0801 26.7011C28.0801 23.3936 29.9747 20.4265 32.7858 18.8216C33.5434 18.3891 34.3839 18.957 34.4082 19.6838C34.4295 20.3224 34.5655 20.8173 34.749 21.1989C34.8104 20.3879 34.94 19.4122 35.2002 18.3933C35.7486 16.2457 36.9181 13.7539 39.4235 12.3122Z" fill="#1C1B1B"/>
<path d="M26.9453 43.0195V51.209H21.0664V43.0195H26.9453ZM22.5703 49.9922H25.4688V44.209H22.5703V49.9922ZM29.1602 54.2305V41.8574H30.6914V54.2305H29.1602ZM36.0322 42.3906C37.8369 42.3906 39.122 43.3955 39.1357 44.8789C39.122 46.1094 38.1992 47.0322 36.8252 47.2852V48.2832C37.8574 48.2217 38.8896 48.1328 39.8466 47.9961L39.9697 49.1035C37.3994 49.5615 34.5283 49.6162 32.4365 49.6094L32.2724 48.3926C33.1611 48.3926 34.2002 48.3857 35.2939 48.3516V47.292C33.8789 47.0527 32.9355 46.1299 32.9423 44.8789C32.9355 43.3955 34.2207 42.3906 36.0322 42.3906ZM33.9677 53.957V50.4707H35.4853V52.7266H42.5263V53.957H33.9677ZM34.3642 44.8789C34.3505 45.6924 35.0478 46.1982 36.0322 46.2051C37.0234 46.1982 37.6933 45.6924 37.7002 44.8789C37.6933 44.0449 37.0234 43.5527 36.0322 43.5527C35.0478 43.5527 34.3505 44.0449 34.3642 44.8789ZM40.5712 51.3047V41.8711H42.0888V45.8633H43.7568V47.1211H42.0888V51.3047H40.5712ZM55.4823 51.5234V52.7812H44.1894V51.5234H47.1835V49.4863H45.5292V45.4531H52.6386V43.9355H45.5019V42.7051H54.1425V46.6699H47.0468V48.2559H54.4296V49.4863H52.6249V51.5234H55.4823ZM48.6601 51.5234H51.1347V49.4863H48.6601V51.5234Z" fill="#656569"/>
</svg>
