<svg width="76" height="65" viewBox="0 0 76 65" fill="none" xmlns="http://www.w3.org/2000/svg">
<rect width="76" height="65" rx="12" fill="#FF5B44"/>
<rect x="22" y="8" width="32" height="32" rx="7.68" fill="#FF5B44"/>
<path d="M40.1009 13.2024C40.0982 13.1096 39.9929 13.0491 39.9101 13.0967C35.5264 15.6194 35.6075 21.9477 35.6599 23.0944C35.6638 23.1808 35.5789 23.2419 35.4976 23.205C34.9911 22.9753 33.5401 22.11 33.4599 19.7132C33.4568 19.6202 33.3526 19.5604 33.2695 19.6078C30.7313 21.0569 29.0288 23.7332 29.0288 26.7011C29.0288 31.2437 32.9934 34.9263 37.884 34.9263C42.7746 34.9263 46.7392 31.2437 46.7392 26.7011C46.7392 20.1017 40.2627 18.6824 40.1009 13.2024Z" fill="white"/>
<path fill-rule="evenodd" clip-rule="evenodd" d="M39.3335 14.6624C38.1296 15.7699 37.4335 17.2999 37.0428 18.8299C36.5523 20.7505 36.5834 22.5214 36.6077 23.0542C36.639 23.7389 35.9019 24.3986 35.0933 24.0318C34.5013 23.7633 33.2062 22.9602 32.7082 21.1104C31.0354 22.472 29.9776 24.5016 29.9776 26.7011C29.9776 30.708 33.4846 34.0124 37.884 34.0124C42.2835 34.0124 45.7905 30.708 45.7905 26.7011C45.7904 23.7493 44.3745 21.9629 42.7567 20.1226C42.6572 20.0094 42.5564 19.8956 42.4548 19.7809C41.1988 18.3629 39.8221 16.8085 39.3335 14.6624ZM39.4235 12.3122C40.1835 11.8749 41.0278 12.4485 41.0493 13.1765C41.116 15.4364 42.3944 16.887 43.9852 18.692C44.0577 18.7744 44.131 18.8574 44.2047 18.9414C45.8656 20.8305 47.688 23.0535 47.688 26.7011C47.688 31.7795 43.2658 35.8402 37.884 35.8402C32.5023 35.8402 28.0801 31.7795 28.0801 26.7011C28.0801 23.3936 29.9747 20.4265 32.7858 18.8216C33.5434 18.3891 34.3839 18.957 34.4082 19.6838C34.4295 20.3224 34.5655 20.8173 34.749 21.1989C34.8104 20.3879 34.94 19.4122 35.2002 18.3933C35.7486 16.2457 36.9181 13.7539 39.4235 12.3122Z" fill="white"/>
<path d="M28.9355 43.6348C28.9287 45.3164 29.9131 46.8545 31.8477 47.4629L31.0273 48.6523C29.6807 48.1738 28.7373 47.2715 28.2109 46.1025C27.6641 47.4492 26.6318 48.5088 25.1348 49.0352L24.3281 47.8047C26.3721 47.1348 27.3975 45.4873 27.4043 43.7031V42.5273H28.9355V43.6348ZM26.3789 51.8379C26.3652 50.334 27.9717 49.4521 30.5762 49.459C33.1943 49.4521 34.7939 50.334 34.8008 51.8379C34.7939 53.3418 33.1943 54.2031 30.5762 54.2031C27.9717 54.2031 26.3652 53.3418 26.3789 51.8379ZM27.8828 51.8379C27.876 52.5898 28.8604 53.0068 30.5762 53.0137C32.3057 53.0068 33.2832 52.5898 33.2832 51.8379C33.2832 51.0586 32.3057 50.6416 30.5762 50.6348C28.8604 50.6416 27.876 51.0586 27.8828 51.8379ZM30.7812 45.4941V44.25H33.2422V41.8574H34.7598V49.1309H33.2422V45.4941H30.7812ZM41.8642 49.582C44.5507 49.5889 46.2461 50.4365 46.2529 51.9062C46.2461 53.3418 44.5507 54.2031 41.8642 54.2031C39.205 54.2031 37.4892 53.3418 37.4892 51.9062C37.4892 50.4365 39.205 49.5889 41.8642 49.582ZM36.3271 48.6934V47.4629H40.6748V45.2207H42.1787V47.4629H47.538V48.6934H36.3271ZM37.6123 43.6484V42.4453H46.1709V43.4707C46.1777 44.4482 46.1777 45.4873 45.8291 46.752L44.3252 46.6152C44.6328 45.4189 44.6533 44.5439 44.6533 43.6484H37.6123ZM39.0205 51.9062C39.0068 52.6309 40.08 53.0273 41.8642 53.0273C43.6552 53.0273 44.7353 52.6309 44.749 51.9062C44.7353 51.1543 43.6552 50.7305 41.8642 50.7305C40.08 50.7305 39.0068 51.1543 39.0205 51.9062ZM50.7323 43.1016L50.582 50.0879H49.037L48.873 43.1016H50.7323ZM48.7499 52.043C48.7431 51.4688 49.2284 50.9971 49.8163 50.9902C50.3837 50.9971 50.8691 51.4688 50.8691 52.043C50.8691 52.6309 50.3837 53.1094 49.8163 53.1094C49.2284 53.1094 48.7431 52.6309 48.7499 52.043Z" fill="#F4F6F8"/>
</svg>
