<svg width="16" height="17" viewBox="0 0 16 17" fill="none" xmlns="http://www.w3.org/2000/svg">
<path d="M11.5936 10.9467L8.90031 8.5H7.09364L4.40031 10.9467C3.64698 11.6267 3.40031 12.6733 3.76698 13.62C4.13364 14.56 5.02698 15.1667 6.03364 15.1667H9.96031C10.9736 15.1667 11.8603 14.56 12.227 13.62C12.5936 12.6733 12.347 11.6267 11.5936 10.9467ZM9.21364 12.5933H6.78698C6.53364 12.5933 6.33364 12.3867 6.33364 12.14C6.33364 11.8933 6.54031 11.6867 6.78698 11.6867H9.21364C9.46698 11.6867 9.66698 11.8933 9.66698 12.14C9.66698 12.3867 9.46031 12.5933 9.21364 12.5933Z" fill="#FFA194"/>
<path d="M12.2331 3.37967C11.8664 2.43967 10.9731 1.83301 9.96645 1.83301H6.03311C5.02645 1.83301 4.13311 2.43967 3.76645 3.37967C3.40645 4.32634 3.65311 5.37301 4.40645 6.05301L7.09978 8.49967H8.90645L11.5998 6.05301C12.3464 5.37301 12.5931 4.32634 12.2331 3.37967ZM9.21311 5.31967H6.78645C6.53311 5.31967 6.33311 5.11301 6.33311 4.86634C6.33311 4.61967 6.53978 4.41301 6.78645 4.41301H9.21311C9.46645 4.41301 9.66645 4.61967 9.66645 4.86634C9.66645 5.11301 9.45978 5.31967 9.21311 5.31967Z" fill="#FFA194"/>
</svg>
