<svg width="20" height="20" viewBox="0 0 20 20" fill="none" xmlns="http://www.w3.org/2000/svg">
<path d="M13.4917 1.66699H6.50841C3.47508 1.66699 1.66675 3.47533 1.66675 6.50866V13.4837C1.66675 16.5253 3.47508 18.3337 6.50841 18.3337H13.4834C16.5167 18.3337 18.3251 16.5253 18.3251 13.492V6.50866C18.3334 3.47533 16.5251 1.66699 13.4917 1.66699ZM7.05841 9.15032C7.30008 8.90866 7.70008 8.90866 7.94175 9.15032L9.37508 10.5837V5.42533C9.37508 5.08366 9.65841 4.80033 10.0001 4.80033C10.3417 4.80033 10.6251 5.08366 10.6251 5.42533V10.5837L12.0584 9.15032C12.3001 8.90866 12.7001 8.90866 12.9417 9.15032C13.1834 9.39199 13.1834 9.79199 12.9417 10.0337L10.4417 12.5337C10.3834 12.592 10.3167 12.6337 10.2417 12.667C10.1667 12.7003 10.0834 12.717 10.0001 12.717C9.91675 12.717 9.84175 12.7003 9.75841 12.667C9.68341 12.6337 9.61675 12.592 9.55841 12.5337L7.05841 10.0337C6.81675 9.79199 6.81675 9.40032 7.05841 9.15032ZM15.2001 14.3503C13.5251 14.9087 11.7667 15.192 10.0001 15.192C8.23341 15.192 6.47508 14.9087 4.80008 14.3503C4.47508 14.242 4.30008 13.8837 4.40841 13.5587C4.51675 13.2337 4.86675 13.0503 5.20008 13.167C8.30008 14.2003 11.7084 14.2003 14.8084 13.167C15.1334 13.0587 15.4917 13.2337 15.6001 13.5587C15.7001 13.892 15.5251 14.242 15.2001 14.3503Z" fill="#D9DCE1"/>
</svg>
