<svg width="32" height="32" viewBox="0 0 32 32" fill="none" xmlns="http://www.w3.org/2000/svg">
<rect width="32" height="32" rx="10.6667" fill="#353538"/>
<path d="M19.3332 7.66666H12.6665C9.33317 7.66666 7.6665 9.33332 7.6665 12.6667V23.5C7.6665 23.9583 8.0415 24.3333 8.49984 24.3333H19.3332C22.6665 24.3333 24.3332 22.6667 24.3332 19.3333V12.6667C24.3332 9.33332 22.6665 7.66666 19.3332 7.66666ZM17.6665 18.7083H11.8332C11.4915 18.7083 11.2082 18.425 11.2082 18.0833C11.2082 17.7417 11.4915 17.4583 11.8332 17.4583H17.6665C18.0082 17.4583 18.2915 17.7417 18.2915 18.0833C18.2915 18.425 18.0082 18.7083 17.6665 18.7083ZM20.1665 14.5417H11.8332C11.4915 14.5417 11.2082 14.2583 11.2082 13.9167C11.2082 13.575 11.4915 13.2917 11.8332 13.2917H20.1665C20.5082 13.2917 20.7915 13.575 20.7915 13.9167C20.7915 14.2583 20.5082 14.5417 20.1665 14.5417Z" fill="#9B9999"/>
</svg>
