<svg width="14" height="15" viewBox="0 0 14 15" fill="none" xmlns="http://www.w3.org/2000/svg">
<path d="M7.00033 1.66699C3.78616 1.66699 1.16699 4.28616 1.16699 7.50033C1.16699 10.7145 3.78616 13.3337 7.00033 13.3337C10.2145 13.3337 12.8337 10.7145 12.8337 7.50033C12.8337 4.28616 10.2145 1.66699 7.00033 1.66699ZM9.53783 9.58283C9.45616 9.72283 9.31033 9.79866 9.15866 9.79866C9.08283 9.79866 9.00699 9.78116 8.93699 9.73449L7.12866 8.65533C6.67949 8.38699 6.34699 7.79783 6.34699 7.27866V4.88699C6.34699 4.64783 6.54533 4.44949 6.78449 4.44949C7.02366 4.44949 7.22199 4.64783 7.22199 4.88699V7.27866C7.22199 7.48866 7.39699 7.79783 7.57783 7.90283L9.38616 8.98199C9.59616 9.10449 9.66616 9.37283 9.53783 9.58283Z" fill="#656569"/>
</svg>
