<svg width="76" height="65" viewBox="0 0 76 65" fill="none" xmlns="http://www.w3.org/2000/svg">
<rect width="76" height="65" rx="12" fill="#353538"/>
<rect x="22" y="8" width="32" height="32" rx="7.68" fill="#353538"/>
<path d="M40.1009 13.2024C40.0982 13.1096 39.9929 13.0491 39.9101 13.0967C35.5264 15.6194 35.6075 21.9477 35.6599 23.0944C35.6638 23.1808 35.5789 23.2419 35.4976 23.205C34.9911 22.9753 33.5401 22.11 33.4599 19.7132C33.4568 19.6202 33.3526 19.5604 33.2695 19.6078C30.7313 21.0569 29.0288 23.7332 29.0288 26.7011C29.0288 31.2437 32.9934 34.9263 37.884 34.9263C42.7746 34.9263 46.7392 31.2437 46.7392 26.7011C46.7392 20.1017 40.2627 18.6824 40.1009 13.2024Z" fill="#FF5B44"/>
<path fill-rule="evenodd" clip-rule="evenodd" d="M39.3335 14.6624C38.1296 15.7699 37.4335 17.2999 37.0428 18.8299C36.5523 20.7505 36.5834 22.5214 36.6077 23.0542C36.639 23.7389 35.9019 24.3986 35.0933 24.0318C34.5013 23.7633 33.2062 22.9602 32.7082 21.1104C31.0354 22.472 29.9776 24.5016 29.9776 26.7011C29.9776 30.708 33.4846 34.0124 37.884 34.0124C42.2835 34.0124 45.7905 30.708 45.7905 26.7011C45.7904 23.7493 44.3745 21.9629 42.7567 20.1226C42.6572 20.0094 42.5564 19.8956 42.4548 19.7809C41.1988 18.3629 39.8221 16.8085 39.3335 14.6624ZM39.4235 12.3122C40.1835 11.8749 41.0278 12.4485 41.0493 13.1765C41.116 15.4364 42.3944 16.887 43.9852 18.692C44.0577 18.7744 44.131 18.8574 44.2047 18.9414C45.8656 20.8305 47.688 23.0535 47.688 26.7011C47.688 31.7795 43.2658 35.8402 37.884 35.8402C32.5023 35.8402 28.0801 31.7795 28.0801 26.7011C28.0801 23.3936 29.9747 20.4265 32.7858 18.8216C33.5434 18.3891 34.3839 18.957 34.4082 19.6838C34.4295 20.3224 34.5655 20.8173 34.749 21.1989C34.8104 20.3879 34.94 19.4122 35.2002 18.3933C35.7486 16.2457 36.9181 13.7539 39.4235 12.3122Z" fill="#FF5B44"/>
<path d="M24.7051 41.8711V50.7988H23.1738V41.8711H24.7051ZM14.6289 45.7676C14.6289 43.9697 16.085 42.6846 17.9648 42.6777C19.8447 42.6846 21.2939 43.9697 21.2871 45.7676C21.2939 47.5928 19.8447 48.8711 17.9648 48.8711C16.085 48.8711 14.6289 47.5928 14.6289 45.7676ZM16.1191 45.7676C16.1123 46.8613 16.9053 47.5449 17.9648 47.5449C18.9971 47.5449 19.7969 46.8613 19.7969 45.7676C19.7969 44.7012 18.9971 44.0039 17.9648 44.0039C16.9053 44.0039 16.1123 44.7012 16.1191 45.7676ZM16.5293 53.9707V49.8965H18.0605V52.7402H25.0469V53.9707H16.5293ZM37.5654 47.6133V48.8438H26.2998V47.6133H37.5654ZM26.8466 45.8633C29.1367 45.6377 30.6269 44.7217 30.8593 43.6895H27.3252V42.4453H36.5537V43.6895H32.9853C33.2109 44.708 34.6875 45.6377 37.0322 45.8633L36.499 47.0664C34.25 46.834 32.5888 45.9385 31.9189 44.6875C31.249 45.9385 29.6084 46.834 27.3662 47.0664L26.8466 45.8633ZM27.6123 51.9336C27.6123 50.498 29.2324 49.6641 31.9189 49.6641C34.5849 49.6641 36.1914 50.498 36.1982 51.9336C36.1914 53.3896 34.5849 54.2031 31.9189 54.2031C29.2324 54.2031 27.6123 53.3896 27.6123 51.9336ZM29.1572 51.9336C29.1504 52.6514 30.1211 53.0068 31.9189 53.0137C33.6894 53.0068 34.667 52.6514 34.6806 51.9336C34.667 51.2158 33.6894 50.8535 31.9189 50.8535C30.1211 50.8535 29.1504 51.2158 29.1572 51.9336ZM41.9218 42.3906C43.7265 42.3906 45.0116 43.3955 45.0253 44.8789C45.0116 46.1094 44.0888 47.0322 42.7148 47.2852V48.2832C43.747 48.2217 44.7792 48.1328 45.7362 47.9961L45.8593 49.1035C43.289 49.5615 40.4179 49.6162 38.3261 49.6094L38.162 48.3926C39.0507 48.3926 40.0898 48.3857 41.1835 48.3516V47.292C39.7685 47.0527 38.8251 46.1299 38.832 44.8789C38.8251 43.3955 40.1103 42.3906 41.9218 42.3906ZM39.8573 53.957V50.4707H41.3749V52.7266H48.4159V53.957H39.8573ZM40.2538 44.8789C40.2402 45.6924 40.9374 46.1982 41.9218 46.2051C42.913 46.1982 43.5829 45.6924 43.5898 44.8789C43.5829 44.0449 42.913 43.5527 41.9218 43.5527C40.9374 43.5527 40.2402 44.0449 40.2538 44.8789ZM46.4609 51.3047V41.8711H47.9784V45.8633H49.6464V47.1211H47.9784V51.3047H46.4609ZM61.372 51.5234V52.7812H50.079V51.5234H53.0731V49.4863H51.4188V45.4531H58.5282V43.9355H51.3915V42.7051H60.0321V46.6699H52.9364V48.2559H60.3192V49.4863H58.5145V51.5234H61.372ZM54.5497 51.5234H57.0243V49.4863H54.5497V51.5234Z" fill="#F4F6F8"/>
</svg>
