<svg width="32" height="32" viewBox="0 0 32 32" fill="none" xmlns="http://www.w3.org/2000/svg">
<rect width="32" height="32" rx="10.6667" fill="#353538"/>
<path d="M19.4915 7.66666H12.5082C9.47484 7.66666 7.6665 9.47499 7.6665 12.5083V19.4833C7.6665 22.525 9.47484 24.3333 12.5082 24.3333H19.4832C22.5165 24.3333 24.3248 22.525 24.3248 19.4917V12.5083C24.3332 9.47499 22.5248 7.66666 19.4915 7.66666ZM15.1248 20.5917C14.8832 20.8333 14.4248 21.0667 14.0915 21.1167L12.0415 21.4083C11.9665 21.4167 11.8915 21.425 11.8165 21.425C11.4748 21.425 11.1582 21.3083 10.9332 21.0833C10.6582 20.8083 10.5415 20.4083 10.6082 19.9667L10.8998 17.9167C10.9498 17.575 11.1748 17.125 11.4248 16.8833L15.1415 13.1667C15.2082 13.3417 15.2748 13.5167 15.3665 13.7167C15.4498 13.8917 15.5415 14.075 15.6415 14.2417C15.7248 14.3833 15.8165 14.5167 15.8915 14.6167C15.9832 14.7583 16.0915 14.8917 16.1582 14.9667C16.1998 15.025 16.2332 15.0667 16.2498 15.0833C16.4582 15.3333 16.6998 15.5667 16.9082 15.7417C16.9665 15.8 16.9998 15.8333 17.0165 15.8417C17.1415 15.9417 17.2665 16.0417 17.3748 16.1167C17.5082 16.2167 17.6415 16.3083 17.7832 16.3833C17.9498 16.4833 18.1332 16.575 18.3165 16.6667C18.5082 16.75 18.6832 16.825 18.8582 16.8833L15.1248 20.5917ZM20.4748 15.2417L19.7082 16.0167C19.6582 16.0667 19.5915 16.0917 19.5248 16.0917C19.4998 16.0917 19.4665 16.0917 19.4498 16.0833C17.7582 15.6 16.4082 14.25 15.9248 12.5583C15.8998 12.4667 15.9248 12.3667 15.9915 12.3083L16.7665 11.5333C18.0332 10.2667 19.2415 10.2917 20.4832 11.5333C21.1165 12.1667 21.4248 12.775 21.4248 13.4083C21.4165 14.0083 21.1082 14.6083 20.4748 15.2417Z" fill="#9B9999"/>
</svg>
