<svg width="14" height="14" viewBox="0 0 14 14" fill="none" xmlns="http://www.w3.org/2000/svg">
<path d="M6.99996 1.1665C3.78579 1.1665 1.16663 3.78567 1.16663 6.99984C1.16663 10.214 3.78579 12.8332 6.99996 12.8332C10.2141 12.8332 12.8333 10.214 12.8333 6.99984C12.8333 3.78567 10.2141 1.1665 6.99996 1.1665ZM9.53746 9.08234C9.45579 9.22234 9.30996 9.29817 9.15829 9.29817C9.08246 9.29817 9.00663 9.28067 8.93663 9.234L7.12829 8.15484C6.67913 7.8865 6.34663 7.29734 6.34663 6.77817V4.3865C6.34663 4.14734 6.54496 3.949 6.78413 3.949C7.02329 3.949 7.22163 4.14734 7.22163 4.3865V6.77817C7.22163 6.98817 7.39663 7.29734 7.57746 7.40234L9.38579 8.4815C9.59579 8.604 9.66579 8.87234 9.53746 9.08234Z" fill="#FF5B44"/>
</svg>
