<svg width="76" height="65" viewBox="0 0 76 65" fill="none" xmlns="http://www.w3.org/2000/svg">
<rect width="76" height="65" rx="12" fill="#353538"/>
<rect x="22" y="8" width="32" height="32" rx="7.68" fill="#353538"/>
<path d="M40.1009 13.2024C40.0982 13.1096 39.9929 13.0491 39.9101 13.0967C35.5264 15.6194 35.6075 21.9477 35.6599 23.0944C35.6638 23.1808 35.5789 23.2419 35.4976 23.205C34.9911 22.9753 33.5401 22.11 33.4599 19.7132C33.4568 19.6202 33.3526 19.5604 33.2695 19.6078C30.7313 21.0569 29.0288 23.7332 29.0288 26.7011C29.0288 31.2437 32.9934 34.9263 37.884 34.9263C42.7746 34.9263 46.7392 31.2437 46.7392 26.7011C46.7392 20.1017 40.2627 18.6824 40.1009 13.2024Z" fill="#1C1B1B"/>
<path fill-rule="evenodd" clip-rule="evenodd" d="M39.3335 14.6624C38.1296 15.7699 37.4335 17.2999 37.0428 18.8299C36.5523 20.7505 36.5834 22.5214 36.6077 23.0542C36.639 23.7389 35.9019 24.3986 35.0933 24.0318C34.5013 23.7633 33.2062 22.9602 32.7082 21.1104C31.0354 22.472 29.9776 24.5016 29.9776 26.7011C29.9776 30.708 33.4846 34.0124 37.884 34.0124C42.2835 34.0124 45.7905 30.708 45.7905 26.7011C45.7904 23.7493 44.3745 21.9629 42.7567 20.1226C42.6572 20.0094 42.5564 19.8956 42.4548 19.7809C41.1988 18.3629 39.8221 16.8085 39.3335 14.6624ZM39.4235 12.3122C40.1835 11.8749 41.0278 12.4485 41.0493 13.1765C41.116 15.4364 42.3944 16.887 43.9852 18.692C44.0577 18.7744 44.131 18.8574 44.2047 18.9414C45.8656 20.8305 47.688 23.0535 47.688 26.7011C47.688 31.7795 43.2658 35.8402 37.884 35.8402C32.5023 35.8402 28.0801 31.7795 28.0801 26.7011C28.0801 23.3936 29.9747 20.4265 32.7858 18.8216C33.5434 18.3891 34.3839 18.957 34.4082 19.6838C34.4295 20.3224 34.5655 20.8173 34.749 21.1989C34.8104 20.3879 34.94 19.4122 35.2002 18.3933C35.7486 16.2457 36.9181 13.7539 39.4235 12.3122Z" fill="#1C1B1B"/>
<path d="M32.6777 41.8574V48.1602H31.1738V41.8574H32.6777ZM22.3965 46.957C24.3994 46.3213 25.4521 44.7354 25.4453 43.1152V42.1582H27.0176V43.1152C27.0107 44.6875 28.0566 46.1572 30.0117 46.752L29.2734 47.9277C27.8379 47.4834 26.8125 46.5674 26.252 45.3916C25.6914 46.6699 24.6387 47.6748 23.1621 48.1465L22.3965 46.957ZM24.502 49.9102V48.7344H32.7051V51.9473H26.0195V52.9043H33.0742V54.1074H24.5293V50.8125H31.1875V49.9102H24.502ZM44.9638 41.8574V54.2168H43.5009V47.9414H42.2705V53.5879H40.8349V42.0898H42.2705V46.6973H43.5009V41.8574H44.9638ZM34.163 50.0469H35.3115V44.5508H34.4091V43.3203H40.124V44.5508H39.2353V49.876C39.6045 49.8486 39.9531 49.8076 40.288 49.7598L40.3701 50.8672C38.4423 51.2637 35.8925 51.3115 34.3408 51.3047L34.163 50.0469ZM36.6787 50.0195C37.0683 50.0059 37.458 49.9922 37.8545 49.9717V44.5508H36.6787V50.0195ZM47.6933 53.1094C47.1054 53.1094 46.62 52.6309 46.6269 52.043C46.62 51.4688 47.1054 50.9971 47.6933 50.9902C48.2607 50.9971 48.746 51.4688 48.746 52.043C48.746 52.6309 48.2607 53.1094 47.6933 53.1094ZM51.2977 53.1094C50.7098 53.1094 50.2245 52.6309 50.2313 52.043C50.2245 51.4688 50.7098 50.9971 51.2977 50.9902C51.8651 50.9971 52.3505 51.4688 52.3505 52.043C52.3505 52.6309 51.8651 53.1094 51.2977 53.1094Z" fill="#656569"/>
</svg>
