<svg width="48" height="48" viewBox="0 0 48 48" fill="none" xmlns="http://www.w3.org/2000/svg">
<rect width="48" height="48" rx="24" fill="#353538"/>
<path d="M20.9101 32.6695C20.7201 32.6695 20.5301 32.5995 20.3801 32.4495C20.0901 32.1595 20.0901 31.6795 20.3801 31.3895L26.9001 24.8695C27.3801 24.3895 27.3801 23.6095 26.9001 23.1295L20.3801 16.6095C20.0901 16.3195 20.0901 15.8395 20.3801 15.5495C20.6701 15.2595 21.1501 15.2595 21.4401 15.5495L27.9601 22.0695C28.4701 22.5795 28.7601 23.2695 28.7601 23.9995C28.7601 24.7295 28.4801 25.4195 27.9601 25.9295L21.4401 32.4495C21.2901 32.5895 21.1001 32.6695 20.9101 32.6695Z" fill="#9B9999"/>
</svg>
