<svg width="100" height="30" viewBox="0 0 100 30" fill="none" xmlns="http://www.w3.org/2000/svg">
<path fill-rule="evenodd" clip-rule="evenodd" d="M27.7117 8.84809C27.7004 8.448 27.2534 8.13276 26.8511 8.3731C25.5248 9.16545 24.9057 10.5348 24.6153 11.7151C24.4776 12.2751 24.409 12.8113 24.3765 13.257C24.2794 13.0473 24.2074 12.7753 24.1961 12.4243C24.1832 12.0249 23.7383 11.7128 23.3372 11.9505C21.8491 12.8325 20.8461 14.4632 20.8461 16.2809C20.8461 18.0114 21.7462 19.5269 23.1093 20.4287L24.2044 19.1569C24.3192 19.0236 24.5202 19.0086 24.6534 19.1233C24.7867 19.2381 24.8017 19.4391 24.687 19.5724L23.671 20.7522C24.2971 21.0629 24.9959 21.254 25.7343 21.2951V17.2601C25.7343 17.0843 25.8769 16.9417 26.0527 16.9417C26.2286 16.9417 26.3711 17.0843 26.3711 17.2601V21.2931C27.1467 21.2451 27.878 21.0317 28.5262 20.6881L27.5655 19.5724C27.4508 19.4391 27.4658 19.2381 27.599 19.1233C27.7323 19.0086 27.9333 19.0236 28.0481 19.1569L29.0766 20.3514C30.3759 19.4417 31.2261 17.9629 31.2261 16.2809C31.2261 14.2762 30.2614 13.0546 29.3822 12.0163L29.2659 11.8793C28.4238 10.8873 27.7471 10.0901 27.7117 8.84809Z" fill="#9B9999"/>
<g filter="url(#filter0_d_512_10112)">
<path d="M52.8226 19.0699V20.7638H39.2599V19.0699H44.9811V16.0278H40.6945V8.76247H51.313V16.0278H47.038V19.0699H52.8226ZM42.7456 14.3973H49.2619V10.4276H42.7456V14.3973ZM65.0283 7.66202V11.142H67.0218V12.8647H65.0283V16.3389H62.9427V7.66202H65.0283ZM53.8394 15.5381V8.68757H60.5228V10.3642H55.9078V13.873C58.5985 13.8614 60.0734 13.775 61.727 13.4293L61.9459 15.0598C60.0792 15.4747 58.368 15.5381 55.0781 15.5381H53.8394ZM55.0436 18.73V17.0879H65.0283V22.5153H62.9427V18.73H55.0436ZM71.0405 7.89248V8.9238H76.9979V7.89248H79.0548V12.8589H68.9951V7.89248H71.0405ZM67.2666 15.3134V13.6367H80.7948V15.3134H75.0447V16.241H79.1412V19.9917H70.8791V20.8329H79.5272V22.4001H68.8395V18.5571H77.0901V17.762H68.828V16.241H72.9591V15.3134H67.2666ZM71.0405 11.3206H76.9979V10.4218H71.0405V11.3206Z" fill="#9B9999"/>
</g>
<defs>
<filter id="filter0_d_512_10112" x="35.4361" y="3.83836" width="49.1823" height="22.5008" filterUnits="userSpaceOnUse" color-interpolation-filters="sRGB">
<feFlood flood-opacity="0" result="BackgroundImageFix"/>
<feColorMatrix in="SourceAlpha" type="matrix" values="0 0 0 0 0 0 0 0 0 0 0 0 0 0 0 0 0 0 127 0" result="hardAlpha"/>
<feOffset/>
<feGaussianBlur stdDeviation="1.91187"/>
<feComposite in2="hardAlpha" operator="out"/>
<feColorMatrix type="matrix" values="0 0 0 0 1 0 0 0 0 0.645588 0 0 0 0 0.375349 0 0 0 0.26 0"/>
<feBlend mode="normal" in2="BackgroundImageFix" result="effect1_dropShadow_512_10112"/>
<feBlend mode="normal" in="SourceGraphic" in2="effect1_dropShadow_512_10112" result="shape"/>
</filter>
</defs>
</svg>
