<svg width="200" height="80" viewBox="0 0 200 80" fill="none" xmlns="http://www.w3.org/2000/svg">
<path d="M26.1058 58.9716H19V21.2221H26.1058L37.0754 38.8977L48.0449 21.2221H55.1507V58.9716H48.0449V34.7675L39.9177 47.3803H34.233L26.1058 34.7675V58.9716Z" fill="white"/>
<path d="M58.5454 40.0968C58.5454 28.9052 65.8288 21 76.1323 21C86.4801 21 93.7191 28.9052 93.7191 40.0968C93.7191 51.3329 86.4801 59.2381 76.1323 59.2381C65.8288 59.2381 58.5454 51.3329 58.5454 40.0968ZM76.1323 27.9726C69.9591 27.9726 65.6512 32.991 65.6512 40.0968C65.6512 47.2914 70.0035 52.2655 76.1323 52.2655C82.3498 52.2655 86.6133 47.2914 86.6133 40.0968C86.6133 32.9466 82.3498 27.9726 76.1323 27.9726Z" fill="white"/>
<path d="M104.739 58.9716H97.6335V21.2221H104.739V58.9716Z" fill="white"/>
<path d="M116.045 58.9716H108.939V21.2221H116.045L133.587 46.5364V21.2221H140.693V56.7954L140.782 56.9287L140.693 56.9731V58.9716H133.587L116.045 33.7016V58.9716Z" fill="white"/>
<path d="M159.76 43.4277V36.7216H180.234C180.367 37.8763 180.456 39.031 180.456 40.0968C180.456 51.5993 172.328 59.1936 162.38 59.1936C152.432 59.1936 144.483 51.5549 144.483 40.0968C144.483 29.0384 151.988 21 162.336 21C170.33 21 176.281 25.0858 178.946 31.7919H171.263C169.531 29.527 166.2 28.1502 162.38 28.1502C156.207 28.1502 151.588 32.5469 151.588 40.0968C151.588 47.6911 156.118 52.0434 162.425 52.0434C167.754 52.0434 171.884 48.9791 173.039 43.4277H159.76Z" fill="white"/>
</svg>
