<svg width="172" height="16" viewBox="0 0 172 16" fill="none" xmlns="http://www.w3.org/2000/svg">
<path d="M7.424 8.02829C4 8.02829 2.192 6.81229 2.192 4.66829C2.192 2.54029 4 1.30829 7.424 1.30829C10.864 1.30829 12.704 2.54029 12.704 4.66829C12.704 6.81229 10.864 8.02829 7.424 8.02829ZM7.424 2.62029C5.024 2.62029 3.824 3.37229 3.824 4.66829C3.824 5.98029 5.024 6.71629 7.424 6.71629C9.84 6.71629 11.056 5.98029 11.056 4.66829C11.056 3.37229 9.84 2.62029 7.424 2.62029ZM0.448 9.30829H14.448V10.6843H8.272V15.7403H6.624V10.6843H0.448V9.30829ZM27.707 15.8203H26.075V0.812288H27.707V15.8203ZM15.883 12.9403V7.13229H21.515V4.20429H15.851V2.87629H23.147V8.46029H17.515V11.7083C19.739 11.8843 22.427 11.6283 24.363 10.9403L24.683 12.2523C22.539 13.0523 19.051 13.2763 15.883 12.9403ZM41.4582 9.50029V12.8283H47.6342V14.2043H33.6342V12.8283H39.8102V9.50029H35.6022V2.38029H45.6502V9.50029H41.4582ZM44.0182 3.72429H37.2502V8.14029H44.0182V3.72429ZM60.8133 9.35629H59.1653V0.812288H60.8133V9.35629ZM52.8453 8.86029C50.2053 8.86029 48.8933 7.45229 48.8933 5.27629C48.8933 3.08429 50.2053 1.69229 52.8453 1.69229C55.4853 1.69229 56.7973 3.08429 56.7973 5.29229C56.7973 7.48429 55.4853 8.86029 52.8453 8.86029ZM52.8453 7.54829C54.4133 7.54829 55.1813 6.73229 55.1813 5.29229C55.1813 3.83629 54.4133 3.00429 52.8453 3.00429C51.2773 3.00429 50.5093 3.83629 50.5093 5.29229C50.5093 6.73229 51.2773 7.54829 52.8453 7.54829ZM60.8293 15.6123H51.1173V10.0923H60.8293V15.6123ZM52.7493 11.3883V14.3003H59.2133V11.3883H52.7493ZM75.4963 15.8203H73.8643V0.812288H75.4963V15.8203ZM67.8642 9.72429C65.4482 9.72429 63.8642 8.44429 63.8642 6.17229C63.8642 3.91629 65.4482 2.58829 67.8642 2.58829C70.2642 2.58829 71.8642 3.91629 71.8642 6.17229C71.8642 8.44429 70.2642 9.72429 67.8642 9.72429ZM67.8642 8.36429C69.4162 8.36429 70.2642 7.59629 70.2642 6.17229C70.2642 4.76429 69.4162 3.96429 67.8642 3.96429C66.2962 3.96429 65.4642 4.76429 65.4642 6.17229C65.4642 7.59629 66.2962 8.36429 67.8642 8.36429ZM63.0962 13.1803V11.7883C66.4562 11.9483 69.9122 11.9163 72.8562 11.1483L73.0962 12.4763C70.2002 13.2603 66.3442 13.2923 63.0962 13.1803ZM94.0475 9.91629H92.3995V5.48429H89.1515V4.14029H92.3995V0.812288H94.0475V9.91629ZM85.9355 6.22029C85.1195 7.56429 83.9355 8.63629 82.3195 9.59629L81.3435 8.41229C84.1755 6.79629 85.3115 4.94029 85.5035 1.67629L87.1355 1.86829C87.0715 2.90829 86.9115 3.82029 86.6395 4.65229C87.4875 6.01229 89.0075 7.27629 90.5115 7.98029L89.5835 9.19629C88.2555 8.52429 86.8635 7.42029 85.9355 6.22029ZM88.9755 9.98029C92.3995 9.98029 94.1435 10.9563 94.1435 12.8603C94.1435 14.7963 92.3995 15.7723 88.9755 15.7723C85.5515 15.7723 83.8395 14.7963 83.8395 12.8603C83.8395 10.9563 85.5515 9.98029 88.9755 9.98029ZM88.9755 14.4763C91.3915 14.4763 92.4955 13.9483 92.4955 12.8603C92.4955 11.8203 91.3915 11.2763 88.9755 11.2763C86.5755 11.2763 85.4715 11.8203 85.4715 12.8603C85.4715 13.9483 86.5755 14.4763 88.9755 14.4763ZM107.931 0.812288V4.62029H110.107V5.98029H107.931V9.80429H106.283V0.812288H107.931ZM100.699 6.39629C99.9625 7.69229 98.7625 8.73229 97.0185 9.56429L96.1065 8.36429C99.0985 7.06829 99.7865 5.24429 99.9785 3.27629H96.5705V1.94829H104.747V3.27629H101.611C101.563 3.78829 101.483 4.26829 101.371 4.73229C102.107 6.15629 103.675 7.32429 105.179 7.98029L104.283 9.19629C103.003 8.57229 101.627 7.58029 100.699 6.39629ZM103.083 9.91629C106.395 9.91629 108.091 10.9243 108.091 12.8443C108.091 14.7803 106.395 15.7723 103.083 15.7723C99.7705 15.7723 98.0905 14.7803 98.0905 12.8443C98.0905 10.9243 99.7705 9.91629 103.083 9.91629ZM103.083 14.4763C105.403 14.4763 106.459 13.9323 106.459 12.8443C106.459 11.7723 105.403 11.2283 103.083 11.2283C100.763 11.2283 99.7225 11.7723 99.7225 12.8443C99.7225 13.9323 100.763 14.4763 103.083 14.4763ZM118.549 6.42829V8.01229H124.725V9.34029H110.725V8.01229H116.901V6.42829H112.773V1.34029H122.693V2.65229H114.405V5.11629H122.773V6.42829H118.549ZM117.701 10.4603C121.109 10.4603 122.933 11.3563 122.933 13.1003C122.933 14.8763 121.109 15.7563 117.701 15.7563C114.309 15.7563 112.501 14.8763 112.501 13.1003C112.501 11.3563 114.309 10.4603 117.701 10.4603ZM117.701 14.4923C120.085 14.4923 121.301 14.0283 121.301 13.1003C121.301 12.2043 120.085 11.7403 117.701 11.7403C115.333 11.7403 114.133 12.2043 114.133 13.1003C114.133 14.0283 115.333 14.4923 117.701 14.4923ZM136.304 2.86029V0.812288H137.952V10.0123H136.304V7.10029H133.872V5.77229H136.304V4.18829H133.872V2.86029H136.304ZM126.16 9.19629V4.82829H131.168V3.06829H126.128V1.80429H132.768V6.09229H127.776V8.01229C129.536 8.12429 131.728 7.99629 133.36 7.61229L133.568 8.86029C131.744 9.30829 128.816 9.43629 126.16 9.19629ZM136.304 12.0603H127.92V10.7643H137.952V15.8203H136.304V12.0603ZM155.816 0.812288V5.69229H157.944V7.05229H155.816V12.1083H154.168V0.812288H155.816ZM151.752 7.40429L150.216 7.26029C150.536 6.15629 150.728 4.46029 150.712 3.24429H144.888V1.94829H152.344C152.36 3.82029 152.152 6.04429 151.752 7.40429ZM153.208 8.17229L153.448 9.45229C150.68 10.1083 147 10.1243 143.912 10.0283V8.68429C144.904 8.73229 145.912 8.76429 146.904 8.76429V5.48429H148.52V8.73229C150.168 8.66829 151.752 8.50829 153.208 8.17229ZM146.2 11.1003H147.848V14.1723H156.376V15.4683H146.2V11.1003ZM171.171 15.8203H169.539V0.812288H171.171V15.8203ZM159.347 12.9403V7.13229H164.979V4.20429H159.315V2.87629H166.611V8.46029H160.979V11.7083C163.203 11.8843 165.891 11.6283 167.827 10.9403L168.147 12.2523C166.003 13.0523 162.515 13.2763 159.347 12.9403Z" fill="#F4F6F8"/>
</svg>
