<svg width="353" height="205" viewBox="0 0 353 205" fill="none" xmlns="http://www.w3.org/2000/svg">
<rect width="353" height="205" rx="24" fill="#353538"/>
<path fill-rule="evenodd" clip-rule="evenodd" d="M200.021 129.032C200.21 128.76 200.394 128.485 200.574 128.207C207.981 117.524 208.844 105.204 207.335 95.6318C206.933 93.08 203.639 92.6733 201.995 94.6667C201.924 94.753 201.853 94.838 201.783 94.9216C198.684 85.7007 193.551 77.0044 186.308 75.1392C184.739 74.7351 183.415 76.1042 183.32 77.722C183.117 81.2048 182.546 83.9965 181.688 86.2465C178.903 83.2421 176.917 78.0296 176.585 68.3664C176.529 66.7468 175.202 65.3657 173.629 65.7582C164.104 68.1354 155.954 81.7693 151.49 94.8673C150.97 94.1894 150.439 93.4311 149.897 92.5841C149.024 91.2192 147.175 90.6842 146.236 92.0048C141.215 99.0646 145.488 117.685 150.815 125.391C155.506 134.433 165.262 140.648 176.535 140.648C180.024 140.648 183.367 140.053 186.46 138.963C190.643 137.951 194.384 135.513 197.409 132.276C198.44 131.332 199.331 130.253 200.021 129.032Z" fill="#272727"/>
<path d="M118.5 101.458C117.233 101.458 116.208 100.433 116.208 99.1667C116.208 97.9 117.233 96.875 118.5 96.875C119.767 96.875 120.792 97.9 120.792 99.1667C120.792 100.433 119.767 101.458 118.5 101.458ZM118.5 98.125C117.925 98.125 117.458 98.5917 117.458 99.1667C117.458 99.7417 117.925 100.208 118.5 100.208C119.075 100.208 119.542 99.7417 119.542 99.1667C119.542 98.5917 119.075 98.125 118.5 98.125Z" fill="#F4F6F8"/>
<path d="M123.5 111.458H118.5C113.975 111.458 112.042 109.525 112.042 105V100C112.042 95.475 113.975 93.5417 118.5 93.5417H121.833C122.175 93.5417 122.458 93.825 122.458 94.1667C122.458 94.5083 122.175 94.7917 121.833 94.7917H118.5C114.658 94.7917 113.292 96.1583 113.292 100V105C113.292 108.842 114.658 110.208 118.5 110.208H123.5C127.342 110.208 128.708 108.842 128.708 105V100.833C128.708 100.492 128.992 100.208 129.333 100.208C129.675 100.208 129.958 100.492 129.958 100.833V105C129.958 109.525 128.025 111.458 123.5 111.458Z" fill="#F4F6F8"/>
<path d="M128.708 97.2917H124.125C123.783 97.2917 123.5 97.0083 123.5 96.6667C123.5 96.325 123.783 96.0417 124.125 96.0417H128.708C129.05 96.0417 129.333 96.325 129.333 96.6667C129.333 97.0083 129.05 97.2917 128.708 97.2917Z" fill="#F4F6F8"/>
<path d="M126.417 99.5833C126.075 99.5833 125.792 99.3 125.792 98.9583V94.375C125.792 94.0333 126.075 93.75 126.417 93.75C126.758 93.75 127.042 94.0333 127.042 94.375V98.9583C127.042 99.3 126.758 99.5833 126.417 99.5833Z" fill="#F4F6F8"/>
<path d="M113.225 108.917C113.025 108.917 112.825 108.817 112.708 108.642C112.517 108.358 112.592 107.967 112.875 107.775L116.983 105.017C117.883 104.417 119.125 104.483 119.942 105.175L120.217 105.417C120.633 105.775 121.342 105.775 121.75 105.417L125.217 102.442C126.108 101.683 127.492 101.683 128.383 102.442L129.742 103.608C130 103.833 130.033 104.225 129.808 104.492C129.583 104.75 129.192 104.783 128.925 104.558L127.567 103.392C127.15 103.033 126.442 103.033 126.033 103.392L122.567 106.367C121.683 107.125 120.292 107.125 119.4 106.367L119.125 106.125C118.742 105.8 118.108 105.767 117.683 106.058L113.583 108.817C113.467 108.883 113.342 108.917 113.225 108.917Z" fill="#F4F6F8"/>
<path d="M148.516 98.6562C148.5 101.18 149.766 103.727 151.953 104.781L150.891 106.172C149.359 105.398 148.258 103.906 147.656 102.109C147.039 104.031 145.883 105.625 144.266 106.438L143.203 105.047C145.477 103.969 146.773 101.266 146.781 98.6562V96.4062H148.516V98.6562ZM152.797 109.391V95.2656H154.531V100.797H156.703V102.281H154.531V109.391H152.797ZM162.416 98.1406C162.416 99.8984 163.619 101.617 165.869 102.312L164.979 103.672C163.377 103.156 162.213 102.094 161.565 100.75C160.932 102.211 159.729 103.375 158.057 103.953L157.166 102.578C159.44 101.828 160.651 100 160.666 98.1406V97.7344H157.619V96.3438H165.385V97.7344H162.416V98.1406ZM159.479 109.109V104.594H161.229V107.703H169.213V109.109H159.479ZM167.073 105.531V95.2812H168.823V105.531H167.073ZM178.124 95.8906C179.952 95.8828 181.389 96.9375 181.741 98.4844H184.296V95.2656H186.03V102.844H184.296V99.8906H181.757C181.421 101.477 179.968 102.547 178.124 102.547C175.96 102.547 174.389 101.156 174.389 99.2031C174.389 97.2734 175.96 95.8828 178.124 95.8906ZM176.046 99.2031C176.046 100.336 176.905 101.086 178.124 101.078C179.311 101.086 180.163 100.336 180.171 99.2031C180.163 98.0703 179.311 97.3359 178.124 97.3438C176.905 97.3359 176.046 98.0703 176.046 99.2031ZM176.718 109.219V103.5H178.436V105H184.296V103.5H186.03V109.219H176.718ZM178.436 107.812H184.296V106.344H178.436V107.812ZM200.696 106.312V107.75H187.79V106.312H193.353V104.016H189.321V99.3906H197.446V97.6406H189.29V96.2344H199.165V100.766H191.056V102.594H199.493V104.016H195.071V106.312H200.696ZM212.847 101.891V103.281H202.941V96.5H212.737V97.9062H204.659V101.891H212.847ZM201.378 107.594V106.156H214.284V107.594H201.378ZM226.029 95.2656V100.891H228.201V102.328H226.029V109.391H224.31V95.2656H226.029ZM214.888 98.8281V97.4375H218.232V95.4688H219.966V97.4375H223.216V98.8281H214.888ZM215.544 103.078C215.529 101.125 217.044 99.7422 219.107 99.75C221.138 99.7422 222.646 101.125 222.654 103.078C222.646 105.023 221.138 106.391 219.107 106.391C217.044 106.391 215.529 105.023 215.544 103.078ZM217.201 103.078C217.193 104.227 217.997 104.961 219.107 104.953C220.193 104.961 220.982 104.227 220.997 103.078C220.982 101.93 220.193 101.172 219.107 101.172C217.997 101.172 217.193 101.93 217.201 103.078ZM240.351 95.2656V109.391H238.601V95.2656H240.351ZM228.648 105.5C232.351 103.742 234.054 101.352 234.367 98.1406H229.367V96.7656H236.132C236.132 100.969 234.5 104.539 229.554 106.891L228.648 105.5Z" fill="#F4F6F8"/>
</svg>
