<svg width="32" height="32" viewBox="0 0 32 32" fill="none" xmlns="http://www.w3.org/2000/svg">
<rect width="32" height="32" rx="10.6667" fill="#353538"/>
<path d="M24.3334 23.7083H23.5V18.5C23.5 14.3583 20.1417 11 16 11C11.8584 11 8.50002 14.3583 8.50002 18.5V23.7083H7.66669C7.32502 23.7083 7.04169 23.9917 7.04169 24.3333C7.04169 24.675 7.32502 24.9583 7.66669 24.9583H24.3334C24.675 24.9583 24.9584 24.675 24.9584 24.3333C24.9584 23.9917 24.675 23.7083 24.3334 23.7083Z" fill="#9B9999"/>
<path d="M16 9.12533C15.6583 9.12533 15.375 8.84199 15.375 8.50033V7.66699C15.375 7.32533 15.6583 7.04199 16 7.04199C16.3417 7.04199 16.625 7.32533 16.625 7.66699V8.50033C16.625 8.84199 16.3417 9.12533 16 9.12533Z" fill="#9B9999"/>
<path d="M10.1667 10.7922C10.0084 10.7922 9.85003 10.7339 9.72503 10.6089L8.8917 9.77552C8.65003 9.53385 8.65003 9.13385 8.8917 8.89219C9.13337 8.65052 9.53337 8.65052 9.77503 8.89219L10.6084 9.72552C10.85 9.96719 10.85 10.3672 10.6084 10.6089C10.4834 10.7339 10.325 10.7922 10.1667 10.7922Z" fill="#9B9999"/>
<path d="M21.8334 10.7922C21.675 10.7922 21.5167 10.7339 21.3917 10.6089C21.15 10.3672 21.15 9.96719 21.3917 9.72552L22.225 8.89219C22.4667 8.65052 22.8667 8.65052 23.1084 8.89219C23.35 9.13385 23.35 9.53385 23.1084 9.77552L22.275 10.6089C22.15 10.7339 21.9917 10.7922 21.8334 10.7922Z" fill="#9B9999"/>
</svg>
