<svg width="32" height="32" viewBox="0 0 32 32" fill="none" xmlns="http://www.w3.org/2000/svg">
<rect width="32" height="32" rx="10.6667" fill="#353538"/>
<path d="M16 6C10.49 6 6 10.49 6 16C6 21.51 10.49 26 16 26C21.51 26 26 21.51 26 16C26 10.49 21.51 6 16 6ZM19.36 18.3C19.65 18.59 19.65 19.07 19.36 19.36C19.21 19.51 19.02 19.58 18.83 19.58C18.64 19.58 18.45 19.51 18.3 19.36L16 17.06L13.7 19.36C13.55 19.51 13.36 19.58 13.17 19.58C12.98 19.58 12.79 19.51 12.64 19.36C12.35 19.07 12.35 18.59 12.64 18.3L14.94 16L12.64 13.7C12.35 13.41 12.35 12.93 12.64 12.64C12.93 12.35 13.41 12.35 13.7 12.64L16 14.94L18.3 12.64C18.59 12.35 19.07 12.35 19.36 12.64C19.65 12.93 19.65 13.41 19.36 13.7L17.06 16L19.36 18.3Z" fill="#9B9999"/>
</svg>
