<svg width="393" height="852" viewBox="0 0 393 852" fill="none" xmlns="http://www.w3.org/2000/svg">
<rect width="393" height="852" fill="#1C1B1B"/>
<path d="M25.7539 138.098V140.039H36.418V138.098H39.4258V146.328H22.7461V138.098H25.7539ZM19.8203 150.348V147.859H42.3516V150.348H32.5625V152.18H39.5352V158.168H25.4805V159.891H40.2188V162.215H22.5V156.035H36.5547V154.422H22.4727V152.18H29.5273V150.348H19.8203ZM25.7539 144.059H36.418V142.254H25.7539V144.059ZM62.5936 139.547V142.008H54.3084V149.855C58.1639 149.842 60.8162 149.691 63.8241 149.117L64.1248 151.578C60.7616 152.166 57.8084 152.33 53.242 152.344H51.3006V139.547H62.5936ZM54.2811 162.051V154.285H57.3436V159.59H71.1522V162.051H54.2811ZM61.0897 146.738V144.332H67.4881V137.742H70.5233V155.734H67.4881V146.738H61.0897ZM82.9275 144.742C82.9275 148.789 85.3064 153.055 89.2986 154.723L87.6306 157.129C84.7048 155.857 82.572 153.273 81.4373 150.129C80.3025 153.52 78.1287 156.363 75.2439 157.73L73.4939 155.352C77.3904 153.547 79.824 148.939 79.8377 144.742V142.664H74.3963V140.148H88.3416V142.664H82.9275V144.742ZM91.1033 162.434V137.715H94.1658V162.434H91.1033ZM118.027 137.715V162.434H114.965V137.715H118.027ZM97.5466 155.625C104.027 152.549 107.007 148.365 107.554 142.746H98.8044V140.34H110.644C110.644 147.695 107.787 153.943 99.1325 158.059L97.5466 155.625Z" fill="#F4F6F8"/>
<path d="M32.3281 188.344V189.578H19.5156V188.344H25.1562V185.109H20.9844V178.453H30.7969V185.109H26.625V188.344H32.3281ZM22.4219 183.938H29.3438V179.641H22.4219V183.938ZM44.7131 177.344V185.312H43.2288V177.344H44.7131ZM33.385 181.359C33.3928 179.383 34.9709 178.039 37.1194 178.047C39.26 178.039 40.8381 179.383 40.8381 181.359C40.8381 183.281 39.26 184.641 37.1194 184.641C34.9709 184.641 33.3928 183.281 33.385 181.359ZM34.8381 181.359C34.8303 182.562 35.7913 183.391 37.1194 183.391C38.4319 183.391 39.385 182.562 39.385 181.359C39.385 180.117 38.4319 179.289 37.1194 179.297C35.7913 179.289 34.8303 180.117 34.8381 181.359ZM35.51 191.156V186.016H44.7131V191.156H35.51ZM36.9788 189.953H43.26V187.203H36.9788V189.953ZM58.3325 177.344V187.953H56.8481V186.609H54.0356V185.562H56.8481V177.344H58.3325ZM46.6294 183.734C49.2153 183.711 52.7075 183.688 55.6919 183.312L55.7856 184.375C54.5903 184.578 53.3325 184.703 52.0981 184.789V187.516H50.6138V184.867C49.2544 184.922 47.9497 184.922 46.8169 184.922L46.6294 183.734ZM47.7231 180.344C47.7153 178.859 49.1294 177.875 51.2075 177.875C53.2544 177.875 54.6763 178.859 54.6763 180.344C54.6763 181.836 53.2544 182.781 51.2075 182.781C49.1372 182.781 47.7153 181.836 47.7231 180.344ZM48.5669 191.031V186.922H50.0356V189.828H58.6763V191.031H48.5669ZM49.1294 180.344C49.1216 181.172 49.9653 181.688 51.2075 181.688C52.4028 181.688 53.2622 181.172 53.27 180.344C53.2622 179.508 52.4028 178.969 51.2075 178.984C49.9653 178.969 49.1216 179.508 49.1294 180.344ZM65.9463 177.922V179.828H69.6181V177.922H71.0869V184.031H64.4931V177.922H65.9463ZM65.8994 186.312V185.141H74.9463V188.672H67.3838V190H75.4306V191.188H65.9306V187.578H73.4775V186.312H65.8994ZM65.9463 182.844H69.6181V180.969H65.9463V182.844ZM73.4619 184.531V177.328H74.9463V180.266H76.9775V181.469H74.9463V184.531H73.4619ZM90.3156 183.906V185.125H77.5344V183.906H90.3156ZM79.05 188.766C79.05 187.141 80.8703 186.219 83.9094 186.219C86.925 186.219 88.7297 187.141 88.7375 188.766C88.7297 190.391 86.925 191.305 83.9094 191.297C80.8703 191.305 79.05 190.391 79.05 188.766ZM79.1281 182.688V177.828H88.7375V179.047H80.5969V181.484H88.8312V182.688H79.1281ZM80.55 188.766C80.5422 189.664 81.7687 190.148 83.9094 190.156C86.0187 190.148 87.2531 189.664 87.2531 188.766C87.2531 187.875 86.0187 187.375 83.9094 187.359C81.7687 187.375 80.5422 187.875 80.55 188.766ZM103.169 177.328V191.328H101.747V177.328H103.169ZM91.2787 183.375C91.2787 180.344 92.4662 178.445 94.2944 178.453C95.9975 178.445 97.1459 180.062 97.3178 182.688H98.9037V177.594H100.326V190.641H98.9037V183.891H97.3256C97.1928 186.625 96.0287 188.32 94.2944 188.312C92.4662 188.32 91.2787 186.414 91.2787 183.375ZM92.6537 183.375C92.6537 185.602 93.2866 186.914 94.2944 186.906C95.3256 186.914 95.9662 185.602 95.9662 183.375C95.9662 181.141 95.3256 179.836 94.2944 179.844C93.2866 179.836 92.6537 181.141 92.6537 183.375ZM111.518 177.547V178.766H118.002V177.547H119.486V182.188H110.049V177.547H111.518ZM108.377 184.406V183.203H121.143V184.406H115.486V185.609H119.533V188.875H111.377V190.047H119.924V191.188H109.924V187.812H118.064V186.719H109.908V185.609H114.002V184.406H108.377ZM111.518 181.062H118.002V179.859H111.518V181.062ZM128.34 177.562C131.496 177.555 133.332 178.406 133.34 179.969C133.332 181.539 131.496 182.391 128.34 182.391C125.184 182.391 123.332 181.539 123.34 179.969C123.332 178.406 125.184 177.555 128.34 177.562ZM121.965 184.438V183.25H134.731V184.438H121.965ZM123.496 186.625V185.516H133.121V188.797H124.965V190.047H133.512V191.188H123.512V187.719H131.652V186.625H123.496ZM124.887 179.969C124.879 180.836 126.113 181.281 128.34 181.281C130.582 181.281 131.817 180.836 131.809 179.969C131.817 179.141 130.582 178.656 128.34 178.656C126.113 178.656 124.879 179.141 124.887 179.969ZM146.469 178.422V179.641H141.516V184.328C143.86 184.328 145.423 184.25 147.219 183.906L147.376 185.109C145.423 185.453 143.735 185.547 141.126 185.547H140.048V178.422H146.469ZM141.766 191.109V186.75H143.266V189.906H151.251V191.109H141.766ZM145.594 182.328V181.141H149.407V177.344H150.891V187.547H149.407V182.328H145.594ZM164.495 177.328V191.328H163.011V185.438H160.323V184.203H163.011V182.469H160.323V181.234H163.011V177.328H164.495ZM152.682 187.531C154.8 186.484 156.3 183.789 156.307 181.266V179.953H153.214V178.734H160.886V179.953H157.807V181.266C157.807 183.461 159.307 186.125 161.401 187.172L160.511 188.312C158.979 187.516 157.729 185.852 157.097 183.969C156.487 186.031 155.229 187.797 153.667 188.656L152.682 187.531ZM177.406 178.672V187.875H170.843V178.672H177.406ZM172.312 186.672H175.968V179.844H172.312V186.672ZM180.171 191.359V177.328H181.656V191.359H180.171ZM188.587 179.859C188.595 181.875 189.845 183.805 191.931 184.609L191.119 185.766C189.595 185.148 188.462 183.922 187.869 182.406C187.267 184.039 186.08 185.336 184.447 185.984L183.65 184.797C185.806 184 187.111 182.008 187.119 179.859V178.125H188.587V179.859ZM186.181 191.031V186.719H187.681V189.828H195.634V191.031H186.181ZM191.119 183.359V182.156H193.837V180.531H191.119V179.328H193.837V177.344H195.322V187.766H193.837V183.359H191.119ZM212.514 177.344V187.516H211.029V177.344H212.514ZM201.186 181.75C201.193 179.727 202.803 178.289 204.92 178.281C207.029 178.289 208.639 179.727 208.639 181.75C208.639 183.805 207.029 185.234 204.92 185.234C202.803 185.234 201.193 183.805 201.186 181.75ZM202.639 181.75C202.631 183.07 203.615 183.938 204.92 183.938C206.201 183.938 207.186 183.07 207.186 181.75C207.186 180.461 206.201 179.578 204.92 179.578C203.615 179.578 202.631 180.461 202.639 181.75ZM203.357 191.031V186.484H204.857V189.828H212.936V191.031H203.357ZM227.258 183.922V185.125H214.492V183.922H227.258ZM215.164 182.016C217.703 181.742 219.711 180.602 219.875 179.234H215.664V178.016H226.117V179.234H221.86C222.032 180.594 224.008 181.742 226.602 182.016L226.071 183.188C223.641 182.906 221.633 181.883 220.875 180.406C220.102 181.883 218.11 182.906 215.68 183.188L215.164 182.016ZM216.008 188.766C216.008 187.141 217.828 186.203 220.867 186.203C223.883 186.203 225.688 187.141 225.696 188.766C225.688 190.391 223.883 191.305 220.867 191.297C217.828 191.305 216.008 190.391 216.008 188.766ZM217.508 188.766C217.5 189.648 218.727 190.133 220.867 190.125C222.977 190.133 224.211 189.648 224.211 188.766C224.211 187.859 222.977 187.375 220.867 187.359C218.727 187.375 217.5 187.859 217.508 188.766ZM234.456 177.562C237.612 177.555 239.448 178.406 239.456 179.969C239.448 181.539 237.612 182.391 234.456 182.391C231.299 182.391 229.448 181.539 229.456 179.969C229.448 178.406 231.299 177.555 234.456 177.562ZM228.081 184.438V183.25H240.846V184.438H228.081ZM229.612 186.625V185.516H239.237V188.797H231.081V190.047H239.628V191.188H229.628V187.719H237.768V186.625H229.612ZM231.003 179.969C230.995 180.836 232.229 181.281 234.456 181.281C236.698 181.281 237.932 180.836 237.924 179.969C237.932 179.141 236.698 178.656 234.456 178.656C232.229 178.656 230.995 179.141 231.003 179.969ZM258.101 184.234V185.438H245.335V184.234H250.976V182.703H246.929V177.891H256.538V179.078H248.413V181.484H256.679V182.703H252.46V184.234H258.101ZM246.757 187.875V186.672H256.554V191.406H255.085V187.875H246.757ZM270.579 177.328V191.359H269.111V185.5H266.376V184.266H269.111V181.672H266.454V180.453H269.111V177.328H270.579ZM259.408 179.766V178.562H265.611V183.672H260.923V186.891C262.9 186.883 264.572 186.789 266.564 186.5L266.689 187.719C264.501 188.062 262.712 188.125 260.501 188.125H259.439V182.5H264.158V179.766H259.408ZM279.433 179.641V180.844H272.48V179.641H275.23V177.734H276.699V179.641H279.433ZM272.933 184.906C272.925 183.023 274.207 181.688 275.964 181.688C277.738 181.688 279.003 183.023 279.011 184.906C279.003 186.82 277.738 188.164 275.964 188.156C274.207 188.164 272.925 186.82 272.933 184.906ZM274.246 184.906C274.238 186.094 274.957 186.891 275.964 186.891C276.972 186.891 277.699 186.094 277.699 184.906C277.699 183.742 276.972 182.93 275.964 182.922C274.957 182.93 274.238 183.742 274.246 184.906ZM280.074 190.672V177.641H281.48V183.156H283.089V177.328H284.496V191.328H283.089V184.375H281.48V190.672H280.074ZM298.912 188.344V189.578H286.099V188.344H289.162V184.688C288.013 184.055 287.31 183.055 287.318 181.797C287.31 179.594 289.474 178.148 292.474 178.141C295.482 178.148 297.646 179.594 297.646 181.797C297.646 183.031 296.974 184.023 295.849 184.656V188.344H298.912ZM288.756 181.797C288.756 183.297 290.279 184.273 292.474 184.281C294.654 184.273 296.201 183.297 296.209 181.797C296.201 180.289 294.654 179.328 292.474 179.328C290.279 179.328 288.756 180.289 288.756 181.797ZM290.631 188.344H294.349V185.234C293.779 185.367 293.146 185.438 292.474 185.438C291.818 185.438 291.193 185.367 290.631 185.234V188.344Z" fill="#9B9999"/>
<rect x="20" y="218" width="353" height="40" rx="20" fill="#272727"/>
<path d="M20 238C20 226.954 28.9543 218 40 218H162C173.046 218 182 226.954 182 238C182 249.046 173.046 258 162 258H40C28.9543 258 20 249.046 20 238Z" fill="#FF5B44"/>
<path d="M40.416 242.137C38.3037 242.137 36.793 240.988 36.752 239.32H38.543C38.5908 240.113 39.3838 240.64 40.416 240.633C41.5029 240.64 42.2891 240.038 42.2891 239.156C42.2891 238.268 41.5234 237.632 40.2383 237.625H39.3496V236.258H40.2383C41.291 236.258 42.0225 235.67 42.0156 234.809C42.0225 233.975 41.3936 233.414 40.4297 233.414C39.5 233.414 38.7002 233.934 38.666 234.768H36.957C36.998 233.106 38.5088 231.965 40.4434 231.965C42.4531 231.965 43.752 233.195 43.7383 234.713C43.752 235.82 43.0137 236.62 41.9336 236.846V236.928C43.3281 237.112 44.1211 238.008 44.1074 239.252C44.1211 240.927 42.5557 242.137 40.416 242.137ZM49.5029 231.637L46.3173 243.49H44.7861L47.9853 231.637H49.5029ZM53.7773 231.965C55.7118 231.979 57.6396 233.134 57.6464 236.75C57.6464 240.161 56.1015 242.137 53.6679 242.137C51.7607 242.137 50.4413 240.947 50.2226 239.307H51.9862C52.164 240.093 52.7724 240.592 53.6679 240.592C55.1034 240.592 55.9101 239.327 55.9237 237.201H55.8144C55.3154 238.062 54.3583 238.575 53.2714 238.568C51.5009 238.575 50.1337 237.229 50.1269 235.355C50.1269 233.421 51.5829 231.951 53.7773 231.965ZM51.8632 235.314C51.8632 236.381 52.6562 237.215 53.7636 237.215C54.8642 237.215 55.7118 236.326 55.705 235.301C55.705 234.296 54.8984 233.407 53.7909 233.4C52.6767 233.407 51.8495 234.255 51.8632 235.314ZM68.8524 230.857V238.131H67.3348V236.422H64.8466V237.379H59.036V231.787H64.8466V232.744H67.3348V230.857H68.8524ZM60.4716 240.838C60.4579 239.334 62.0643 238.452 64.6688 238.459C67.287 238.452 68.8866 239.334 68.8934 240.838C68.8866 242.342 67.287 243.203 64.6688 243.203C62.0643 243.203 60.4579 242.342 60.4716 240.838ZM60.5536 236.162H63.3427V232.99H60.5536V236.162ZM61.9755 240.838C61.9686 241.604 62.953 242.027 64.6688 242.027C66.3983 242.027 67.3759 241.604 67.3759 240.838C67.3759 240.038 66.3983 239.628 64.6688 239.621C62.953 239.628 61.9686 240.038 61.9755 240.838ZM64.8466 235.191H67.3348V233.947H64.8466V235.191ZM83.7996 230.871V239.799H82.2684V230.871H83.7996ZM73.7234 234.768C73.7234 232.97 75.1795 231.685 77.0594 231.678C78.9393 231.685 80.3885 232.97 80.3816 234.768C80.3885 236.593 78.9393 237.871 77.0594 237.871C75.1795 237.871 73.7234 236.593 73.7234 234.768ZM75.2137 234.768C75.2068 235.861 75.9998 236.545 77.0594 236.545C78.0916 236.545 78.8914 235.861 78.8914 234.768C78.8914 233.701 78.0916 233.004 77.0594 233.004C75.9998 233.004 75.2068 233.701 75.2137 234.768ZM75.6238 242.971V238.896H77.1551V241.74H84.1414V242.971H75.6238ZM96.6599 236.613V237.844H85.3943V236.613H96.6599ZM85.9412 234.863C88.2312 234.638 89.7214 233.722 89.9539 232.689H86.4197V231.445H95.6482V232.689H92.0798C92.3054 233.708 93.782 234.638 96.1267 234.863L95.5935 236.066C93.3445 235.834 91.6834 234.938 91.0134 233.688C90.3435 234.938 88.7029 235.834 86.4607 236.066L85.9412 234.863ZM86.7068 240.934C86.7068 239.498 88.3269 238.664 91.0134 238.664C93.6795 238.664 95.2859 239.498 95.2927 240.934C95.2859 242.39 93.6795 243.203 91.0134 243.203C88.3269 243.203 86.7068 242.39 86.7068 240.934ZM88.2517 240.934C88.2449 241.651 89.2156 242.007 91.0134 242.014C92.7839 242.007 93.7615 241.651 93.7752 240.934C93.7615 240.216 92.7839 239.854 91.0134 239.854C89.2156 239.854 88.2449 240.216 88.2517 240.934ZM101.809 232.635C101.802 234.316 102.787 235.854 104.721 236.463L103.901 237.652C102.554 237.174 101.611 236.271 101.085 235.103C100.538 236.449 99.5056 237.509 98.0085 238.035L97.2019 236.805C99.2458 236.135 100.271 234.487 100.278 232.703V231.527H101.809V232.635ZM99.2527 240.838C99.239 239.334 100.845 238.452 103.45 238.459C106.068 238.452 107.668 239.334 107.675 240.838C107.668 242.342 106.068 243.203 103.45 243.203C100.845 243.203 99.239 242.342 99.2527 240.838ZM100.757 240.838C100.75 241.59 101.734 242.007 103.45 242.014C105.179 242.007 106.157 241.59 106.157 240.838C106.157 240.059 105.179 239.642 103.45 239.635C101.734 239.642 100.75 240.059 100.757 240.838ZM103.655 234.494V233.25H106.116V230.857H107.634V238.131H106.116V234.494H103.655ZM114.738 238.582C117.424 238.589 119.12 239.437 119.127 240.906C119.12 242.342 117.424 243.203 114.738 243.203C112.079 243.203 110.363 242.342 110.363 240.906C110.363 239.437 112.079 238.589 114.738 238.582ZM109.201 237.693V236.463H113.549V234.221H115.052V236.463H120.412V237.693H109.201ZM110.486 232.648V231.445H119.045V232.471C119.051 233.448 119.051 234.487 118.703 235.752L117.199 235.615C117.507 234.419 117.527 233.544 117.527 232.648H110.486ZM111.894 240.906C111.881 241.631 112.954 242.027 114.738 242.027C116.529 242.027 117.609 241.631 117.623 240.906C117.609 240.154 116.529 239.73 114.738 239.73C112.954 239.73 111.881 240.154 111.894 240.906Z" fill="#F4F6F8"/>
<circle cx="73" cy="429" r="47" fill="#272727"/>
<g opacity="0.6">
<path opacity="0.4" d="M73 449.02C84.0457 449.02 93 440.066 93 429.02C93 417.974 84.0457 409.02 73 409.02C61.9543 409.02 53 417.974 53 429.02C53 440.066 61.9543 449.02 73 449.02Z" fill="#656569"/>
<path d="M73 418.88C68.86 418.88 65.5 422.24 65.5 426.38C65.5 430.44 68.68 433.74 72.9 433.86C72.96 433.86 73.04 433.86 73.08 433.86C73.12 433.86 73.18 433.86 73.22 433.86C73.24 433.86 73.26 433.86 73.26 433.86C77.3 433.72 80.48 430.44 80.5 426.38C80.5 422.24 77.14 418.88 73 418.88Z" fill="#656569"/>
<path d="M86.5599 443.72C82.9999 447 78.2399 449.02 72.9999 449.02C67.7599 449.02 62.9999 447 59.4399 443.72C59.9199 441.9 61.2199 440.24 63.1199 438.96C68.5799 435.32 77.4599 435.32 82.8799 438.96C84.7999 440.24 86.0799 441.9 86.5599 443.72Z" fill="#656569"/>
</g>
<path d="M70.9481 490.734V495.578H61.3231V490.734H70.9481ZM59.7137 497.969V496.594H72.5731V497.969H69.2606V499.711C70.4872 500.133 71.1669 500.852 71.1669 501.828C71.1669 503.469 69.2919 504.367 66.1044 504.359C62.9325 504.367 61.0497 503.469 61.0419 501.828C61.0497 500.844 61.7372 500.117 62.9794 499.703V497.969H59.7137ZM62.9169 501.828C62.9169 502.594 63.9872 502.992 66.1044 502.984C68.2216 502.992 69.3075 502.594 69.3075 501.828C69.3075 501.047 68.2216 500.664 66.1044 500.672C63.9872 500.664 62.9169 501.047 62.9169 501.828ZM63.0731 494.203H69.1669V492.109H63.0731V494.203ZM64.7606 499.344C65.1747 499.305 65.6278 499.281 66.1044 499.281C66.5966 499.281 67.0653 499.305 67.495 499.352V497.969H64.7606V499.344ZM84.5362 490.734V495.578H74.9112V490.734H84.5362ZM73.3019 497.969V496.594H86.1612V497.969H82.8487V499.711C84.0753 500.133 84.755 500.852 84.755 501.828C84.755 503.469 82.88 504.367 79.6925 504.359C76.5206 504.367 74.6378 503.469 74.63 501.828C74.6378 500.844 75.3253 500.117 76.5675 499.703V497.969H73.3019ZM76.505 501.828C76.505 502.594 77.5753 502.992 79.6925 502.984C81.8097 502.992 82.8956 502.594 82.8956 501.828C82.8956 501.047 81.8097 500.664 79.6925 500.672C77.5753 500.664 76.505 501.047 76.505 501.828ZM76.6612 494.203H82.755V492.109H76.6612V494.203ZM78.3487 499.344C78.7628 499.305 79.2159 499.281 79.6925 499.281C80.1847 499.281 80.6534 499.305 81.0831 499.352V497.969H78.3487V499.344Z" fill="#656569"/>
<path d="M78.3721 426.629V427.873H76.54V434.189H75.0225V421.857H76.54V426.629H78.3721ZM67.2979 431.141V423.061H68.8018V429.883C70.4492 429.855 72.1992 429.712 74.0654 429.322L74.2295 430.607C72.1445 431.024 70.1689 431.134 68.3369 431.141H67.2979Z" fill="#E8EBEF"/>
<circle cx="196" cy="429" r="47" fill="#272727"/>
<g opacity="0.6">
<path opacity="0.4" d="M196 449.02C207.046 449.02 216 440.066 216 429.02C216 417.974 207.046 409.02 196 409.02C184.954 409.02 176 417.974 176 429.02C176 440.066 184.954 449.02 196 449.02Z" fill="#656569"/>
<path d="M196 418.88C191.86 418.88 188.5 422.24 188.5 426.38C188.5 430.44 191.68 433.74 195.9 433.86C195.96 433.86 196.04 433.86 196.08 433.86C196.12 433.86 196.18 433.86 196.22 433.86C196.24 433.86 196.26 433.86 196.26 433.86C200.3 433.72 203.48 430.44 203.5 426.38C203.5 422.24 200.14 418.88 196 418.88Z" fill="#656569"/>
<path d="M209.56 443.72C206 447 201.24 449.02 196 449.02C190.76 449.02 186 447 182.44 443.72C182.92 441.9 184.22 440.24 186.12 438.96C191.58 435.32 200.46 435.32 205.88 438.96C207.8 440.24 209.08 441.9 209.56 443.72Z" fill="#656569"/>
</g>
<path d="M166.378 490.719C168.519 490.727 170.113 492.047 170.128 493.906C170.113 495.773 168.519 497.086 166.378 497.094C164.222 497.086 162.628 495.773 162.628 493.906C162.628 492.047 164.222 490.727 166.378 490.719ZM164.316 493.906C164.316 495 165.191 495.688 166.378 495.688C167.566 495.688 168.433 495 168.441 493.906C168.433 492.836 167.566 492.148 166.378 492.156C165.191 492.148 164.316 492.836 164.316 493.906ZM164.769 499.375V498.016H174.144V501.703H166.503V502.844H174.566V504.219H164.8V500.422H172.41V499.375H164.769ZM172.394 497.406V490.266H174.144V497.406H172.394ZM187.717 490.266V504.406H185.967V490.266H187.717ZM176.42 496.281C176.412 493.234 177.967 491.297 180.107 491.297C182.224 491.297 183.787 493.234 183.795 496.281C183.787 499.352 182.224 501.281 180.107 501.281C177.967 501.281 176.412 499.352 176.42 496.281ZM178.092 496.281C178.092 498.453 178.912 499.711 180.107 499.719C181.295 499.711 182.107 498.453 182.107 496.281C182.107 494.125 181.295 492.859 180.107 492.859C178.912 492.859 178.092 494.125 178.092 496.281ZM194.617 492.219C194.602 494.07 195.75 495.844 197.945 496.562L197.008 497.922C195.508 497.383 194.422 496.336 193.797 495.016C193.18 496.531 192.016 497.727 190.336 498.328L189.414 496.953C191.703 496.164 192.867 494.281 192.867 492.266V491H194.617V492.219ZM191.57 504.219V499.047H200.695V504.219H191.57ZM193.289 502.812H198.977V500.438H193.289V502.812ZM198.961 498.469V490.266H200.695V493.594H202.664V495.016H200.695V498.469H198.961ZM208.19 493.656C208.174 496.18 209.44 498.727 211.627 499.781L210.565 501.172C209.033 500.398 207.932 498.906 207.33 497.109C206.713 499.031 205.557 500.625 203.94 501.438L202.877 500.047C205.151 498.969 206.447 496.266 206.455 493.656V491.406H208.19V493.656ZM212.471 504.391V490.266H214.205V495.797H216.377V497.281H214.205V504.391H212.471ZM223.153 491.062C226.184 491.07 228.426 492.578 228.418 494.875C228.426 496.992 226.606 498.406 224.012 498.664V501.25H229.637V502.672H216.731V501.25H222.293V498.664C219.731 498.406 217.911 496.992 217.918 494.875C217.911 492.578 220.145 491.07 223.153 491.062ZM219.622 494.875C219.614 496.398 221.09 497.312 223.153 497.312C225.247 497.312 226.715 496.398 226.715 494.875C226.715 493.398 225.247 492.461 223.153 492.469C221.09 492.461 219.614 493.398 219.622 494.875ZM175.253 515.938V517.328H172.035V518.797H173.675V523.391H171.941V520.156H163.8V518.797H165.55V517.328H162.378V515.938H175.253ZM163.707 512.312C163.707 510.609 165.707 509.562 168.8 509.562C171.902 509.562 173.886 510.609 173.894 512.312C173.886 514.039 171.902 515.078 168.8 515.078C165.707 515.078 163.707 514.039 163.707 512.312ZM165.519 512.312C165.503 513.234 166.738 513.727 168.8 513.734C170.863 513.727 172.097 513.234 172.097 512.312C172.097 511.43 170.863 510.922 168.8 510.922C166.738 510.922 165.503 511.43 165.519 512.312ZM167.285 518.797H170.316V517.328H167.285V518.797ZM187.732 509.266V516.703H185.982V509.266H187.732ZM176.138 515.297C178.209 514.758 179.427 513.445 179.576 511.984H176.576V510.609H179.592V509.188H181.342V510.609H184.342V511.984H181.342C181.506 513.352 182.732 514.641 184.842 515.125L184.06 516.438C182.357 516.039 181.138 515.109 180.49 513.898C179.849 515.195 178.623 516.195 176.904 516.656L176.138 515.297ZM178.357 518.594V517.266H187.732V520.812H180.092V521.922H188.154V523.266H178.388V519.594H185.998V518.594H178.357ZM197.508 510.172V511.516H196.273V514.617C196.891 514.578 197.492 514.523 198.07 514.453L198.148 515.734C195.344 516.156 192.125 516.188 189.711 516.188L189.523 514.812C190.031 514.812 190.578 514.812 191.148 514.805V511.516H189.898V510.172H197.508ZM191.461 518.5V517.141H200.695V520.781H193.195V521.891H201.133V523.266H191.477V519.531H198.961V518.5H191.461ZM192.82 514.781C193.398 514.766 193.992 514.742 194.586 514.719V511.516H192.82V514.781ZM198.961 516.547V509.266H200.695V512.156H202.664V513.594H200.695V516.547H198.961ZM214.44 510.125V511.391C214.432 512.711 214.432 514.156 214.065 516.156H216.018V517.562H210.408V523.406H208.658V517.562H203.143V516.156H212.299C212.69 514.234 212.705 512.789 212.705 511.531H204.658V510.125H214.44ZM221.997 511.031C221.989 512.789 223.184 514.484 225.418 515.141L224.59 516.5C222.942 515.992 221.762 514.945 221.122 513.609C220.473 515.055 219.27 516.203 217.575 516.734L216.731 515.375C219.012 514.664 220.208 512.859 220.2 511.031V509.703H221.997V511.031ZM219.153 523.219V517.5H220.872V518.953H226.762V517.5H228.497V523.219H219.153ZM220.872 521.812H226.762V520.312H220.872V521.812ZM226.747 516.844V509.266H228.497V516.844H226.747Z" fill="#FF5B44"/>
<path opacity="0.2" d="M218.889 433.105C218.556 443.713 209.738 452.04 199.195 451.704C188.652 451.368 180.376 442.497 180.709 431.889C181.043 421.282 190.194 402.34 200.737 402.676C211.281 403.012 219.223 422.498 218.889 433.105Z" fill="#F94B43"/>
<path opacity="0.2" d="M214.23 420.976C220.001 429.86 217.52 441.768 208.69 447.574C199.86 453.38 188.024 450.884 182.254 442C176.483 433.116 173.189 412.318 182.019 406.512C190.85 400.707 208.46 412.092 214.23 420.976Z" fill="#F94B43"/>
<path opacity="0.2" d="M207.912 419.902C215.451 427.325 215.581 439.491 208.204 447.077C200.826 454.662 188.733 454.793 181.194 447.37C173.655 439.947 165.981 420.353 173.359 412.768C180.736 405.183 200.373 412.479 207.912 419.902Z" fill="#F94B43"/>
<path d="M217.07 444.397C211.759 453.566 200.066 456.669 190.952 451.325C181.838 445.982 178.755 434.217 184.065 425.047C189.376 415.878 206.383 403.6 215.498 408.943C224.612 414.286 222.381 435.227 217.07 444.397Z" fill="#F94B43"/>
<path d="M209.799 446.326C205.967 452.943 197.529 455.181 190.952 451.325C184.375 447.47 182.15 438.98 185.983 432.363C189.815 425.747 202.087 416.887 208.664 420.743C215.241 424.598 213.631 439.709 209.799 446.326Z" fill="url(#paint0_radial_1_1071)"/>
<circle cx="319" cy="429" r="47" fill="#272727"/>
<g opacity="0.6">
<path opacity="0.4" d="M319 449.02C330.046 449.02 339 440.066 339 429.02C339 417.974 330.046 409.02 319 409.02C307.954 409.02 299 417.974 299 429.02C299 440.066 307.954 449.02 319 449.02Z" fill="#656569"/>
<path d="M319 418.88C314.86 418.88 311.5 422.24 311.5 426.38C311.5 430.44 314.68 433.74 318.9 433.86C318.96 433.86 319.04 433.86 319.08 433.86C319.12 433.86 319.18 433.86 319.22 433.86C319.24 433.86 319.26 433.86 319.26 433.86C323.3 433.72 326.48 430.44 326.5 426.38C326.5 422.24 323.14 418.88 319 418.88Z" fill="#656569"/>
<path d="M332.56 443.72C329 447 324.24 449.02 319 449.02C313.76 449.02 309 447 305.44 443.72C305.92 441.9 307.22 440.24 309.12 438.96C314.58 435.32 323.46 435.32 328.88 438.96C330.8 440.24 332.08 441.9 332.56 443.72Z" fill="#656569"/>
</g>
<path d="M296.485 494.562C296.485 496.719 297.368 498.938 299.376 499.984L298.391 501.266C297.079 500.578 296.188 499.344 295.68 497.867C295.18 499.461 294.29 500.828 292.969 501.578L291.969 500.297C293.946 499.148 294.837 496.797 294.844 494.562V494.172H292.376V492.75H294.844V490.766H296.485V492.75H298.923V494.172H296.485V494.562ZM299.673 503.703V490.516H301.313V495.797H302.766V490.266H304.423V504.391H302.766V497.234H301.313V503.703H299.673ZM310.073 494.562C310.073 496.719 310.956 498.938 312.964 499.984L311.979 501.266C310.667 500.578 309.776 499.344 309.268 497.867C308.768 499.461 307.878 500.828 306.558 501.578L305.558 500.297C307.534 499.148 308.425 496.797 308.433 494.562V494.172H305.964V492.75H308.433V490.766H310.073V492.75H312.511V494.172H310.073V494.562ZM313.261 503.703V490.516H314.901V495.797H316.354V490.266H318.011V504.391H316.354V497.234H314.901V503.703H313.261ZM323.661 494.562C323.661 496.719 324.544 498.938 326.552 499.984L325.568 501.266C324.255 500.578 323.364 499.344 322.857 497.867C322.357 499.461 321.466 500.828 320.146 501.578L319.146 500.297C321.122 499.148 322.013 496.797 322.021 494.562V494.172H319.552V492.75H322.021V490.766H323.661V492.75H326.099V494.172H323.661V494.562ZM326.849 503.703V490.516H328.489V495.797H329.943V490.266H331.599V504.391H329.943V497.234H328.489V503.703H326.849ZM344.702 490.266V504.406H342.984V490.266H344.702ZM333.702 492.906V491.5H340.359V496.797H335.499V499.641C337.726 499.625 339.64 499.508 341.843 499.141L341.999 500.562C339.601 500.977 337.492 501.07 334.952 501.062H333.718V495.422H338.593V492.906H333.702Z" fill="#E8EBEF"/>
<circle cx="73" cy="609" r="47" fill="#272727"/>
<g opacity="0.6">
<path opacity="0.4" d="M73 629.02C84.0457 629.02 93 620.066 93 609.02C93 597.974 84.0457 589.02 73 589.02C61.9543 589.02 53 597.974 53 609.02C53 620.066 61.9543 629.02 73 629.02Z" fill="#656569"/>
<path d="M73 598.88C68.86 598.88 65.5 602.24 65.5 606.38C65.5 610.44 68.68 613.74 72.9 613.86C72.96 613.86 73.04 613.86 73.08 613.86C73.12 613.86 73.18 613.86 73.22 613.86C73.24 613.86 73.26 613.86 73.26 613.86C77.3 613.72 80.48 610.44 80.5 606.38C80.5 602.24 77.14 598.88 73 598.88Z" fill="#656569"/>
<path d="M86.5599 623.72C82.9999 627 78.2399 629.02 72.9999 629.02C67.7599 629.02 62.9999 627 59.4399 623.72C59.9199 621.9 61.2199 620.24 63.1199 618.96C68.5799 615.32 77.4599 615.32 82.8799 618.96C84.7999 620.24 86.0799 621.9 86.5599 623.72Z" fill="#656569"/>
</g>
<path d="M64.7947 670.281V681.031H63.0603V678.25H60.9666V676.859H63.0603V675.281H60.9666V673.875H63.0603V670.281H64.7947ZM52.9978 673.234V671.844H56.1541V670.266H57.8884V671.844H60.8884V673.234H52.9978ZM53.7322 676.562C53.7244 674.945 55.0916 673.812 56.9978 673.812C58.9197 673.812 60.3025 674.945 60.3103 676.562C60.3025 678.188 58.9197 679.305 56.9978 679.312C55.0916 679.305 53.7244 678.188 53.7322 676.562ZM55.3572 676.562C55.3494 677.445 56.0291 677.969 56.9978 677.969C57.9744 677.969 58.6619 677.445 58.6697 676.562C58.6619 675.703 57.9744 675.18 56.9978 675.172C56.0291 675.18 55.3494 675.703 55.3572 676.562ZM55.4822 684.109V680.109H57.2478V682.703H65.1072V684.109H55.4822ZM71.6797 672.5C71.6797 674.312 72.8125 676.047 74.9922 676.75L74.0547 678.141C72.5156 677.602 71.4297 676.531 70.8281 675.172C70.2031 676.656 69.0547 677.812 67.4297 678.406L66.4922 677.016C68.7891 676.258 69.9297 674.406 69.9297 672.391V671H71.6797V672.5ZM68.7578 680.719V679.344H78.3828V684.391H76.6484V680.719H68.7578ZM73.8359 674.438V673.016H76.6484V670.266H78.3828V678.656H76.6484V674.438H73.8359ZM91.4709 670.891V672.109C91.4788 673.391 91.4788 674.836 91.0647 676.812H93.0178V678.203H87.5334V681.031H85.7991V678.203H80.1428V676.812H89.3147C89.4631 676.117 89.5569 675.492 89.6194 674.922L81.5803 675.25L81.3772 673.828L89.7131 673.625C89.7366 673.156 89.7366 672.719 89.7366 672.297H81.7366V670.891H91.4709ZM81.6897 684.109V679.688H83.4241V682.703H91.7209V684.109H81.6897Z" fill="#E8EBEF"/>
<circle cx="196" cy="609" r="47" fill="#272727"/>
<g opacity="0.6">
<path opacity="0.4" d="M196 629.02C207.046 629.02 216 620.066 216 609.02C216 597.974 207.046 589.02 196 589.02C184.954 589.02 176 597.974 176 609.02C176 620.066 184.954 629.02 196 629.02Z" fill="#656569"/>
<path d="M196 598.88C191.86 598.88 188.5 602.24 188.5 606.38C188.5 610.44 191.68 613.74 195.9 613.86C195.96 613.86 196.04 613.86 196.08 613.86C196.12 613.86 196.18 613.86 196.22 613.86C196.24 613.86 196.26 613.86 196.26 613.86C200.3 613.72 203.48 610.44 203.5 606.38C203.5 602.24 200.14 598.88 196 598.88Z" fill="#656569"/>
<path d="M209.56 623.72C206 627 201.24 629.02 196 629.02C190.76 629.02 186 627 182.44 623.72C182.92 621.9 184.22 620.24 186.12 618.96C191.58 615.32 200.46 615.32 205.88 618.96C207.8 620.24 209.08 621.9 209.56 623.72Z" fill="#656569"/>
</g>
<path d="M186.62 671.297C187.893 671.297 188.948 672.008 189.581 673.25H192.886V670.266H194.604V684.406H192.886V679.062H189.706C189.089 680.469 187.979 681.281 186.62 681.281C184.495 681.281 182.987 679.352 182.995 676.281C182.987 673.234 184.495 671.297 186.62 671.297ZM184.667 676.281C184.659 678.453 185.456 679.711 186.62 679.719C187.792 679.711 188.581 678.453 188.589 676.281C188.581 674.125 187.792 672.859 186.62 672.859C185.456 672.859 184.659 674.125 184.667 676.281ZM190.073 674.672C190.175 675.164 190.229 675.703 190.229 676.281C190.229 676.766 190.19 677.227 190.112 677.656H192.886V674.672H190.073ZM208.099 670.266V684.406H206.349V670.266H208.099ZM197.099 681.078V671.422H198.833V674.953H202.255V671.422H203.974V681.078H197.099ZM198.833 679.656H202.255V676.312H198.833V679.656Z" fill="#E8EBEF"/>
<circle cx="319" cy="609" r="47" fill="#272727"/>
<g opacity="0.6">
<path opacity="0.4" d="M319 629.02C330.046 629.02 339 620.066 339 609.02C339 597.974 330.046 589.02 319 589.02C307.954 589.02 299 597.974 299 609.02C299 620.066 307.954 629.02 319 629.02Z" fill="#656569"/>
<path d="M319 598.88C314.86 598.88 311.5 602.24 311.5 606.38C311.5 610.44 314.68 613.74 318.9 613.86C318.96 613.86 319.04 613.86 319.08 613.86C319.12 613.86 319.18 613.86 319.22 613.86C319.24 613.86 319.26 613.86 319.26 613.86C323.3 613.72 326.48 610.44 326.5 606.38C326.5 602.24 323.14 598.88 319 598.88Z" fill="#656569"/>
<path d="M332.56 623.72C329 627 324.24 629.02 319 629.02C313.76 629.02 309 627 305.44 623.72C305.92 621.9 307.22 620.24 309.12 618.96C314.58 615.32 323.46 615.32 328.88 618.96C330.8 620.24 332.08 621.9 332.56 623.72Z" fill="#656569"/>
</g>
<path d="M312.182 671.062C315.159 671.062 317.456 672.648 317.448 675.047C317.456 677.477 315.159 679.062 312.182 679.062C309.222 679.062 306.94 677.477 306.948 675.047C306.94 672.648 309.222 671.062 312.182 671.062ZM305.761 682.609V681.188H318.667V682.609H305.761ZM308.62 675.047C308.612 676.648 310.128 677.633 312.182 677.641C314.245 677.633 315.745 676.648 315.745 675.047C315.745 673.484 314.245 672.453 312.182 672.469C310.128 672.453 308.612 673.484 308.62 675.047ZM332.427 672.188V673.609H330.489V675.188H332.427V676.641H330.489V678.562H328.755V670.266H330.489V672.188H332.427ZM319.958 677.562V671.094H321.708V676.133C323.513 676.102 325.427 675.953 327.489 675.547L327.692 676.953C325.349 677.414 323.177 677.57 321.13 677.562H319.958ZM321.099 681.562C321.091 679.828 322.974 678.734 325.88 678.75C328.755 678.734 330.622 679.828 330.63 681.562C330.622 683.32 328.755 684.383 325.88 684.391C322.974 684.383 321.091 683.32 321.099 681.562ZM322.802 681.562C322.794 682.477 323.958 683 325.88 683C327.747 683 328.911 682.477 328.911 681.562C328.911 680.633 327.747 680.148 325.88 680.141C323.958 680.148 322.794 680.633 322.802 681.562Z" fill="#E8EBEF"/>
<g filter="url(#filter0_d_1_1071)">
<path d="M199.5 396L208.593 380.25H190.407L199.5 396Z" fill="#FF5B44"/>
<rect x="152" y="354" width="95" height="33" rx="16.5" fill="#FF5B44"/>
<path d="M170.558 364.404V365.977H173.442V364.404H174.946V369.791H169.054V364.404H170.558ZM170.298 371.869V370.68H178.378V373.92H171.816V374.904H178.761V376.107H170.312V372.812H176.86V371.869H170.298ZM170.558 368.588H173.442V367.125H170.558V368.588ZM176.86 370.188V363.857H178.378V366.359H180.101V367.59H178.378V370.188H176.86ZM191.799 369.586V370.83H180.52V369.586H191.799ZM181.832 373.934C181.832 372.498 183.452 371.685 186.139 371.691C188.805 371.685 190.411 372.498 190.418 373.934C190.411 375.39 188.805 376.203 186.139 376.203C183.452 376.203 181.832 375.39 181.832 373.934ZM181.9 368.615V364.254H190.432V365.484H183.418V367.398H190.5V368.615H181.9ZM183.377 373.934C183.37 374.665 184.341 375.027 186.139 375.027C187.909 375.027 188.887 374.665 188.9 373.934C188.887 373.236 187.909 372.854 186.139 372.854C184.341 372.854 183.37 373.236 183.377 373.934ZM202.69 363.857V376.23H201.159V363.857H202.69ZM192.806 369.121C192.799 366.455 194.159 364.76 196.032 364.76C197.885 364.76 199.252 366.455 199.259 369.121C199.252 371.808 197.885 373.496 196.032 373.496C194.159 373.496 192.799 371.808 192.806 369.121ZM194.269 369.121C194.269 371.021 194.986 372.122 196.032 372.129C197.071 372.122 197.782 371.021 197.782 369.121C197.782 367.234 197.071 366.127 196.032 366.127C194.986 366.127 194.269 367.234 194.269 369.121ZM217.2 363.857V366.865H218.868V368.137H217.2V371.131H215.683V363.857H217.2ZM207.302 369.887C208.231 369.887 209.305 369.887 210.419 369.859V369.237C209.031 369.094 208.17 368.526 208.177 367.617C208.17 366.619 209.346 366.031 211.157 366.031C212.969 366.031 214.138 366.619 214.138 367.617C214.138 368.513 213.297 369.087 211.936 369.23V369.805C212.989 369.75 214.049 369.668 215.04 369.531L215.163 370.488C212.518 370.933 209.619 370.953 207.466 370.953L207.302 369.887ZM207.616 365.73V364.691H210.419V363.762H211.936V364.691H214.712V365.73H207.616ZM208.942 372.648V371.623H217.2V374.289H210.487V375.082H217.638V376.107H208.97V373.346H215.683V372.648H208.942ZM209.64 367.617C209.626 368.062 210.2 368.301 211.157 368.301C212.114 368.301 212.688 368.062 212.688 367.617C212.688 367.207 212.114 366.995 211.157 366.988C210.2 366.995 209.626 367.207 209.64 367.617ZM229.09 363.857V366.865H230.758V368.137H229.09V371.131H227.572V363.857H229.09ZM219.191 369.887C220.121 369.887 221.194 369.887 222.309 369.859V369.237C220.921 369.094 220.059 368.526 220.066 367.617C220.059 366.619 221.235 366.031 223.047 366.031C224.858 366.031 226.027 366.619 226.027 367.617C226.027 368.513 225.186 369.087 223.826 369.23V369.805C224.879 369.75 225.938 369.668 226.93 369.531L227.053 370.488C224.407 370.933 221.509 370.953 219.355 370.953L219.191 369.887ZM219.506 365.73V364.691H222.309V363.762H223.826V364.691H226.601V365.73H219.506ZM220.832 372.648V371.623H229.09V374.289H222.377V375.082H229.527V376.107H220.859V373.346H227.572V372.648H220.832ZM221.529 367.617C221.516 368.062 222.09 368.301 223.047 368.301C224.004 368.301 224.578 368.062 224.578 367.617C224.578 367.207 224.004 366.995 223.047 366.988C222.09 366.995 221.516 367.207 221.529 367.617Z" fill="white"/>
</g>
<rect x="20" y="749" width="353" height="62" rx="16" fill="#F4F6F8"/>
<path d="M168.133 771.92V773.168H174.988V771.92H176.922V777.211H166.199V771.92H168.133ZM164.318 779.795V778.195H178.803V779.795H172.51V780.973H176.992V784.822H167.957V785.93H177.432V787.424H166.041V783.451H175.076V782.414H166.023V780.973H170.559V779.795H164.318ZM168.133 775.752H174.988V774.592H168.133V775.752ZM191.815 772.852V774.434H186.489V779.479C188.968 779.47 190.673 779.373 192.606 779.004L192.8 780.586C190.638 780.964 188.739 781.069 185.804 781.078H184.556V772.852H191.815ZM186.472 787.318V782.326H188.44V785.736H197.317V787.318H186.472ZM190.849 777.475V775.928H194.962V771.691H196.913V783.258H194.962V777.475H190.849ZM204.887 776.191C204.887 778.793 206.417 781.535 208.983 782.607L207.911 784.154C206.03 783.337 204.659 781.676 203.929 779.654C203.2 781.834 201.802 783.662 199.948 784.541L198.823 783.012C201.328 781.852 202.892 778.89 202.901 776.191V774.855H199.403V773.238H208.368V774.855H204.887V776.191ZM210.143 787.564V771.674H212.112V787.564H210.143ZM227.451 771.674V787.564H225.482V771.674H227.451ZM214.285 783.188C218.451 781.21 220.367 778.521 220.719 774.908H215.094V773.361H222.705C222.705 778.09 220.868 782.106 215.305 784.752L214.285 783.188Z" fill="#0A0A0A"/>
<defs>
<filter id="filter0_d_1_1071" x="116" y="323" width="167" height="114" filterUnits="userSpaceOnUse" color-interpolation-filters="sRGB">
<feFlood flood-opacity="0" result="BackgroundImageFix"/>
<feColorMatrix in="SourceAlpha" type="matrix" values="0 0 0 0 0 0 0 0 0 0 0 0 0 0 0 0 0 0 127 0" result="hardAlpha"/>
<feOffset dy="5"/>
<feGaussianBlur stdDeviation="18"/>
<feComposite in2="hardAlpha" operator="out"/>
<feColorMatrix type="matrix" values="0 0 0 0 0.0666667 0 0 0 0 0.0666667 0 0 0 0 0.0627451 0 0 0 0.76 0"/>
<feBlend mode="normal" in2="BackgroundImageFix" result="effect1_dropShadow_1_1071"/>
<feBlend mode="normal" in="SourceGraphic" in2="effect1_dropShadow_1_1071" result="shape"/>
</filter>
<radialGradient id="paint0_radial_1_1071" cx="0" cy="0" r="1" gradientUnits="userSpaceOnUse" gradientTransform="translate(199.808 436.034) rotate(90) scale(19.1321 14.899)">
<stop stop-color="#FE7E5C"/>
<stop offset="0.797355" stop-color="#FE7E5C" stop-opacity="0.254729"/>
<stop offset="1" stop-color="#FE7E5C" stop-opacity="0"/>
</radialGradient>
</defs>
</svg>
