<svg width="393" height="852" viewBox="0 0 393 852" fill="none" xmlns="http://www.w3.org/2000/svg">
<rect width="393" height="852" fill="#1C1B1B"/>
<path d="M37.5547 118.766V126.125H31.6484V128.352H40.0156V130.461H20.7031V128.352H29.0234V126.125H23.1406V118.766H37.5547ZM22.8359 134.305V132.242H37.6484V139.086H35.0469V134.305H22.8359ZM25.6719 124.062H34.9766V120.805H25.6719V124.062ZM60.4447 134.539V136.648H41.0853V134.539H46.1009V130.18H42.7494V128.07H45.7259V121.789H42.6791V119.703H58.7572V121.789H55.6634V128.07H58.6869V130.18H55.3353V134.539H60.4447ZM48.3275 128.07H53.0853V121.789H48.3275V128.07ZM48.7025 134.539H52.7337V130.18H48.7025V134.539ZM80.8269 134.398V136.531H61.4675V134.398H69.8112V130.273H63.6003V119.305H66.2019V122.773H76.0222V119.305H78.6237V130.273H72.3894V134.398H80.8269ZM66.2019 128.164H76.0222V124.859H66.2019V128.164ZM99.0528 127.836V129.922H84.1934V119.75H98.8887V121.859H86.7716V127.836H99.0528ZM81.8497 136.391V134.234H101.209V136.391H81.8497Z" fill="#656569"/>
<path d="M129.906 119.891V133.93H119.828V119.891H129.906ZM122.406 131.844H127.375V121.93H122.406V131.844ZM133.703 139.109V117.898H136.328V139.109H133.703ZM146.796 121.648C146.785 124.637 148.46 127.543 151.718 128.773L150.265 130.789C148.003 129.898 146.386 128.129 145.507 125.938C144.593 128.293 142.882 130.156 140.445 131.094L139.038 129.031C142.413 127.812 144.16 124.824 144.171 121.648V119.117H146.796V121.648ZM142.859 138.664V132.102H145.507V136.555H157.296V138.664H142.859ZM150.359 127.086V125H154.226V122.914H150.359V120.805H154.226V117.922H156.827V133.648H154.226V127.086H150.359ZM177.116 117.922V133.227H174.491V117.922H177.116ZM159.842 124.602C159.842 121.52 162.339 119.316 165.561 119.305C168.784 119.316 171.268 121.52 171.257 124.602C171.268 127.73 168.784 129.922 165.561 129.922C162.339 129.922 159.842 127.73 159.842 124.602ZM162.397 124.602C162.385 126.477 163.745 127.648 165.561 127.648C167.331 127.648 168.702 126.477 168.702 124.602C168.702 122.773 167.331 121.578 165.561 121.578C163.745 121.578 162.385 122.773 162.397 124.602ZM163.1 138.664V131.68H165.725V136.555H177.702V138.664H163.1ZM199.162 127.766V129.875H179.85V127.766H199.162ZM180.787 124.766C184.713 124.379 187.268 122.809 187.666 121.039H181.607V118.906H197.428V121.039H191.311C191.697 122.785 194.229 124.379 198.248 124.766L197.334 126.828C193.479 126.43 190.631 124.895 189.482 122.75C188.334 124.895 185.522 126.43 181.678 126.828L180.787 124.766ZM182.1 135.172C182.1 132.711 184.877 131.281 189.482 131.281C194.053 131.281 196.807 132.711 196.818 135.172C196.807 137.668 194.053 139.062 189.482 139.062C184.877 139.062 182.1 137.668 182.1 135.172ZM184.748 135.172C184.736 136.402 186.4 137.012 189.482 137.023C192.518 137.012 194.193 136.402 194.217 135.172C194.193 133.941 192.518 133.32 189.482 133.32C186.4 133.32 184.736 133.941 184.748 135.172Z" fill="#F4F6F8"/>
<path d="M32.0605 252.691V257.279H34.2754V258.896H32.0605V264.381H30.1094V252.691H32.0605ZM20.0723 261.797V253.816H22.0059V256.242H25.7148V253.816H27.6484V261.797H20.0723ZM21.8828 268.248V263.203H23.834V266.666H32.6934V268.248H21.8828ZM22.0059 260.25H25.7148V257.754H22.0059V260.25ZM49.2984 260.672V262.236H34.814V260.672H41.0542V259.143H36.6948V253.061H38.6284V254.643H45.4839V253.061H47.4175V259.143H43.023V260.672H49.2984ZM36.4136 265.049V263.502H47.523V268.564H45.5718V265.049H36.4136ZM38.6284 257.578H45.4839V256.102H38.6284V257.578ZM58.503 254.168V264.697H50.9444V254.168H58.503ZM52.878 263.133H56.6045V255.697H52.878V263.133ZM61.3506 268.582V252.674H63.3194V268.582H61.3506ZM71.1705 255.486C71.1617 257.728 72.4185 259.907 74.8619 260.83L73.772 262.342C72.0757 261.674 70.8629 260.347 70.2037 258.703C69.5181 260.47 68.2349 261.867 66.4068 262.57L65.3521 261.023C67.8834 260.109 69.1929 257.868 69.2017 255.486V253.588H71.1705V255.486ZM68.2173 268.248V263.326H70.2037V266.666H79.0455V268.248H68.2173ZM73.8423 259.564V258H76.7427V256.436H73.8423V254.854H76.7427V252.691H78.6939V264.486H76.7427V259.564H73.8423Z" fill="#F4F6F8"/>
<path d="M86.0547 267V265.348L90.5547 261.006C91.8379 259.723 92.5059 258.967 92.5059 257.895C92.5059 256.708 91.5654 255.961 90.3262 255.961C89.0166 255.961 88.1729 256.778 88.1816 258.07H86.002C85.9932 255.662 87.8037 254.098 90.3438 254.098C92.9453 254.098 94.6943 255.653 94.7031 257.789C94.6943 259.222 94.0088 260.382 91.5039 262.746L89.2363 264.996V265.084H94.8965V267H86.0547Z" fill="#9B9999"/>
<line x1="4.37114e-08" y1="205.5" x2="393" y2="205.5" stroke="#272727"/>
<mask id="path-6-inside-1_1_928" fill="white">
<path d="M20 163H92V206H20V163Z"/>
</mask>
<path d="M92 204H20V208H92V204Z" fill="#E8EBEF" mask="url(#path-6-inside-1_1_928)"/>
<path d="M25.9594 180.141C25.9594 181.898 27.1625 183.617 29.4125 184.312L28.5219 185.672C26.9203 185.156 25.7562 184.094 25.1078 182.75C24.475 184.211 23.2719 185.375 21.6 185.953L20.7094 184.578C22.9828 183.828 24.1937 182 24.2094 180.141V179.734H21.1625V178.344H28.9281V179.734H25.9594V180.141ZM23.0219 191.109V186.594H24.7719V189.703H32.7562V191.109H23.0219ZM30.6156 187.531V177.281H32.3656V187.531H30.6156ZM46.2662 177.266V186.141H44.61V182.297H43.235V185.672H41.61V177.547H43.235V180.891H44.61V177.266H46.2662ZM34.11 180.156V178.797H36.7819V177.391H38.5006V178.797H41.1412V180.156H34.11ZM34.61 183.172C34.5944 181.703 35.8756 180.727 37.6412 180.734C39.4381 180.727 40.7037 181.703 40.7194 183.172C40.7037 184.641 39.4381 185.609 37.6412 185.609C35.8756 185.609 34.5944 184.641 34.61 183.172ZM36.1569 183.172C36.1569 183.898 36.7584 184.359 37.6412 184.359C38.5319 184.359 39.1412 183.898 39.1412 183.172C39.1412 182.445 38.5319 181.984 37.6412 181.984C36.7584 181.984 36.1569 182.445 36.1569 183.172ZM36.6569 188.859C36.6491 187.234 38.4772 186.32 41.5006 186.312C44.5162 186.32 46.3366 187.234 46.3444 188.859C46.3366 190.453 44.5162 191.375 41.5006 191.375C38.4772 191.375 36.6491 190.453 36.6569 188.859ZM38.3912 188.859C38.3834 189.633 39.485 190.055 41.5006 190.047C43.5084 190.055 44.5866 189.633 44.5944 188.859C44.5866 188.039 43.5084 187.625 41.5006 187.641C39.485 187.625 38.3834 188.039 38.3912 188.859ZM60.6512 183.75V185.156H55.0575V186.344C57.5809 186.508 59.0809 187.383 59.0887 188.844C59.0809 190.469 57.2372 191.375 54.1981 191.375C51.1122 191.375 49.2762 190.469 49.2762 188.844C49.2762 187.383 50.7762 186.5 53.3387 186.336V185.156H47.7762V183.75H60.6512ZM48.4012 181.734C50.995 181.492 52.6903 180.438 52.9794 179.281H48.9481V177.891H59.495V179.281H55.4247C55.7059 180.445 57.3856 181.492 60.0419 181.734L59.4325 183.109C56.8622 182.844 54.9637 181.82 54.1981 180.391C53.4325 181.82 51.5575 182.844 48.995 183.109L48.4012 181.734ZM51.0419 188.844C51.0341 189.625 52.1434 190.055 54.1981 190.047C56.2216 190.055 57.3387 189.625 57.3544 188.844C57.3387 188.062 56.2216 187.648 54.1981 187.641C52.1434 187.648 51.0341 188.062 51.0419 188.844ZM72.39 178.594V187.953H65.6712V178.594H72.39ZM67.39 186.562H70.7025V179.953H67.39V186.562ZM74.9212 191.406V177.266H76.6712V191.406H74.9212ZM83.65 179.766C83.6422 181.758 84.7594 183.695 86.9312 184.516L85.9625 185.859C84.4547 185.266 83.3766 184.086 82.7906 182.625C82.1812 184.195 81.0406 185.438 79.4156 186.062L78.4781 184.688C80.7281 183.875 81.8922 181.883 81.9 179.766V178.078H83.65V179.766ZM81.025 191.109V186.734H82.7906V189.703H90.65V191.109H81.025ZM86.025 183.391V182H88.6031V180.609H86.025V179.203H88.6031V177.281H90.3375V187.766H88.6031V183.391H86.025Z" fill="#E8EBEF"/>
<path d="M111.881 182.312V184.109H117.475V185.516H104.6V184.109H110.162V182.312H111.881ZM105.209 181.719C107.819 181.461 109.514 180.438 109.803 179.281H105.772V177.891H116.319V179.281H112.248C112.537 180.43 114.233 181.461 116.866 181.719L116.241 183.078C113.678 182.812 111.787 181.812 111.022 180.391C110.256 181.812 108.381 182.812 105.819 183.078L105.209 181.719ZM106.1 188.891C106.1 187.305 107.936 186.422 111.022 186.422C114.084 186.422 115.905 187.305 115.912 188.891C115.905 190.492 114.084 191.375 111.022 191.375C107.936 191.375 106.1 190.492 106.1 188.891ZM107.866 188.891C107.858 189.664 108.944 190.062 111.022 190.062C113.061 190.062 114.162 189.664 114.178 188.891C114.162 188.141 113.061 187.758 111.022 187.75C108.944 187.758 107.858 188.141 107.866 188.891ZM131.094 188.312V189.75H118.188V188.312H121.61V185.984H119.719V181.375H127.844V179.641H119.688V178.234H129.563V182.766H121.454V184.578H129.891V185.984H127.829V188.312H131.094ZM123.297 188.312H126.126V185.984H123.297V188.312ZM139.995 181.703V183.094H137.37V184.695C138.55 184.648 139.722 184.57 140.823 184.453L140.948 185.703C137.948 186.117 134.706 186.195 132.073 186.203L131.839 184.812C133.003 184.805 134.292 184.797 135.62 184.758V183.094H133.057V178.141H139.886V179.547H134.807V181.703H139.995ZM134.089 191.109V187.094H135.839V189.703H143.964V191.109H134.089ZM141.807 187.875V177.266H143.557V187.875H141.807ZM156.39 178.594V187.953H149.671V178.594H156.39ZM151.39 186.562H154.702V179.953H151.39V186.562ZM158.921 191.406V177.266H160.671V191.406H158.921ZM167.65 179.766C167.642 181.758 168.759 183.695 170.931 184.516L169.962 185.859C168.455 185.266 167.377 184.086 166.791 182.625C166.181 184.195 165.041 185.438 163.416 186.062L162.478 184.688C164.728 183.875 165.892 181.883 165.9 179.766V178.078H167.65V179.766ZM165.025 191.109V186.734H166.791V189.703H174.65V191.109H165.025ZM170.025 183.391V182H172.603V180.609H170.025V179.203H172.603V177.281H174.337V187.766H172.603V183.391H170.025Z" fill="#656569"/>
<path d="M33.0605 563.691V568.684H35.2754V570.301H33.0605V575.557H31.1094V563.691H33.0605ZM20.5449 567.014V565.449H24.2891V563.674H26.2402V565.449H29.9668V567.014H20.5449ZM21.3535 570.705C21.3535 568.877 22.9443 567.664 25.2559 567.664C27.5498 567.664 29.1318 568.877 29.1406 570.705C29.1318 572.524 27.5498 573.711 25.2559 573.711C22.9443 573.711 21.3535 572.524 21.3535 570.705ZM22.8828 579.248V574.625H24.834V577.666H33.6934V579.248H22.8828ZM23.252 570.705C23.2432 571.663 24.0518 572.208 25.2559 572.199C26.46 572.208 27.2773 571.663 27.2773 570.705C27.2773 569.738 26.46 569.176 25.2559 569.176C24.0518 569.176 23.2432 569.738 23.252 570.705ZM49.1206 563.691V575.416H47.1695V569.562H43.9702V572.832H36.5347V564.729H38.4859V567.295H42.0366V564.729H43.9702V567.98H47.1695V563.691H49.1206ZM38.4859 571.285H42.0366V568.807H38.4859V571.285ZM38.6441 579.248V574.256H40.6304V577.666H49.4722V579.248H38.6441ZM59.503 565.168V575.697H51.9444V565.168H59.503ZM53.878 574.133H57.6045V566.697H53.878V574.133ZM62.3506 579.582V563.674H64.3194V579.582H62.3506ZM72.1705 566.486C72.1617 568.728 73.4185 570.907 75.8619 571.83L74.772 573.342C73.0757 572.674 71.8629 571.347 71.2037 569.703C70.5181 571.47 69.2349 572.867 67.4068 573.57L66.3521 572.023C68.8834 571.109 70.1929 568.868 70.2017 566.486V564.588H72.1705V566.486ZM69.2173 579.248V574.326H71.2037V577.666H80.0455V579.248H69.2173ZM74.8423 570.564V569H77.7427V567.436H74.8423V565.854H77.7427V563.691H79.6939V575.486H77.7427V570.564H74.8423Z" fill="#F4F6F8"/>
<path d="M87.0547 578V576.348L91.5547 572.006C92.8379 570.723 93.5059 569.967 93.5059 568.895C93.5059 567.708 92.5654 566.961 91.3262 566.961C90.0166 566.961 89.1729 567.778 89.1816 569.07H87.002C86.9932 566.662 88.8037 565.098 91.3438 565.098C93.9453 565.098 95.6943 566.653 95.7031 568.789C95.6943 570.222 95.0088 571.382 92.5039 573.746L90.2363 575.996V576.084H95.8965V578H87.0547Z" fill="#9B9999"/>
<rect x="20" y="599" width="354" height="95" rx="20" fill="#272727"/>
<rect x="36" y="630.5" width="32" height="32" rx="7.68" fill="#353538"/>
<path d="M87 625.667C83.7858 625.667 81.1667 628.286 81.1667 631.5C81.1667 634.714 83.7858 637.333 87 637.333C90.2142 637.333 92.8333 634.714 92.8333 631.5C92.8333 628.286 90.2142 625.667 87 625.667ZM89.5375 633.582C89.4558 633.722 89.31 633.798 89.1583 633.798C89.0825 633.798 89.0067 633.781 88.9367 633.734L87.1283 632.655C86.6792 632.387 86.3467 631.797 86.3467 631.278V628.887C86.3467 628.647 86.545 628.449 86.7842 628.449C87.0233 628.449 87.2217 628.647 87.2217 628.887V631.278C87.2217 631.488 87.3967 631.797 87.5775 631.902L89.3858 632.982C89.5958 633.104 89.6658 633.372 89.5375 633.582Z" fill="#656569"/>
<path d="M102.635 626.102V636H101.117V627.605H101.062L98.6973 629.15V627.715L101.158 626.102H102.635ZM108.454 636.137C106.403 636.137 104.947 635.036 104.886 633.416H106.417C106.472 634.284 107.333 634.838 108.44 634.838C109.637 634.838 110.505 634.188 110.505 633.225C110.505 632.247 109.691 631.55 108.276 631.543H107.429V630.312H108.276C109.404 630.319 110.19 629.69 110.19 628.74C110.19 627.838 109.514 627.223 108.468 627.223C107.477 627.223 106.588 627.776 106.554 628.672H105.104C105.145 627.059 106.636 625.965 108.481 625.965C110.43 625.965 111.653 627.195 111.64 628.658C111.653 629.786 110.956 630.593 109.89 630.859V630.928C111.243 631.119 112.029 632.028 112.022 633.279C112.029 634.927 110.505 636.137 108.454 636.137ZM117.541 628.029C117.527 630.265 118.881 632.521 120.781 633.361L120.002 634.387C118.594 633.717 117.479 632.343 116.905 630.668C116.338 632.466 115.21 633.942 113.74 634.66L112.947 633.566C114.875 632.712 116.228 630.367 116.228 628.029V625.938H117.541V628.029ZM121.889 637.189V624.912H123.187V637.189H121.889ZM134.558 624.912V628.535H136.335V629.615H134.558V633.812H133.245V624.912H134.558ZM124.919 631.434C127.79 630.572 129.567 628.938 129.82 626.922H125.438V625.842H131.235C131.235 629.055 129.048 631.386 125.466 632.473L124.919 631.434ZM126.778 636.902V632.896H128.091V635.85H135.063V636.902H126.778ZM144.214 626.102V636H142.696V627.605H142.641L140.276 629.15V627.715L142.737 626.102H144.214ZM150.279 626.102V636H148.761V627.605H148.707L146.342 629.15V627.715L148.803 626.102H150.279ZM163.358 631.324V632.363H158.491V634.619H157.206V632.363H152.147V631.324H163.358ZM153.542 636.902V633.553H154.827V635.85H162.114V636.902H153.542ZM153.624 630.244V625.295H154.909V626.785H160.583V625.295H161.882V630.244H153.624ZM154.909 629.205H160.583V627.756H154.909V629.205ZM177.799 626.266V627.332H167.833V626.266H172.194V624.857H173.479V626.266H177.799ZM167.258 633.908V632.842H178.469V633.908H173.479V637.176H172.194V633.908H167.258ZM168.762 630.025C168.756 628.686 170.287 627.954 172.837 627.961C175.38 627.954 176.911 628.686 176.911 630.025C176.911 631.331 175.38 632.069 172.837 632.076C170.287 632.069 168.756 631.331 168.762 630.025ZM170.102 630.025C170.102 630.709 171.08 631.099 172.837 631.092C174.587 631.099 175.564 630.709 175.571 630.025C175.564 629.321 174.587 628.932 172.837 628.932C171.08 628.932 170.102 629.321 170.102 630.025ZM188.577 629.273V630.928H193.526V631.994H182.356V630.928H187.292V629.273H188.577ZM182.93 628.891C185.145 628.665 186.881 627.694 187.059 626.512H183.381V625.473H192.528V626.512H188.809C188.994 627.688 190.73 628.665 192.952 628.891L192.487 629.916C190.361 629.67 188.604 628.795 187.934 627.503C187.264 628.795 185.521 629.67 183.395 629.916L182.93 628.891ZM183.682 635.016C183.682 633.642 185.268 632.883 187.934 632.883C190.58 632.883 192.152 633.642 192.159 635.016C192.152 636.383 190.58 637.142 187.934 637.135C185.268 637.142 183.682 636.383 183.682 635.016ZM184.995 635.016C184.988 635.747 186.041 636.15 187.934 636.15C189.8 636.15 190.86 635.747 190.86 635.016C190.86 634.284 189.8 633.888 187.934 633.881C186.041 633.888 184.988 634.284 184.995 635.016ZM205.457 634.605V635.699H194.246V634.605H197.308V632.445H195.613V628.549H202.804V626.84H195.585V625.773H204.089V629.602H196.898V631.379H204.376V632.445H202.517V634.605H205.457ZM198.566 634.605H201.246V632.445H198.566V634.605Z" fill="#656569"/>
<path d="M86.2227 653.434C86.2227 655.394 87.4795 657.318 89.9844 658.145L89 659.656C87.2158 659.059 85.959 657.872 85.2646 656.387C84.5615 658.013 83.2432 659.305 81.3887 659.938L80.3516 658.426C82.9092 657.573 84.2539 655.517 84.2539 653.434V653.24H80.8965V651.676H89.5273V653.24H86.2227V653.434ZM82.4785 662.557V660.992H93.0605V666.564H91.1094V662.557H82.4785ZM91.1094 660.254V650.674H93.0605V654.646H95.2754V656.281H93.0605V660.254H91.1094ZM100.226 651.377C102.283 651.368 103.9 652.555 104.295 654.295H107.169V650.674H109.121V659.199H107.169V655.877H104.313C103.935 657.661 102.3 658.865 100.226 658.865C97.7915 658.865 96.0249 657.301 96.0249 655.104C96.0249 652.933 97.7915 651.368 100.226 651.377ZM97.8882 655.104C97.8882 656.378 98.855 657.222 100.226 657.213C101.562 657.222 102.52 656.378 102.529 655.104C102.52 653.829 101.562 653.003 100.226 653.012C98.855 653.003 97.8882 653.829 97.8882 655.104ZM98.6441 666.371V659.938H100.578V661.625H107.169V659.938H109.121V666.371H98.6441ZM100.578 664.789H107.169V663.137H100.578V664.789ZM123.634 650.691V655.684H125.849V657.301H123.634V662.557H121.683V650.691H123.634ZM111.118 654.014V652.449H114.862V650.674H116.814V652.449H120.54V654.014H111.118ZM111.927 657.705C111.927 655.877 113.518 654.664 115.829 654.664C118.123 654.664 119.705 655.877 119.714 657.705C119.705 659.524 118.123 660.711 115.829 660.711C113.518 660.711 111.927 659.524 111.927 657.705ZM113.456 666.248V661.625H115.407V664.666H124.267V666.248H113.456ZM113.825 657.705C113.816 658.663 114.625 659.208 115.829 659.199C117.033 659.208 117.851 658.663 117.851 657.705C117.851 656.738 117.033 656.176 115.829 656.176C114.625 656.176 113.816 656.738 113.825 657.705ZM144.029 650.674V666.564H142.149V658.531H140.391V665.756H138.563V650.973H140.391V656.932H142.149V650.674H144.029ZM131.074 662.609V652.502H133.043V660.887C134.414 660.86 135.908 660.737 137.578 660.412L137.772 662.117C135.627 662.495 133.808 662.609 132.129 662.609H131.074ZM160.16 658.32V659.885H145.675V658.32H149.05V656.308C147.846 655.798 147.17 654.998 147.17 653.961C147.17 652.054 149.393 650.938 152.9 650.938C156.398 650.938 158.622 652.054 158.63 653.961C158.622 655.007 157.936 655.807 156.732 656.308V658.32H160.16ZM147.363 663.682C147.363 661.854 149.428 660.834 152.9 660.852C156.319 660.834 158.393 661.854 158.402 663.682C158.393 665.527 156.319 666.529 152.9 666.529C149.428 666.529 147.363 665.527 147.363 663.682ZM149.209 653.961C149.191 654.928 150.553 655.446 152.9 655.438C155.238 655.446 156.609 654.928 156.609 653.961C156.609 652.985 155.238 652.44 152.9 652.449C150.553 652.44 149.191 652.985 149.209 653.961ZM149.349 663.682C149.34 664.578 150.588 665.062 152.9 665.053C155.176 665.062 156.433 664.578 156.451 663.682C156.433 662.794 155.176 662.337 152.9 662.328C150.588 662.337 149.34 662.794 149.349 663.682ZM151.019 658.32H154.781V656.809C154.21 656.888 153.577 656.932 152.9 656.932C152.223 656.932 151.59 656.888 151.019 656.809V658.32ZM178.2 650.691V662.17H176.231V650.691H178.2ZM165.245 655.701C165.245 653.39 167.117 651.737 169.534 651.729C171.951 651.737 173.814 653.39 173.805 655.701C173.814 658.048 171.951 659.691 169.534 659.691C167.117 659.691 165.245 658.048 165.245 655.701ZM167.161 655.701C167.152 657.107 168.172 657.986 169.534 657.986C170.861 657.986 171.889 657.107 171.889 655.701C171.889 654.33 170.861 653.434 169.534 653.434C168.172 653.434 167.152 654.33 167.161 655.701ZM167.688 666.248V661.01H169.657V664.666H178.639V666.248H167.688ZM194.735 658.074V659.656H180.25V658.074H194.735ZM180.953 655.824C183.898 655.534 185.814 654.356 186.112 653.029H181.569V651.43H193.434V653.029H188.846C189.136 654.339 191.034 655.534 194.049 655.824L193.363 657.371C190.472 657.072 188.336 655.921 187.475 654.312C186.613 655.921 184.504 657.072 181.621 657.371L180.953 655.824ZM181.938 663.629C181.938 661.783 184.021 660.711 187.475 660.711C190.902 660.711 192.968 661.783 192.977 663.629C192.968 665.501 190.902 666.547 187.475 666.547C184.021 666.547 181.938 665.501 181.938 663.629ZM183.924 663.629C183.915 664.552 185.163 665.009 187.475 665.018C189.751 665.009 191.008 664.552 191.026 663.629C191.008 662.706 189.751 662.24 187.475 662.24C185.163 662.24 183.915 662.706 183.924 663.629ZM207.982 650.674V657.002H210.425V658.619H207.982V666.564H206.049V650.674H207.982ZM195.449 654.682V653.117H199.211V650.902H201.162V653.117H204.818V654.682H195.449ZM196.187 659.463C196.17 657.266 197.875 655.71 200.195 655.719C202.48 655.71 204.176 657.266 204.185 659.463C204.176 661.651 202.48 663.189 200.195 663.189C197.875 663.189 196.17 661.651 196.187 659.463ZM198.05 659.463C198.042 660.755 198.947 661.581 200.195 661.572C201.417 661.581 202.304 660.755 202.322 659.463C202.304 658.171 201.417 657.318 200.195 657.318C198.947 657.318 198.042 658.171 198.05 659.463ZM224.095 650.674V666.564H222.126V650.674H224.095ZM210.929 662.188C215.095 660.21 217.011 657.521 217.363 653.908H211.738V652.361H219.349C219.349 657.09 217.512 661.106 211.948 663.752L210.929 662.188Z" fill="#E8EBEF"/>
<rect x="271" y="625" width="87" height="43" rx="21.5" fill="#F4F6F8"/>
<path d="M291.734 639.875C293.797 639.875 295.266 641.023 295.281 642.719C295.266 644.125 294.211 645.18 292.641 645.469V646.609C293.82 646.539 295 646.438 296.094 646.281L296.234 647.547C293.297 648.07 290.016 648.133 287.625 648.125L287.438 646.734C288.453 646.734 289.641 646.727 290.891 646.688V645.477C289.273 645.203 288.195 644.148 288.203 642.719C288.195 641.023 289.664 639.875 291.734 639.875ZM289.375 653.094V649.109H291.109V651.688H299.156V653.094H289.375ZM289.828 642.719C289.812 643.648 290.609 644.227 291.734 644.234C292.867 644.227 293.633 643.648 293.641 642.719C293.633 641.766 292.867 641.203 291.734 641.203C290.609 641.203 289.812 641.766 289.828 642.719ZM296.922 650.062V639.281H298.656V643.844H300.562V645.281H298.656V650.062H296.922ZM313.963 650.312V651.75H301.057V650.312H304.479V647.984H302.588V643.375H310.713V641.641H302.557V640.234H312.432V644.766H304.323V646.578H312.76V647.984H310.698V650.312H313.963ZM306.166 650.312H308.994V647.984H306.166V650.312ZM325.708 639.266V644.891H327.879V646.328H325.708V653.391H323.989V639.266H325.708ZM314.567 642.828V641.438H317.911V639.469H319.645V641.438H322.895V642.828H314.567ZM315.223 647.078C315.208 645.125 316.723 643.742 318.786 643.75C320.817 643.742 322.325 645.125 322.333 647.078C322.325 649.023 320.817 650.391 318.786 650.391C316.723 650.391 315.208 649.023 315.223 647.078ZM316.879 647.078C316.872 648.227 317.676 648.961 318.786 648.953C319.872 648.961 320.661 648.227 320.676 647.078C320.661 645.93 319.872 645.172 318.786 645.172C317.676 645.172 316.872 645.93 316.879 647.078ZM340.03 639.266V653.391H338.28V639.266H340.03ZM328.327 649.5C332.03 647.742 333.733 645.352 334.046 642.141H329.046V640.766H335.811C335.811 644.969 334.178 648.539 329.233 650.891L328.327 649.5Z" fill="#1C1B1B"/>
<rect x="20" y="288" width="170" height="170" rx="20" fill="#272727"/>
<circle cx="105" cy="373" r="59.5" fill="#272727"/>
<circle cx="104.758" cy="372.758" r="56.7576" transform="rotate(-90 104.758 372.758)" stroke="#FF5B44" stroke-width="3"/>
<circle cx="104.758" cy="372.758" r="55.2576" fill="#353538"/>
<path d="M89.9238 380.5V378.312L96.7871 371.395C98.9609 369.139 100.041 367.881 100.041 366.145C100.041 364.189 98.4551 362.945 96.377 362.945C94.1758 362.945 92.7812 364.34 92.7676 366.445H89.9238C89.8965 362.822 92.6582 360.43 96.4316 360.43C100.246 360.43 102.885 362.85 102.912 366.062C102.885 368.277 101.846 370.041 98.127 373.691L94.1074 377.766V377.93H103.24V380.5H89.9238Z" fill="#F4F6F8"/>
<path d="M112.417 374.656L108.776 388.203H107.292L110.932 374.656H112.417ZM113.396 386.5V385.25L117.318 381.297C118.56 380.008 119.177 379.289 119.177 378.297C119.177 377.18 118.271 376.469 117.083 376.469C115.825 376.469 115.028 377.266 115.021 378.469H113.396C113.38 376.398 114.958 375.031 117.114 375.031C119.294 375.031 120.802 376.414 120.818 378.25C120.802 379.516 120.208 380.523 118.083 382.609L115.786 384.938V385.031H121.005V386.5H113.396Z" fill="#9B9999"/>
<path d="M43.0117 484.443V486.008H28.5273V484.443H34.7852V482.861H30.3027V477.324H41.2715V478.871H32.2539V481.279H41.4121V482.861H36.7363V484.443H43.0117ZM30.127 488.82V487.256H41.2715V492.617H39.3379V488.82H30.127ZM49.6851 480.488C49.6763 483.441 51.0913 486.342 53.6226 487.449L52.4448 489.014C50.6519 488.135 49.3862 486.447 48.7095 484.364C48.0152 486.562 46.7144 488.39 44.8862 489.312L43.6558 487.73C46.2486 486.518 47.69 483.459 47.6987 480.488V477.957H49.6851V480.488ZM51.8648 483.389V481.807H55.2046V476.674H57.1382V492.582H55.2046V483.389H51.8648ZM72.3721 476.674V492.564H70.4034V476.674H72.3721ZM59.2061 488.188C63.3721 486.21 65.2881 483.521 65.6397 479.908H60.0147V478.361H67.626C67.626 483.09 65.7891 487.106 60.2256 489.752L59.2061 488.188ZM88.8892 485.27V486.852H74.3697V485.27H80.6627V483.951H76.2154V479.732H85.1451V478.555H76.1627V477.025H87.0962V481.156H78.149V482.422H87.4127V483.951H82.5962V485.27H88.8892ZM75.9869 489.4V487.854H87.1841V492.459H85.2154V489.4H75.9869ZM98.7203 479.768C98.7203 481.279 99.3619 483.063 100.926 484.153C102.456 483.081 103.097 481.306 103.097 479.768V477.869H105.066V479.768C105.057 481.692 105.998 483.661 108.16 484.549L107.105 486.008C105.602 485.366 104.618 484.188 104.073 482.756C103.528 484.241 102.508 485.542 100.9 486.219C99.2828 485.542 98.2633 484.215 97.7271 482.721C97.1646 484.136 96.1715 485.349 94.6949 486.008L93.6754 484.549C95.776 483.626 96.7604 481.587 96.7691 479.768V477.869H98.7203V479.768ZM93.6754 490.525V488.926H108.16V490.525H93.6754ZM122.234 476.674V492.564H120.265V476.674H122.234ZM109.067 488.188C113.234 486.21 115.15 483.521 115.501 479.908H109.876V478.361H117.487C117.487 483.09 115.651 487.106 110.087 489.752L109.067 488.188Z" fill="#E8EBEF"/>
<path d="M39.6211 512.816V513.869H34.6445V518.148H33.373V513.869H28.4512V512.816H39.6211ZM29.0801 510.861C31.3633 510.547 33.2637 509.187 33.3047 507.676H29.4902V506.637H38.5684V507.676H34.7812C34.8018 509.187 36.6885 510.547 39.0059 510.861L38.5273 511.887C36.5176 511.572 34.7812 510.581 34.0361 509.187C33.2842 510.581 31.5547 511.572 29.5723 511.887L29.0801 510.861ZM43.9726 517V515.906L47.4042 512.447C48.4911 511.319 49.0312 510.69 49.0312 509.822C49.0312 508.845 48.2382 508.223 47.1991 508.223C46.0986 508.223 45.4013 508.92 45.3945 509.973H43.9726C43.9589 508.161 45.3398 506.965 47.2265 506.965C49.1337 506.965 50.453 508.175 50.4667 509.781C50.453 510.889 49.9335 511.771 48.0741 513.596L46.0644 515.633V515.715H50.6308V517H43.9726ZM61.7958 505.912V518.162H60.497V505.912H61.7958ZM51.7333 514.826C52.745 514.819 53.8934 514.812 55.0966 514.785V513.555C53.6679 513.363 52.7382 512.522 52.745 511.326C52.7382 509.945 53.9413 509.036 55.7118 509.029C57.5028 509.036 58.7264 509.945 58.7333 511.326C58.7264 512.509 57.8036 513.343 56.3817 513.548V514.737C57.5165 514.683 58.6649 514.601 59.745 514.457L59.8407 515.428C57.12 515.879 54.1532 515.913 51.911 515.906L51.7333 514.826ZM51.993 508.414V507.375H55.0966V505.939H56.3954V507.375H59.4716V508.414H51.993ZM53.9755 511.326C53.9618 512.105 54.6864 512.591 55.7118 512.584C56.7714 512.591 57.4891 512.105 57.4891 511.326C57.4891 510.54 56.7714 510.041 55.7118 510.041C54.6864 510.041 53.9618 510.54 53.9755 511.326Z" fill="#656569"/>
</svg>
